<?xml version="1.0" standalone="no"?>
<!DOCTYPE svg PUBLIC "-//W3C//DTD SVG 1.1//EN" "http://www.w3.org/Graphics/SVG/1.1/DTD/svg11.dtd" >
<svg xmlns="http://www.w3.org/2000/svg" xmlns:xlink="http://www.w3.org/1999/xlink" version="1.1">
<metadata>
Created by FontForge 20170731 at Mon Jan 18 10:18:54 2021
 By Aleksey,,,
Copyright (c) 2009 by Manuel Eduardo Corradine. All rights reserved.
</metadata>
<defs>
<font id="SVN-Helga" horiz-adv-x="1499" >
  <font-face 
    font-family="SVN-Helga"
    font-weight="400"
    font-stretch="normal"
    units-per-em="2048"
    panose-1="3 5 0 0 0 0 0 0 0 0"
    ascent="1638"
    descent="-410"
    x-height="694"
    cap-height="1618"
    bbox="-729 -1444 3443 2689"
    underline-thickness="102"
    underline-position="-307"
    unicode-range="U+0020-FB02"
  />
<missing-glyph horiz-adv-x="1126" 
d="M1313 1010q-41 -69 -145 -288t-190.5 -405t-92.5 -192q1 -1 6 3.5t12 9.5t10 5q5 0 5 -6q0 -25 -56 -83.5t-88 -73.5q-10 -7 -20 -7t-23.5 13.5t-25.5 13.5q-63 0 -227 -7t-300 -7q-39 0 -65.5 25t-26.5 67q0 56 52 169.5t113.5 217.5t148 246t120.5 204q35 64 49.5 91
t32.5 68.5t23 66.5q-27 39 -27 63q0 15 82 25q4 2 8 2q77 8 321 18t345 19q20 26 41 26q17 0 24 -18q8 2 25 2q9 0 19 -6t10 -17q0 -21 -15.5 -40.5t-38.5 -26.5q-10 -27 -30.5 -61.5t-44.5 -70t-31 -46.5zM721 1143q-4 -16 -16 -25q-21 -76 -82 -187t-133 -221.5
t-143 -221.5t-124 -216t-65 -176q0 -22 12.5 -32.5t42.5 -10.5q126 0 318.5 12t238.5 13q17 34 65 119.5t60 107.5q57 102 114.5 222t135 291t112.5 245q48 120 56 137q-159 0 -376 -12t-218 -29q0 -3 1 -8t1 -8z" />
    <glyph glyph-name="fi" unicode="fi" horiz-adv-x="1454" 
d="M342 63q-46 0 -80 27q-46 -109 -129.5 -313t-109.5 -266q-128 -308 -271 -616t-174 -308q-14 0 -14 33q1 43 24 123.5t43 123.5q83 191 247.5 544.5t242.5 543.5q61 142 61 309q0 26 -4 96q-113 -92 -162 -120q-9 -5 -29 -18t-30 -18.5t-24.5 -13.5t-24 -11t-17.5 -3
q-16 0 -16 14q0 10 8.5 21.5t27 26t36 26.5t49 33t51.5 35q96 67 131 94v39q3 121 35 121q34 0 43 -99q115 96 186 162q107 220 265 479q99 164 181 242t136 78q27 0 27 -31q-3 -114 -147.5 -308.5t-362.5 -414.5q-103 -190 -246 -530q26 -39 76 -39q56 0 142.5 44.5
t242.5 143.5q318 232 395 320q27 31 39 31q8 0 8 -17q0 -18 -20 -88q-9 -30 -35 -68.5t-55.5 -76.5t-57.5 -81t-46.5 -98t-18.5 -112q0 -51 49 -51q33 2 141 55q56 26 152.5 86.5t169 104.5t88.5 44q14 0 14 -10t-28.5 -36.5t-65.5 -51.5q-5 -3 -62 -41.5t-78.5 -52t-76 -48
t-85.5 -50.5t-74.5 -37t-76.5 -30t-59 -9q-50 0 -76.5 32.5t-26.5 75.5q0 42 15.5 100t35.5 112.5t21 56.5q-14 -9 -63 -46t-105 -74.5t-110 -64.5q-97 -64 -171.5 -94.5t-150.5 -30.5zM930 1286q-85 0 -320 -463q69 75 133 160q69 92 136 193q14 24 32.5 64t18.5 46z
M1421 922q-13 15 -24 43t-11 53q0 33 22 63.5t46 30.5q37 0 37 -80q0 -50 -16 -84.5t-41 -34.5q-7 0 -13 9zM264 244q76 188 133 311q-73 -70 -137 -125q-3 -80 -6 -137q3 -23 10 -49z" />
    <glyph glyph-name="fl" unicode="fl" horiz-adv-x="1439" 
d="M342 63q-46 0 -80 27q-46 -109 -129.5 -313t-109.5 -266q-128 -308 -271 -616t-174 -308q-14 0 -14 33q1 43 24 123.5t43 123.5q83 191 247.5 544.5t242.5 543.5q61 142 61 309q0 26 -4 96q-113 -92 -162 -120q-9 -5 -29 -18t-30 -18.5t-24.5 -13.5t-24 -11t-17.5 -3
q-16 0 -16 14q0 10 8.5 21.5t27 26t36 26.5t49 33t51.5 35q96 67 131 94v39q3 121 35 121q34 0 43 -99q115 96 186 162q107 220 265 479q99 164 181 242t136 78q27 0 27 -31q-3 -114 -147.5 -308.5t-362.5 -414.5q-103 -190 -246 -530q26 -39 76 -39q42 0 92 17t106 50
t92 57.5t89 63.5q147 105 272 207q128 351 299 711q65 139 146 262t151 199t127 119.5t86 43.5t45 -25t16 -67q0 -27 -17.5 -90t-62.5 -169.5t-109.5 -226t-171.5 -272t-235 -296.5q-77 -89 -206 -205q-78 -234 -95 -379q0 -41 37 -41q52 0 141.5 46t167 100.5t146 100.5
t84.5 46q14 0 14 -10q0 -11 -16 -30t-31 -32q-77 -65 -286 -192t-285 -127q-62 0 -62 90q0 100 80 338q-440 -351 -643 -351zM1378 1192q-125 -230 -252 -578q67 62 134 138q129 152 239.5 319.5t175.5 298t101 226.5t36 135q0 24 -14 24q-49 0 -181.5 -183t-238.5 -380z
M930 1286q-85 0 -320 -463q69 75 133 160q69 92 136 193q14 24 32.5 64t18.5 46zM264 244q76 188 133 311q-73 -70 -137 -125q-3 -80 -6 -137q3 -23 10 -49z" />
    <glyph glyph-name=".notdef" horiz-adv-x="1126" 
d="M1313 1010q-41 -69 -145 -288t-190.5 -405t-92.5 -192q1 -1 6 3.5t12 9.5t10 5q5 0 5 -6q0 -25 -56 -83.5t-88 -73.5q-10 -7 -20 -7t-23.5 13.5t-25.5 13.5q-63 0 -227 -7t-300 -7q-39 0 -65.5 25t-26.5 67q0 56 52 169.5t113.5 217.5t148 246t120.5 204q35 64 49.5 91
t32.5 68.5t23 66.5q-27 39 -27 63q0 15 82 25q4 2 8 2q77 8 321 18t345 19q20 26 41 26q17 0 24 -18q8 2 25 2q9 0 19 -6t10 -17q0 -21 -15.5 -40.5t-38.5 -26.5q-10 -27 -30.5 -61.5t-44.5 -70t-31 -46.5zM721 1143q-4 -16 -16 -25q-21 -76 -82 -187t-133 -221.5
t-143 -221.5t-124 -216t-65 -176q0 -22 12.5 -32.5t42.5 -10.5q126 0 318.5 12t238.5 13q17 34 65 119.5t60 107.5q57 102 114.5 222t135 291t112.5 245q48 120 56 137q-159 0 -376 -12t-218 -29q0 -3 1 -8t1 -8z" />
    <glyph glyph-name=".null" horiz-adv-x="0" 
 />
    <glyph glyph-name="nonmarkingreturn" horiz-adv-x="682" 
 />
    <glyph glyph-name="space" unicode=" " horiz-adv-x="614" 
 />
    <glyph glyph-name="exclam" unicode="!" horiz-adv-x="366" 
d="M223 145q-34 -73 -84 -73q-20 0 -20 26q0 30 37 117q63 144 290.5 618t284.5 570q6 10 14 24.5t11.5 20t9.5 13.5t10.5 11t11 5t15.5 2q15 0 27 -8t12 -21q0 -17 -15 -41q-49 -81 -264 -508t-278 -563q-30 -64 -40 -101t-11.5 -55t-10.5 -37zM45 -117q16 -5 29.5 -24
t13.5 -39q0 -15 -11 -32t-28 -17q-22 0 -48 24t-26 39q0 17 20 34t38 17q2 0 6.5 -1t5.5 -1z" />
    <glyph glyph-name="quotedbl" unicode="&#x22;" horiz-adv-x="444" 
d="M694 1561q12 0 20.5 -8.5t8.5 -22.5q0 -22 -28.5 -65.5t-65 -91t-76 -118.5t-57.5 -137q-52 -190 -95 -190q-28 0 -28 41q0 56 53.5 185t136.5 278q72 129 131 129zM856 1479q67 80 96 80q17 0 17 -23q-1 -32 -16 -62t-46 -67.5t-68 -80.5t-91 -120t-105 -168
q-16 -29 -33 -60.5t-26.5 -49.5t-20 -36.5t-16 -27.5t-12.5 -17t-12.5 -10.5t-12.5 -2.5q-9 0 -16 7t-7 19q0 31 68 144q55 94 160 262.5t141 212.5z" />
    <glyph glyph-name="numbersign" unicode="#" horiz-adv-x="1355" 
d="M522 924q23 4 52.5 9.5t70 14t66.5 13.5q27 55 61 110q47 82 92 166.5t68 127.5t31 54q17 21 34 21q8 0 16.5 -7t8.5 -14q0 -25 -61 -147q-2 -3 -5.5 -9.5t-5.5 -9.5q-60 -121 -145 -272q24 4 82.5 16t89.5 17q2 2 5.5 8t4.5 8q157 276 217.5 356t132.5 80q21 0 21 -18
q0 -23 -31 -57q-131 -135 -262 -365q141 23 240 23q186 0 186 -56q0 -42 -67.5 -96.5t-102.5 -54.5q-23 0 -23 20q0 16 29 50t29 40q0 13 -84 13q-102 0 -252 -17q-93 -176 -168 -350q17 4 60.5 15.5t64 16.5t56.5 14t57.5 13.5t48.5 9.5t46.5 7t35.5 2q41 0 64.5 -14
t23.5 -39q0 -46 -49 -100.5t-115.5 -91t-114.5 -36.5q-18 0 -18 19q0 22 90 99t90 85q0 2 -6 2q-19 0 -67.5 -10t-148.5 -33.5t-149 -34.5q-35 -83 -98 -247.5t-92 -225.5q-1 -2 -10.5 -22t-16.5 -34.5t-19.5 -37.5t-24.5 -40t-26 -33.5t-28.5 -25t-28.5 -8.5q-22 0 -22 35
q0 7 4 27q13 50 34 86.5t39 51.5t33.5 28t18.5 22q49 156 155 408q-83 -18 -133 -25q-12 -2 -37.5 -6t-38.5 -6q-34 -70 -78.5 -170t-72.5 -162.5t-60 -124.5t-58 -91.5t-50 -29.5q-9 0 -18 4.5t-9 12.5q0 12 19 46t52.5 91t55.5 105q110 235 142 305q-32 -5 -83 -13.5
t-80 -13t-62 -8.5t-54 -4q-37 0 -57.5 12t-20.5 31q0 11 14 24.5t37 20.5q20 5 69.5 8t130 6t140.5 8q102 210 172 342q-190 -55 -253 -55t-100.5 28.5t-37.5 67.5q0 20 17 36t37 16q10 0 18 -7t15.5 -16t28.5 -16t54 -7q31 0 84 9zM571 549l-6 -12q11 0 17 2q64 7 186 36
q82 192 168 361q-5 -1 -15 -2t-14 -2q-57 -10 -149 -35q-136 -248 -187 -348z" />
    <glyph glyph-name="dollar" unicode="$" horiz-adv-x="1280" 
d="M1049 870q0 9 21.5 51.5t21.5 67.5q0 30 -29 47q-58 -106 -186 -315q61 -1 106 -2.5t97.5 -5t88.5 -10t67.5 -17t47.5 -26.5t16 -37q0 -28 -28 -76q-40 -66 -108.5 -131t-153 -118t-186.5 -85.5t-199 -32.5q-45 0 -68 2q-45 -79 -45 -98q-8 -80 -57 -80q-37 0 -37 37
t61 149q-80 14 -135 29q-33 -63 -46 -99t-14 -54.5t-3 -24.5q-5 -15 -15.5 -28t-26.5 -30.5t-26 -29.5q-11 -14 -15.5 -45t-17.5 -48.5t-49 -17.5q-25 0 -25 37q5 67 177 361q-62 22 -97.5 51t-35.5 59q0 19 34 19q9 0 18.5 -1.5t20.5 -5t18.5 -6.5t20.5 -10l19.5 -10.5
t21.5 -12.5t21 -12q28 47 98 165t104 175h-22q-322 0 -322 84q0 34 51 101q70 96 213.5 172.5t309.5 107.5q2 5 14 29q8 15 26 55.5t31 68t33.5 51t40.5 23.5q37 -4 37 -34q-2 -36 -72 -176q54 4 80 4q34 0 90 -9q24 51 49.5 116t38.5 93t25 35q13 8 37 8q57 0 57 -34
q-1 -12 -18.5 -37.5t-53.5 -81t-69 -121.5q31 -16 47 -35t16 -33q0 -27 -43.5 -100.5t-68.5 -73.5q-4 0 -4 6zM840 659q-29 -48 -120.5 -199t-127.5 -216h51q161 0 332 96q59 32 153.5 118t94.5 136q0 41 -55.5 54.5t-192.5 13.5q-21 0 -66 -1.5t-69 -1.5zM588 762
q79 145 135 276q-68 -11 -141 -37q-118 -43 -209.5 -123.5t-91.5 -132.5q0 -32 88 -32q129 0 192 2q2 3 27 47zM596 651q-29 -50 -77.5 -132t-81.5 -138.5t-56 -95.5q66 -27 133 -33q78 136 248 405q-100 -3 -166 -6zM825 1053q-119 -215 -190 -336q29 0 84.5 2t81.5 2
q107 169 149 240q46 85 51 94q-36 4 -63 4q-54 0 -113 -6z" />
    <glyph glyph-name="percent" unicode="%" horiz-adv-x="1105" 
d="M-31 -236q0 30 25 88t47 58q6 0 6.5 -32.5t7.5 -33.5q9 -1 28 21.5t49.5 71.5t63 103t85 140.5t98.5 159.5q23 35 130 203.5t199.5 313t204.5 315t197.5 290.5t124.5 160q1 1 26 27.5t35 34.5t32.5 20t43.5 12q29 -3 29 -39q-2 -15 -23.5 -41.5t-61 -73.5t-69.5 -92
q-35 -52 -99.5 -166t-108.5 -182.5t-64 -66.5q-10 0 -10 20q4 32 29 62.5t50.5 63.5t30.5 71q0 6 -2 8q-16 0 -76 -84q-28 -39 -269 -425.5t-284 -453.5q-184 -284 -282 -464q-32 -55 -82 -94.5t-84 -39.5q-27 3 -27 45zM758 106q0 52 26 125q-11 -7 -22 -10l-28 -12
t-36.5 -14t-25.5 -5q-13 0 -13 11q0 14 19 34.5t54.5 52.5t55.5 54q4 4 21.5 24.5t26.5 30t26.5 28.5t30 29t27.5 21.5t28.5 17t24.5 5.5q22 0 27.5 -30.5t9.5 -35.5t15 -12.5t17.5 -17.5t6.5 -27q0 -76 -68 -178t-135 -125q-28 -11 -55 -11q-33 3 -33 45zM354 952v9
q-29 -33 -59 -52q-18 -12 -31 -12q-14 0 -14 18q0 19 22 58q46 77 130 175.5t120 98.5q17 0 28.5 -24.5t14.5 -24.5t11 1t12 1q30 0 30 -51q0 -69 -77.5 -167.5t-132.5 -98.5q-24 0 -39 22.5t-15 46.5zM848 141q24 0 62 52.5t38 80.5q0 12 -9 38t-15 26q-5 0 -12 -5
t-18.5 -18t-14.5 -16q-2 -7 -21.5 -62.5t-19.5 -78.5q0 -17 10 -17zM526 1126q-21 0 -88 -71q-8 -21 -8 -54q0 -14 12 -14q18 0 57.5 50.5t39.5 72.5q0 16 -13 16z" />
    <glyph glyph-name="ampersand" unicode="&#x26;" horiz-adv-x="1232" 
d="M915 -195q-226 0 -350 250q-117 -114 -227.5 -186t-169.5 -72q-78 0 -129 66.5t-51 156.5q0 78 28.5 162.5t70.5 158.5t111.5 163t131 156.5t149.5 158.5q30 196 99 372t176 294q73 81 160 131.5t145 50.5q49 0 49 -51q0 -94 -48.5 -196.5t-166.5 -245.5
q-36 -44 -88.5 -101t-131.5 -139.5t-124 -130.5q-14 -98 -14 -201q0 -247 55 -422q115 130 191.5 255t76.5 198q0 27 -18.5 53.5t-18.5 44.5q0 45 58 45q12 0 80.5 -3t115.5 -3q91 0 174 12.5t111 12.5q22 0 32.5 -12t10.5 -23q0 -30 -61.5 -72.5t-94.5 -42.5q-8 0 -8 8
q0 9 9 21t9 18q0 10 -16 10q-23 -4 -65 -4q-20 0 -65 2t-71 2h-82q-28 0 -28 -24q0 -123 -88 -274.5t-226 -297.5q88 -206 250 -206q21 0 21 14q0 5 -4 17.5t-4 17.5q0 10 14 10q30 0 63 -35.5t33 -60.5q0 -58 -74 -58zM203 -121q49 0 139.5 67.5t192.5 174.5
q-74 193 -74 440q0 77 6 156q-115 -128 -195.5 -233.5t-139 -225t-58.5 -211.5q0 -87 31.5 -127.5t97.5 -40.5zM829 1468q-190 -232 -260 -559q178 182 271 291q93 111 142 189t56 147q0 23 -6.5 32t-21.5 9q-91 0 -181 -109z" />
    <glyph glyph-name="quotesingle" unicode="'" horiz-adv-x="303" 
d="M694 1561q12 0 20.5 -8.5t8.5 -22.5q0 -22 -28.5 -65.5t-65 -91t-76 -118.5t-57.5 -137q-52 -190 -95 -190q-28 0 -28 41q0 101 155 397q2 2 2 8q0 4 -5 15t-5 20q0 40 66 96t108 56z" />
    <glyph glyph-name="parenleft" unicode="(" horiz-adv-x="518" 
d="M926 1483q-128 -70 -273 -233t-261.5 -357t-193.5 -407t-77 -373q0 -53 20 -95t53.5 -67t69 -42.5t75 -25t63 -10t40.5 -2.5q20 0 49 6t35 6q11 0 11 -8q0 -41 -46 -62.5t-94 -21.5q-23 0 -49.5 3.5t-69.5 13t-80.5 31.5t-72.5 55t-55.5 88.5t-20.5 126.5
q0 82 32.5 204.5t89.5 260t130.5 281.5t161 274.5t175.5 234t179 164.5t166 61q23 0 23 -20q0 -16 -22 -40.5t-58 -45.5z" />
    <glyph glyph-name="parenright" unicode=")" horiz-adv-x="587" 
d="M676 1206q0 73 -33.5 186.5t-79.5 168.5q-11 13 -29 33t-27.5 31.5t-17.5 27.5t-8 30q0 13 5.5 27t17.5 14q23 0 61 -39t64 -77q129 -187 129 -391q0 -103 -28.5 -231t-81 -261.5t-122 -267t-156.5 -251t-179.5 -208t-196 -143t-201.5 -52.5q-26 0 -45.5 8.5t-28.5 20.5
t-12.5 22t-3.5 17q0 15 9.5 26t23.5 13q6 0 28 -17.5t48 -17.5q108 0 220 73t205 190t176 263.5t140 294.5t90 282.5t33 227.5z" />
    <glyph glyph-name="asterisk" unicode="*" horiz-adv-x="737" 
d="M920 1096q-7 0 -16.5 19.5t-24.5 19.5q-32 0 -83 -29.5t-134 -89.5q108 -74 159 -122t51 -89t-47 -41q-20 0 -31 12.5t-18.5 31.5t-36.5 53.5t-77 68.5q-4 3 -11 7.5t-12.5 8t-9.5 6.5q-3 -21 -11 -90q-2 -21 -5 -48t-4.5 -41.5t-3.5 -32.5t-5 -27t-7.5 -17.5t-10.5 -12
t-15 -3.5q-28 3 -28 74q0 73 20 186q-9 -6 -65.5 -45.5t-87.5 -58.5q-108 -68 -136 -68q-14 0 -14 16q5 27 297 226q-41 30 -84 53q-98 46 -98 111q0 59 30 59q10 -1 29.5 -18.5t30.5 -22.5q10 -5 30.5 -10t34 -9t13.5 -8t-23 -4q-3 0 -8.5 1t-7.5 1q-29 13 -49 13
q-7 0 -7 -5q0 -14 3 -22t14.5 -16.5t24.5 -14.5t42.5 -21.5t59.5 -33.5q33 121 75.5 202t81.5 81q13 0 21 -10.5t8 -26.5t-18.5 -49.5t-47.5 -84.5t-46 -92q84 55 124 84q86 58 119 58q47 0 47 -58q0 -21 -12 -46t-20 -25z" />
    <glyph glyph-name="plus" unicode="+" horiz-adv-x="1024" 
d="M596 827q3 36 19 57t38 21q39 0 39 -63q0 -70 -90 -279q209 15 365 35q10 2 28 2q39 0 39 -18q0 -26 -33.5 -52.5t-77 -43t-80.5 -27t-48 -10.5q-31 0 -31 14q0 11 58.5 30t58.5 25q0 4 -33 4q-103 0 -273 -20q-36 -82 -67 -137q-43 -81 -81.5 -193t-65.5 -159.5
t-74 -47.5q-27 0 -27 25q0 14 8 30q82 191 221 472q-256 -33 -256 -54q0 -3 2.5 -8t2.5 -8q0 -13 -17 -25t-31 -12q-36 0 -67 39.5t-31 64.5q0 31 428 66q17 33 30 67t20 59.5t12.5 52t7.5 41t4 32t2 20.5z" />
    <glyph glyph-name="comma" unicode="," horiz-adv-x="405" 
d="M117 188q0 28 36.5 51t63.5 23q53 0 53 -59q0 -88 -49.5 -188.5t-132.5 -194.5t-161.5 -167t-166.5 -142q-14 -11 -22 -11t-8 4q103 102 174.5 181t135.5 164t96 160t32 141q0 7 -8 9.5t-17.5 2t-17.5 5.5t-8 21z" />
    <glyph glyph-name="hyphen" unicode="-" horiz-adv-x="935" 
d="M94 389q0 23 131 23q26 0 79.5 -1t76.5 -1q42 0 74 4q38 6 181.5 46.5t186.5 45.5q40 4 49 4q35 0 35 -16q0 -4 -29 -40t-75.5 -74t-83.5 -38q-8 0 -8 8q0 6 8 24.5t8 24.5q0 11 -10 11q-6 0 -27 -7q-88 -30 -244.5 -54.5t-234.5 -24.5q-63 0 -87.5 16t-29.5 49z" />
    <glyph glyph-name="period" unicode="." horiz-adv-x="333" 
d="M72 156q7 8 18.5 13t15.5 9q3 3 11.5 12t13 13t11.5 9.5t14 8t14 2.5q26 0 41.5 -16t15.5 -41q0 -42 -40 -81.5t-85 -39.5t-45 53q0 43 15 58z" />
    <glyph glyph-name="slash" unicode="/" horiz-adv-x="540" 
d="M-113 -287q-42 -64 -80 -97.5t-61 -33.5q-20 0 -20 27q0 73 114 203q77 88 202 288t273 441.5t252 384.5q254 348 447.5 563t263.5 215q20 0 31.5 -11t11.5 -30q0 -25 -23 -56t-67 -57q-88 -52 -256.5 -240.5t-358.5 -445.5q-112 -150 -255.5 -377t-288 -468.5
t-185.5 -305.5z" />
    <glyph glyph-name="zero" unicode="0" horiz-adv-x="858" 
d="M727 1329q13 0 25 -4q90 70 141 70q63 0 113.5 -54t50.5 -151q0 -124 -91 -355.5t-212 -404.5q-33 -46 -76 -98.5t-103.5 -115t-119 -111.5t-122 -82t-114.5 -33q-110 0 -110 188q0 145 45.5 338t121.5 356q52 113 141.5 221.5t174.5 172t135 63.5zM655 1200q-19 0 -22 6
q-24 -8 -49 -26q-59 -44 -132.5 -145.5t-127.5 -231.5q-127 -308 -127 -582q0 -76 19 -109.5t58 -33.5q47 0 114 46.5t132 116t118.5 137.5t88.5 122q104 161 173 362t69 293q0 64 -31.5 97.5t-71.5 33.5q-37 0 -116.5 -43t-94.5 -43z" />
    <glyph glyph-name="one" unicode="1" horiz-adv-x="681" 
d="M330 879q-3 0 -9.5 -1t-9.5 -1q-28 0 -28 32q0 20 14 42t39 22q6 0 26 -4t37 -4q43 0 159 65.5t230 145.5q1 1 28.5 39t60 81t72.5 79t65 36q22 0 22 -29q0 -43 -30 -88t-66.5 -74t-72.5 -57.5t-42 -38.5q-100 -160 -229.5 -420.5t-202.5 -439.5q-22 -56 -22 -76
q0 -12 6 -12q10 0 40.5 25.5t35.5 25.5q4 0 4 -6q0 -15 -47.5 -70.5t-111.5 -107t-101 -51.5q-9 0 -9 6q0 21 115 260q18 39 122.5 242.5t194 380t87.5 182.5q-18 -8 -97.5 -55.5t-158 -86t-121.5 -42.5z" />
    <glyph glyph-name="two" unicode="2" horiz-adv-x="819" 
d="M600 1137q-6 -13 -18 -45.5t-25 -60t-29 -44.5q-29 -31 -68.5 -59.5t-62.5 -28.5q-16 0 -16 21q0 85 154 247q222 228 299 228q32 0 52.5 -38.5t20.5 -101.5q0 -85 -66.5 -216t-172 -270.5t-210.5 -261t-206 -224.5q0 -5 15 -7t38.5 -6t38.5 -14q22 -14 40.5 -43
t28.5 -54.5t25.5 -45t34.5 -19.5q45 0 71 17t34 39t20 50t29 42q25 22 77 47.5t80 25.5q21 0 21 -16q0 -8 -6.5 -20.5t-20.5 -29t-27 -31t-34 -35t-34 -32.5t-34.5 -31.5t-27.5 -25.5q-97 -90 -168 -90q-32 0 -52.5 21.5t-32.5 52t-24.5 60.5t-36 51.5t-59.5 21.5
q-41 0 -83.5 -21t-77.5 -51.5t-67 -60.5t-63 -51t-55 -21q-23 0 -23 23q0 94 295 254q167 158 311.5 334t240 351.5t95.5 291.5q0 49 -28 49q-17 0 -94 -64.5t-99 -107.5z" />
    <glyph glyph-name="three" unicode="3" horiz-adv-x="778" 
d="M434 1110q-26 3 -47.5 24t-21.5 42q0 34 61 34q40 0 231.5 53.5t231.5 53.5q12 0 19 -8t7 -19q0 -14 -10 -24q-47 -35 -179.5 -163.5t-241 -243t-97.5 -114.5q6 0 124 31t167 31q51 0 87 -30.5t36 -80.5q0 -90 -46.5 -209t-118 -224.5t-167 -179t-184.5 -73.5
q-50 0 -127 20.5t-92 20.5q-29 0 -50.5 -10t-29.5 -10q-20 0 -48 9t-28 21q0 5 21 21.5t59 32.5t73 16q30 0 117.5 -26.5t122.5 -26.5q51 0 105 34.5t98.5 88t85 118.5t68 127.5t43.5 112t16 74.5q0 52 -19 75t-49 23q-58 0 -107 -15.5t-124 -51.5q-87 -41 -135 -41
q-39 0 -39 30q0 23 30.5 66.5t86.5 103t110 114t128 127t114 114.5q20 20 20 32q0 11 -18 11q-30 0 -94 -24t-121 -56q-8 -3 -21.5 -11.5t-25 -14t-21.5 -5.5z" />
    <glyph glyph-name="four" unicode="4" horiz-adv-x="917" 
d="M754 539q21 -7 28 -7q31 0 40.5 16t9.5 32.5t6 17.5q18 0 66.5 -23.5t51.5 -46.5q0 -7 -7.5 -19t-22 -26t-41.5 -24t-60 -10q-25 0 -83.5 8t-75.5 10q-52 -132 -64 -205q-31 -161 -62 -225t-89 -64q-17 0 -17 19q0 11 19 73.5t59 175.5t88 230q-49 0 -140.5 -18.5
t-127.5 -22.5q-42 -5 -106.5 -24t-98.5 -19q-58 0 -61 23q0 33 116 141q119 109 335.5 279t345 280t132.5 154q0 5 6 8q20 41 29 57.5t23.5 35.5t28.5 24.5t34 5.5q29 0 29 -37q0 -36 -20 -72.5t-49.5 -70t-80.5 -109t-98 -166.5q-10 -20 -57.5 -110t-81 -157t-60.5 -130
q24 0 56 -4zM225 461q7 1 156.5 35.5t247.5 42.5q121 284 248 497q-81 -67 -283.5 -227t-298.5 -242.5t-96 -101.5q0 -6 10 -6q2 0 7.5 1t8.5 1z" />
    <glyph glyph-name="five" unicode="5" horiz-adv-x="937" 
d="M416 1098q0 21 10 41q-5 0 -12.5 5t-7.5 7q0 16 36 43t99 57q108 49 376.5 114t337.5 65q45 0 45 -27q-3 -31 -54 -56t-111 -37t-107 -12q-57 0 -100 -3t-112 -19t-136 -45q-35 -16 -81 -38.5t-62 -29.5q-20 -75 -73 -180t-96 -179.5t-44 -84.5q0 -10 8 -10q12 0 47 18
q83 42 249 103t238 61q45 0 73 -47t28 -123q0 -146 -92.5 -305t-221.5 -269q-173 -149 -344 -149q-91 0 -153 30t-84 85q-4 4 -9 4q-4 0 -11.5 -1t-10.5 -1q-5 0 -8 0.5t-5.5 5.5t-2.5 14q7 39 46.5 92.5t71.5 53.5q29 0 29 -29q-1 -13 -10.5 -42.5t-9.5 -47.5q0 -41 39 -72
t143 -31q86 0 183.5 64t173.5 157t126.5 203t50.5 197q0 32 -1 50t-6 38t-16.5 28.5t-29.5 8.5q-64 0 -202 -51.5t-254 -103.5t-126 -52q-16 0 -27 11.5t-11 29.5q0 25 34 68q63 77 122 197.5t65 193.5z" />
    <glyph glyph-name="six" unicode="6" horiz-adv-x="876" 
d="M614 1049q-54 -58 -130.5 -157t-158.5 -221.5t-139 -248t-57 -207.5q0 -60 29 -95.5t90 -35.5q86 0 213.5 41t226 104t98.5 115q0 36 -54.5 57t-119.5 21q-62 0 -178.5 -58.5t-161.5 -115.5q-16 -20 -28 -42.5t-17 -35.5t-13 -22t-19 -9q-13 0 -20 10.5t-7 24.5
q4 49 33 88q20 29 59.5 64t95.5 71.5t131.5 61t151.5 24.5q45 0 93.5 -12.5t88 -43.5t39.5 -73q0 -63 -77.5 -129.5t-184 -114t-213.5 -78t-170 -30.5q-170 0 -170 209q0 85 45 197t107 210t143 203.5t135.5 168t102.5 112.5q100 105 236 201t177 96q7 0 13 -5.5t6 -13.5
q0 -21 -72 -75.5t-174 -129.5t-150 -126z" />
    <glyph glyph-name="seven" unicode="7" horiz-adv-x="958" 
d="M428 676q7 1 186 26q19 30 62 98.5t69 108.5q72 114 185 248.5t172 181.5q-54 -28 -145 -48.5t-180.5 -31t-171.5 -18t-133.5 -13t-51.5 -11.5q0 -34 19 -153t20 -151q-3 -71 -29 -71q-18 3 -34.5 26.5t-16.5 51.5q0 91 -14.5 200.5t-36.5 163.5q-1 5 -3.5 12t-4 11
t-1.5 8q0 10 7 16t16 6q16 0 31 -9.5t46 -19.5t85 -10q112 0 322 34t388 110q36 16 64 16q16 0 16 -18q-1 -19 -14 -38.5t-36.5 -39.5t-37.5 -30t-39 -27q-179 -141 -352 -406q-63 -97 -119 -186q179 26 262 55q34 12 58 12q41 0 41 -22q0 -17 -15.5 -31.5t-46.5 -24.5
t-65 -17.5t-83.5 -13.5t-89.5 -9t-95 -7q-113 -181 -281 -489q-79 -140 -118 -188t-66 -48q-29 0 -29 23q4 19 25.5 55.5t67 108t79.5 129.5q123 211 242 401q-91 -11 -129 -22q-14 -4 -62 -28t-63 -24q-37 0 -37 29q0 50 137 74z" />
    <glyph glyph-name="eight" unicode="8" horiz-adv-x="958" 
d="M41 213q0 83 50 189.5t124.5 198t169 158t176.5 72.5q-32 15 -57 50t-25 88q0 5 10 63q6 22 25 58q-56 -46 -65 -46q-5 5 -5 13q13 41 70.5 105t134.5 124q38 35 68 47q157 105 248 105q61 0 102 -49t41 -115q0 -96 -60.5 -195t-156.5 -168q49 -19 77.5 -64.5
t28.5 -107.5q0 -99 -38 -204.5t-106 -198t-155 -166.5t-194 -117t-213 -43q-46 0 -94 10q-156 39 -156 193zM436 647q0 15 13.5 33.5t28 31.5t38.5 32.5t31 25.5q-105 -27 -202 -117t-154.5 -207.5t-57.5 -222.5q0 -69 54.5 -100t136.5 -31q104 0 209.5 50t187 131.5
t133 193.5t51.5 227q0 62 -25 106t-81 44q-45 0 -113 -35q41 -12 41 -27q-5 -10 -35 -10q-11 0 -35 4q-6 0 -22 4q-36 -24 -81.5 -62t-73 -59.5t-38.5 -21.5q-6 0 -6 10zM911 1366q-88 0 -278 -166q-90 -117 -90 -211q0 -36 15.5 -65.5t41.5 -36.5q20 -4 37 -4q75 0 166 54
t156 139.5t65 164.5q0 47 -30.5 86t-82.5 39z" />
    <glyph glyph-name="nine" unicode="9" horiz-adv-x="874" 
d="M1028 1051q-6 -31 -32 -90.5t-64 -141.5t-60 -137q-33 -86 -51 -130t-56 -131t-73.5 -147.5t-68.5 -97.5q-69 -77 -137.5 -109t-147.5 -32q-87 0 -182 39.5t-95 68.5q0 19 20 36.5t44 17.5q19 0 57 -22t83.5 -44t82.5 -22q150 0 244 127q54 74 113 200t94 232
q66 204 110 295q-336 -250 -510 -250q-52 0 -96.5 28t-44.5 84q0 84 85.5 191t203.5 193t244.5 146t205.5 60q65 0 104.5 -45.5t39.5 -103.5q0 -57 -34 -113.5t-79 -93.5v-8zM1051 1247q0 86 -86 86q-48 0 -153 -57.5t-210 -137t-184.5 -171t-79.5 -150.5q0 -45 72 -45
q97 0 261.5 95.5t266.5 209.5q6 26 58.5 82.5t54.5 87.5z" />
    <glyph glyph-name="colon" unicode=":" horiz-adv-x="442" 
d="M354 559q-18 -12 -47 -12q-26 0 -44.5 11.5t-18.5 33.5q0 43 50.5 85t98.5 42q43 -3 43 -39q0 -25 -26 -66.5t-56 -54.5zM63 111q0 43 51.5 92t100.5 49q28 0 39.5 -14t11.5 -33q0 -36 -32.5 -73.5t-57.5 -37.5q-10 0 -15.5 11.5t-10.5 11.5q-15 0 -33.5 -15.5
t-26.5 -15.5q-27 0 -27 25z" />
    <glyph glyph-name="semicolon" unicode=";" horiz-adv-x="518" 
d="M332 578q-8 -5 -21 -5q-16 0 -29.5 8.5t-13.5 22.5q0 43 69.5 117t111.5 74q36 0 36 -41q0 -31 -18 -61.5t-45.5 -53.5t-49.5 -37.5t-40 -23.5zM92 127q-28 2 -46.5 11t-18.5 22q0 28 48 57t111 46.5t111 17.5q57 0 57 -91q0 -40 -14 -98q-12 -41 -76 -133t-145 -188
t-170.5 -177t-145.5 -100q0 11 10 22t34 33t44 45q87 100 190.5 231.5t127.5 178.5q35 68 45 102t12 82q0 9 -10 9q-17 0 -79.5 -35t-84.5 -35z" />
    <glyph glyph-name="less" unicode="&#x3c;" horiz-adv-x="1069" 
d="M1032 733q-87 -46 -289 -111t-352.5 -113t-150.5 -63q0 -20 55 -32q8 -2 189 -60.5t268 -70.5q10 -2 55 -7q40 -7 88.5 -34t48.5 -49q0 -23 -31 -34.5t-61 -11.5q-16 2 -44 29.5t-54 30.5q-63 9 -162.5 39.5t-202.5 67.5t-127 44q-151 43 -151 82q0 7 2 11
q10 26 121 70.5t246 87t279 96.5t204 94q43 28 96 28h7.5t7.5 -0.5t8 -1t6.5 -2.5t6.5 -4.5t3.5 -6.5t1.5 -9q-30 -51 -68 -70z" />
    <glyph glyph-name="equal" unicode="=" horiz-adv-x="1089" 
d="M399 567q-18 -6 -53 -6q-46 3 -73 25t-27 45q0 21 24 24q14 3 86.5 25t102.5 22q20 -2 20 -20q0 -2 -1 -7t-1 -7q0 -23 29 -25q42 0 253.5 25t311.5 47q32 4 37 4q25 -3 25 -19q0 -25 -47 -54t-115 -40q-71 -14 -290.5 -21t-281.5 -18zM236 311q36 4 167 17.5t219.5 22
t192 16.5t152.5 8q94 0 94 -25q0 -16 -22 -55t-44 -39q-7 0 -28 10t-60.5 19.5t-89.5 9.5q-161 0 -616 -82q-24 -6 -45 -6q-57 0 -82 24t-25 50q0 10 12.5 13t66.5 7q62 5 108 10z" />
    <glyph glyph-name="greater" unicode="&#x3e;" horiz-adv-x="935" 
d="M225 758q-10 10 -10 20q0 11 10 20.5t25 10.5q41 0 126 -26.5t105 -30.5q64 -14 133.5 -27.5t112 -21t86.5 -16.5t68 -16t44 -17t28 -22.5t8 -29.5q0 -23 -26.5 -43t-74.5 -29q-80 -16 -232 -78.5t-303 -153t-188 -161.5q-16 -31 -55 -31q-51 0 -51 37q0 62 169.5 168
t350.5 184.5t240 86.5q40 6 40 12q0 15 -56.5 26.5t-169.5 29t-195 38.5q-88 23 -127 38t-58 32z" />
    <glyph glyph-name="question" unicode="?" horiz-adv-x="935" 
d="M649 1221q-12 -10 -12 -29q0 -6 2 -18.5t2 -18.5q0 -19 -20.5 -36t-40.5 -17q-37 0 -37 47t35.5 98t105.5 92q94 55 309 99q15 3 87.5 20t97.5 17q24 0 24 -43q0 -52 -29.5 -139.5t-60.5 -137.5q-49 -79 -87.5 -135.5t-99 -126t-114.5 -105.5q-33 -22 -86.5 -51.5
t-95.5 -51.5t-89 -55t-78.5 -65t-52 -78t-20.5 -98q0 -76 82 -76q40 0 88 6.5t80.5 13.5t36.5 7q35 0 35 -25q0 -9 -29 -35t-71 -49.5t-70 -23.5q-9 0 -9 10q0 5 5.5 20.5t5.5 20.5q0 6 -6 6q-7 0 -11 -2q-31 -14 -100 -14q-66 0 -93.5 39.5t-27.5 91.5q0 67 24.5 124
t62.5 96t93 78t105 65.5t109.5 61.5t97.5 64q70 55 134 135.5t103.5 153.5t62.5 131t23 82q0 14 -26 14q-44 0 -153.5 -39.5t-197.5 -78.5t-94 -45zM483 0q4 -2 4 -8q0 -19 -23.5 -51t-46 -54t-24.5 -22q-10 0 -17 13t-7 38q0 11 7 29t30.5 37.5t56.5 19.5q14 0 20 -2z" />
    <glyph glyph-name="at" unicode="@" horiz-adv-x="1925" 
d="M1206 406q-2 8 -4.5 43.5t-12 56t-34.5 20.5q-59 0 -135.5 -57t-146.5 -142t-125.5 -166.5t-90.5 -148.5q-14 -25 -14 -43q0 -24 27 -24q60 0 165 89t173 197q27 45 67.5 78t65.5 33q18 0 18 -16q0 -27 -34.5 -82.5t-84.5 -100.5q-5 -5 -16 -15t-16 -15q-9 -18 -9 -47
q0 -25 14.5 -51.5t45.5 -26.5q99 0 202 28.5t196.5 83.5t167.5 128.5t117.5 170.5t43.5 201q0 238 -318 238q-122 0 -266.5 -32t-285 -87t-274 -132t-236 -162.5t-167 -183.5t-71.5 -190q0 -100 64 -199.5t165.5 -162t204.5 -62.5q77 0 135 41q27 17 76 17q61 0 61 -19
q0 -14 -29.5 -58t-45.5 -44t-27 11t-20 11q-20 0 -63 -10t-66 -10q-122 0 -243 62t-202.5 172.5t-81.5 236.5q0 120 69 237t183 210t260.5 173t302.5 133t309 83t279 30q375 0 375 -293q0 -117 -52 -225.5t-138.5 -190.5t-194 -144t-223.5 -94t-222 -32q-62 0 -96.5 32.5
t-42.5 68.5q-192 -156 -254 -156q-41 0 -69.5 22t-28.5 54q0 73 115 223q56 74 119 146t133 139.5t137 109t114 41.5q43 0 69 -32t33 -68t7 -78q-3 -27 -15.5 -43t-29.5 -16t-29 39z" />
    <glyph glyph-name="A" unicode="A" horiz-adv-x="1239" 
d="M299 485q0 82 64 144t141 65q59 77 219 295q108 147 206 294.5t148.5 230t97.5 151.5t80 96t68 27q80 0 80 -141q0 -95 -40.5 -236t-82.5 -242t-102 -233q-134 -295 -404 -801h10q188 0 400 129q15 9 43 26.5t44 27t36 21t32.5 16.5t20.5 5q10 0 10 -8q0 -13 -26 -35
t-87 -65q-251 -176 -469 -176q-31 0 -45 2q-68 -128 -118 -211q-46 -74 -82 -74q-10 0 -17.5 8.5t-7.5 20.5q0 28 27 65q63 88 82 211q-97 30 -171.5 88.5t-115.5 139.5q-59 -76 -144.5 -178t-137.5 -169.5t-89 -130.5q-22 -36 -43.5 -54.5t-36.5 -18.5q-22 0 -22 28
q0 40 55 121t171 226t173 223q6 9 19.5 27.5t19.5 27.5q-6 27 -6 57zM1114 1323h10q17 0 17 -14q0 -13 -13 -36.5t-32 -49t-43 -54t-43 -50.5t-35 -39.5t-17 -18.5q-32 -39 -86.5 -102t-130.5 -151.5t-127 -148.5q72 -63 86 -253q2 -27 2 -84q0 -89 -10 -177q12 -4 21 -4
q78 148 192 383t176 377q19 44 78 170.5t89.5 197t59.5 167t29 161.5q0 43 -13 80t-30 37q-17 1 -57 -46t-76 -109q-29 -49 -78.5 -121.5t-121.5 -173.5t-129 -179t-151.5 -206.5t-137.5 -188.5q12 0 18 -2q208 242 336 387q45 51 96 118t77 96.5t44 33.5zM399 399
q81 -175 236 -235q6 68 6 217q0 161 -70 227q-119 -141 -172 -209zM362 504q8 12 103 139q-36 -3 -69.5 -49t-33.5 -90zM518 637q-2 0 -6.5 1t-7.5 1q-38 -52 -96 -133q64 77 110 131z" />
    <glyph glyph-name="B" unicode="B" horiz-adv-x="1398" 
d="M627 958q41 78 79.5 120t59.5 42q18 0 18 -39q0 -25 -6 -54t-12 -40q-4 -7 -57 -80q53 6 122 6q191 0 308 -43q103 75 169 160.5t66 157.5q0 69 -73 106t-189 37q-53 0 -114.5 -10.5t-133 -31.5t-120.5 -37.5t-127.5 -45t-104.5 -37.5q-57 -20 -94 -43.5t-49.5 -40.5
t-23.5 -35t-19 -24q-86 -51 -119 -51q-14 0 -14 18q0 20 6 40t34 50t76 52q164 74 295 125t299 95t291 44q115 0 183.5 -48.5t68.5 -144.5q0 -88 -70.5 -183.5t-177.5 -178.5q143 -75 143 -238q0 -125 -98 -259t-256 -253q106 42 252.5 116t241.5 136q64 41 92 41
q12 0 12 -8q0 -33 -168.5 -135.5t-349.5 -182.5q-138 -61 -285 -61q-189 0 -275.5 28.5t-86.5 98.5q0 66 59 66q32 0 61 -23.5t60 -53t62 -38.5q40 -12 77 -12q71 0 166 49q162 82 253 222.5t91 274.5t-104 195q-65 -42 -88 -53q-158 -82 -295 -82q-46 0 -89 16.5t-71 44.5
q-139 -244 -346 -700q-27 -59 -51.5 -116t-36.5 -85.5t-23.5 -54t-20 -37.5t-18.5 -19q-24 -18 -43 -18q-36 0 -36 66q0 34 9.5 81.5t20.5 47.5q2 0 2 -11t-4 -50.5t-4 -53.5q0 -19 4 -19q1 0 111 236t252.5 536t208.5 422zM797 729q121 0 284 105q-73 22 -186 22
q-225 0 -225 -61q0 -31 36 -48.5t91 -17.5z" />
    <glyph glyph-name="C" unicode="C" horiz-adv-x="1159" 
d="M936 1006q53 104 125.5 201t128.5 149q-9 73 -37.5 128.5t-73.5 55.5q-50 0 -130 -59t-168.5 -155t-179 -227t-162.5 -267.5t-117.5 -284t-45.5 -268.5q0 -152 63 -224.5t171 -72.5q107 0 240 71q129 68 263.5 155t207 135t96.5 50q8 0 8 -8q0 -13 -7 -25t-25 -26
t-36.5 -27t-54 -37t-65.5 -45q-61 -45 -128.5 -89.5t-167.5 -102t-200.5 -93.5t-177.5 -36q-123 0 -192.5 87t-69.5 247q0 118 38.5 264.5t110.5 296.5q89 188 238 381t288 312.5t211 119.5q55 0 95.5 -46t59 -112t18.5 -139q0 -126 -43 -272.5t-101.5 -257.5t-119.5 -186.5
t-97 -78.5q-27 0 -44 25t-21.5 49.5t-4.5 44.5q0 157 107 367zM1120 956q69 180 74 330q-56 -55 -121.5 -153.5t-120.5 -232t-55 -236.5q0 -54 8 -54q20 2 95.5 118.5t119.5 227.5z" />
    <glyph glyph-name="D" unicode="D" horiz-adv-x="1554" 
d="M852 936q61 100 61 164q0 41 -14 41q-20 0 -57.5 -53t-67.5 -134q-64 -173 -336 -804q119 -48 213 -73.5t191 -25.5q140 71 248.5 193t166.5 267t58 288q0 157 -67.5 293.5t-180.5 229t-262 145.5t-311 53q-51 0 -105 -15.5t-96.5 -50.5t-42.5 -82q0 -35 23 -71.5
t55 -63.5q37 -32 37 -43q0 -4 -9 -4q-57 0 -121.5 70.5t-64.5 142.5q0 59 50 103t116 63.5t133 19.5q132 0 266 -37.5t251.5 -108.5t209 -164.5t144.5 -215t53 -250.5q0 -213 -116 -413.5t-308 -333.5q136 30 302 100t288 145q56 35 73 35q15 0 15 -12q0 -14 -13.5 -35
t-36.5 -37q-145 -100 -355.5 -177.5t-385.5 -84.5q-202 -102 -410 -102q-56 0 -108 12q-36 -96 -37 -98q-18 -48 -44 -77.5t-46 -29.5q-18 0 -18 29q0 28 20 78l49 122q-100 43 -170 134q-29 39 -29 77q0 41 31 69t82 28q34 0 86 -19q29 -11 103 -43q41 97 114.5 268
t134 313.5t113.5 270.5q34 83 80 138t84 55q39 0 58.5 -28.5t19.5 -63.5q0 -44 -26.5 -98t-57.5 -89t-47 -35q0 5 14 25zM498 -33q119 0 229 35q-125 15 -313 90q-24 -58 -45 -108q66 -17 129 -17zM133 152q0 -35 44 -76t114 -70l49 117q-19 7 -56.5 20.5t-56.5 20.5
q-38 12 -59 12q-35 0 -35 -24z" />
    <glyph glyph-name="E" unicode="E" horiz-adv-x="1644" 
d="M958 1343q1 3 2.5 8.5t2.5 8.5q-74 -10 -187 -10q-177 0 -256 53q-28 19 -65 38t-51 30t-19 30q-2 4 -2 10q0 24 23 46t45 22q11 0 23.5 -12t27.5 -30t34 -36.5t50 -34t69 -20.5q110 -16 187 -16q82 0 153 10q29 59 56 59q20 0 20 -43q0 -1 -1 -3t-1 -3q3 1 36.5 7
t51.5 11q107 24 277.5 73.5t295.5 80.5t197 31q96 0 152.5 -26t56.5 -58q0 -54 -73.5 -120.5t-112.5 -66.5q-17 0 -17 4q0 10 35.5 31.5t71 55.5t35.5 73q0 31 -111 31q-122 0 -262 -31q-37 -8 -265.5 -78.5t-387.5 -95.5q-61 -175 -226 -508q120 10 205 10q113 0 204 -8
t136 -19.5t45 -23.5q0 -14 -13 -27.5t-26 -13.5q-5 0 -25.5 8t-59 15.5t-87.5 7.5q-4 0 -61 -2.5t-161 -9t-194 -13.5q-152 -297 -247 -448q-37 -58 -45 -72q539 -165 755 -254q18 -6 33 -6q31 0 65 26.5t39 26.5q10 0 17.5 -21t7.5 -40q0 -34 -18 -62t-66 -28q-38 0 -74 20
q-7 3 -91.5 36t-157 60.5t-173.5 64t-198.5 67.5t-175.5 51q-204 -334 -229 -372q-73 -111 -97 -111q-27 0 -42 64t-15 161q0 70 12 130t38 110.5t73 79t110 28.5q47 0 115 -10q127 212 274 491q-152 -13 -231 -32q-66 -17 -105 -17q-59 0 -59 35t45.5 58.5t87.5 23.5
q13 0 25 -4q4 -2 4 -8v-9q0 -8 18 -8q39 0 133 16t121 19q180 354 223 489zM166 -115q9 0 29.5 32.5t72.5 120.5t101 165q12 18 14 22q-77 15 -107 15q-137 0 -137 -185q0 -48 8.5 -109t18.5 -61z" />
    <glyph glyph-name="F" unicode="F" horiz-adv-x="1603" 
d="M512 860q-78 0 -78 21q0 29 141.5 54t339.5 40q0 3 3 6q8 17 24.5 50.5t24.5 49.5q-63 231 -183 387h-84q-96 0 -176.5 15.5t-131 38.5t-86 50.5t-50 51.5t-14.5 43q0 38 45.5 61t111.5 23q59 0 115 -18q177 -61 305 -205q26 1 234 16q50 4 196 23q124 166 207 166
q57 0 57 -60q0 -30 -22 -69q39 6 152.5 24.5t164 26.5t144 22t146.5 20t113.5 11.5t100.5 5.5q66 0 66 -18q0 -30 -48.5 -64t-160.5 -59q-54 -12 -82 -12q-14 0 -14 4q0 5 42 29l42 24q-25 0 -60.5 -2.5t-92 -9t-101 -12l-133.5 -16.5t-142 -17q-39 -5 -112 -14.5t-78 -10.5
q-28 -30 -61 -59t-53.5 -43.5t-20.5 -12.5q0 17 55 105q-40 -5 -47 -6q-42 -50 -115 -172.5t-160 -294.5q10 -58 11 -68q102 6 180 6q153 0 322 -26.5t169 -51.5q0 -4 -22 -4q-28 0 -162 13.5t-285 13.5q-89 0 -194 -12q8 -102 8 -154q0 -180 -45.5 -315t-138 -242
t-250.5 -217q-6 -4 -24 -17t-30.5 -21.5t-28 -16t-24.5 -7.5q-12 0 -12 17q0 10 2 16q14 60 148 399.5t223 538.5q-44 -6 -140.5 -19t-147.5 -19t-83 -7zM616 61q110 34 202.5 132t146 237t53.5 287q0 77 -17 203q-30 -5 -32 -5q-169 -354 -303 -702q-50 -122 -50 -152z
M1010 1165q107 209 196 342q-200 -25 -344 -34q93 -123 148 -308zM401 1593q77 -44 127.5 -55.5t178.5 -11.5h28q-110 113 -248 151q-62 15 -96 15q-57 0 -57 -27q0 -32 67 -72zM1393 1593q-6 0 -17 -8q6 2 15 2z" />
    <glyph glyph-name="G" unicode="G" horiz-adv-x="1212" 
d="M629 0q66 0 221 86q128 251 158 344q-90 -93 -224.5 -175.5t-246.5 -82.5q-75 0 -129 44.5t-77.5 108t-23.5 134.5q0 90 41.5 205.5t109.5 230.5t159 226.5t186 196t195 137t182 52.5t141 -75.5t59 -198.5q0 -97 -28 -164q-22 -50 -67 -97.5t-79 -47.5q-37 0 -37 73
q0 68 35.5 166.5t79.5 98.5q6 0 10 -2q15 -9 15 -29t-16.5 -80t-16.5 -84q0 -6 2 -6q12 0 23.5 57.5t11.5 108.5q0 105 -40 163t-106 58q-103 0 -239 -98t-253.5 -242t-199.5 -322.5t-82 -324.5q0 -86 40 -147.5t118 -61.5q36 0 80.5 14t93 40t83 47t80 51.5t56.5 37.5
q27 16 46 39t27 39.5t19.5 28.5t26.5 12q25 0 35 -14t10 -47q0 -35 -33.5 -108t-122.5 -245q8 5 121 66.5t176 103.5q68 45 88 45q15 0 15 -10q0 -15 -41 -47q-25 -21 -94 -62t-169 -97.5t-139 -79.5q-18 -33 -69 -132q-32 -58 -140 -270q2 -35 2 -108q0 -162 -41 -336
t-99 -300.5t-120 -209t-104 -82.5q-41 0 -41 88q0 64 7 122t29.5 133t40 126.5t66 157t78.5 168t103 212.5q30 62 36 76q-1 47 -4 87.5t-8.5 79t-5.5 42.5q-56 -18 -78 -18q-51 0 -51 43q0 55 96 55h23zM641 -563q0 4 12 133q-293 -600 -293 -801q0 -26 9 -26q20 0 76 102
t116 272t80 320zM690 -223q19 38 59.5 114.5t59.5 114.5q-86 -51 -141 -74q13 -60 22 -155z" />
    <glyph glyph-name="H" unicode="H" horiz-adv-x="1683" 
d="M1720 1448q82 175 136.5 277.5t81.5 136.5t44 34q14 0 21.5 -21.5t7.5 -51.5q0 -42 -4.5 -63t-13 -27.5t-25.5 -18.5t-37 -29t-52.5 -65.5t-68.5 -122.5q-125 -259 -374 -803q-18 -40 -123.5 -266t-157.5 -344q1 -3 4 -9t4 -9q241 56 469 194q162 96 201 96q8 0 8 -6
q0 -51 -450 -272q-105 -51 -211 -68q28 -101 28 -231q0 -128 -25.5 -241.5t-63.5 -187.5t-82 -128.5t-81 -78.5t-61 -24q-57 0 -57 113q0 87 37 239.5t64.5 236.5t43.5 128q26 81 59 156q-74 -6 -217 -6q-119 0 -220.5 24.5t-209.5 95.5q-27 14 -57 44q-199 -365 -199 -381
q1 -1 56.5 45t111 90t55.5 41q0 -32 -85.5 -112t-172.5 -145t-98 -65q-12 0 -12 15q0 61 153 311q4 7 60 98t88 146q-72 87 -72 184q0 104 79 179t198 75q16 0 24 -2q12 24 80.5 155.5t90 174t68 135t72.5 152.5t46 112q70 188 120 188q20 0 31.5 -27.5t11.5 -60.5
q0 -32 -24.5 -68.5t-57.5 -73t-42 -54.5q-3 -5 -34.5 -69t-71.5 -143t-102.5 -200.5t-121.5 -233.5q140 -42 287.5 -181t234.5 -277q114 264 358 770.5t250 519.5zM557 555q-102 -192 -182 -336q39 -39 61 -53q106 -81 201.5 -109t206.5 -28q117 0 221 16q2 5 6 14.5t6 14.5
q-32 52 -86 119.5t-124.5 143t-154 136.5t-155.5 82zM1149 -233q0 119 -35 223q-50 -122 -67 -174q-26 -68 -74.5 -260.5t-48.5 -282.5q0 -54 20 -57q56 0 139 215q66 171 66 336zM432 451q10 22 32.5 64t27.5 52q-85 0 -139 -49t-54 -123q0 -64 37 -125q12 22 96 181z" />
    <glyph glyph-name="I" unicode="I" horiz-adv-x="1355" 
d="M967 756q4 -20 4 -27q0 -33 -19 -33q-7 0 -20 13q-2 2 -22 18.5t-26.5 24t-22 33.5t-22 54.5t-12.5 79.5t-6 115q0 85 10.5 201t10.5 160v39q0 82 43 82q17 0 34.5 -14.5t26.5 -37.5q14 -36 19.5 -49.5t21.5 -51t26 -56t29 -51.5t34.5 -51t39 -41.5t46 -35.5t51 -21
t59.5 -9q20 0 59 8.5t72 23.5q20 22 72.5 85.5t80.5 91.5q154 158 261 234.5t155 76.5q31 0 31 -27q0 -46 -81 -154.5t-161 -174.5q-190 -153 -358 -203q-53 -64 -121.5 -165t-119.5 -183t-181 -293q-136 -220 -242 -400q233 42 465 175q45 26 119 73t116 70.5t60 23.5
q10 0 10 -8q0 -25 -70.5 -77.5t-211.5 -124.5q-104 -54 -184 -87t-131 -48.5t-162 -45.5q-8 -2 -23 -5t-22 -5q-81 -143 -91 -162q-138 -247 -161 -291q-9 -148 -59 -288t-128 -230q-59 -67 -96 -67q-18 0 -18 24q0 91 124 344q19 40 58.5 117t60.5 119q2 14 2 41
q0 123 -29 217t-114 180q-117 17 -190.5 49t-73.5 80q0 17 16.5 26t38.5 9q17 0 34 -4.5t42 -14.5t39 -14q72 -38 114 -78q129 -18 232 -18q88 0 153 8q64 109 265 432q24 38 123 199q134 228 276 403q-41 -6 -76 -6q-65 0 -122 30t-93 73t-63 85.5t-42.5 72.5t-19.5 30
q-14 0 -14 -186q0 -120 8 -183q5 -50 19 -90.5t29 -69.5t18 -40zM471 -328q34 70 152 275q-66 -4 -101 -4q-79 0 -184 10q98 -127 113 -320q3 6 10 19.5t10 19.5zM1616 1270q-52 -42 -84 -74q182 93 182 133q0 6 -4 10q-8 0 -39 -23.5t-55 -45.5zM315 -856q2 0 11.5 26
t24 77t24.5 104q-25 -54 -37 -88q-25 -67 -25 -103q0 -10 2 -16zM72 78q0 -25 100 -45l-49 37q-26 16 -39 16q-12 0 -12 -8z" />
    <glyph glyph-name="J" unicode="J" horiz-adv-x="1386" 
d="M426 838q7 18 8.5 43.5t5.5 41.5t20.5 37.5t62 44t122.5 48.5q178 60 425.5 165.5t457.5 208.5q182 245 325 363q84 70 179 70q37 0 59.5 -16t22.5 -44q0 -55 -93.5 -138.5t-232.5 -164.5q-67 -39 -199 -104q-68 -84 -129 -170q-196 -273 -684 -1215q50 20 138.5 55
t109.5 43q101 39 221.5 109t198 118t98.5 48q10 0 10 -10q0 -73 -518 -316q-40 -18 -301 -127q-74 -143 -467 -919q-136 -269 -227 -269q-39 0 -74 49.5t-74 153.5q-96 255 -96 432q0 50 27.5 98t82 94t109.5 82.5t136 82.5q139 80 522 235q467 906 784 1360
q-511 -246 -739 -336q-73 -29 -117.5 -49t-68.5 -38t-32.5 -27.5t-19.5 -30t-20 -33.5q-27 -31 -37 -31q-6 0 -6 11q0 16 10 45zM354 -662q194 385 275 545q-324 -143 -477 -239q-72 -45 -116.5 -77t-84.5 -70.5t-58 -78t-18 -84.5q0 -40 27 -155.5t69.5 -223.5t75.5 -108
q36 0 101.5 109.5t205.5 381.5zM1962 1735q-24 0 -97.5 -58t-170.5 -164q4 2 12 7.5t12 7.5q110 62 178 115.5t72 82.5q0 9 -6 9z" />
    <glyph glyph-name="K" unicode="K" horiz-adv-x="1339" 
d="M913 76q6 0 14 1.5t14.5 3t16.5 5.5t16.5 6.5t19 8.5t19 9t21.5 10.5l21 10.5q56 26 152.5 86.5t168.5 105t88 44.5q15 0 15 -11q0 -10 -28.5 -36t-66.5 -52q-5 -3 -62 -41.5t-78.5 -52t-76 -48t-85.5 -50.5t-74.5 -37t-76.5 -30t-59 -9q-75 0 -75 70q0 174 50.5 443.5
t96.5 397.5q-20 -14 -54.5 -37.5t-45.5 -31.5q-29 -20 -98 -77.5t-101 -82.5q-82 -143 -104 -180q-39 -148 -123 -340t-180 -360t-197 -284t-168 -116q-11 0 -24 8t-13 19q0 43 37 119.5t81.5 146t131.5 201.5t139 215q25 40 114.5 181.5t137.5 221.5q9 36 15 64
q-71 -33 -121 -33q-47 0 -78 22t-31 64q0 61 58.5 137t103.5 76q50 0 93.5 -48t47.5 -110q5 3 14.5 9.5t14.5 9.5q102 176 147 266q-67 -36 -116 -68q-91 -61 -127 -61q-23 0 -23 12t32 37.5t103 64.5t166 80q116 232 180 451q21 77 31 187t18.5 168.5t32.5 58.5
q55 0 120 -142l5 -10q0 -22 -7 -42.5t-15 -20.5q-3 0 -39.5 62t-40.5 62q0 -1 8 -24t8 -41q0 -237 -221 -676q29 10 39 14q63 22 195 65.5t172 57.5q441 302 653 424q201 115 305 115q38 0 62 -21t24 -43q0 -61 -104 -137q-87 -63 -186.5 -114.5t-224 -96t-205.5 -70
t-228 -67.5q-119 -82 -365 -250q8 -12 8 -18q0 -39 -6 -72q-123 -573 -123 -741q0 -39 41 -39zM2189 1677q-106 0 -702 -393q391 139 606 277q117 73 117 100q0 16 -21 16zM-109 -543q97 59 248.5 303t255.5 504q-4 -6 -106 -170q-68 -109 -178 -279.5t-165 -258.5t-55 -99z
M825 1010q-22 -44 -114 -215q46 37 102.5 86.5t60.5 52.5q24 17 79 56.5t106.5 75.5t99.5 69q-90 -29 -186 -66q-25 -10 -74 -29.5t-74 -29.5zM436 784q-28 0 -69 -50.5t-41 -86.5q0 -24 13 -34.5t46 -10.5q45 0 117 43q0 7 1 21.5t1 21.5q0 45 -18 70.5t-50 25.5z" />
    <glyph glyph-name="L" unicode="L" horiz-adv-x="1462" 
d="M1087 1217q-40 -90 -200 -431t-232 -487q-90 -183 -151 -301q171 -98 336 -98q87 0 199.5 29t197.5 77q-47 6 -47 25q2 11 46.5 30t76.5 19q33 0 33 -21q0 -17 -20.5 -42.5t-37.5 -36.5q-89 -59 -223.5 -99.5t-233.5 -40.5q-172 0 -358 103q-161 -301 -205 -301
q-14 0 -27 14t-20.5 29t-19.5 41q-150 334 -150 475q0 41 7.5 58t27.5 17q16 0 79.5 -43t157 -112t123.5 -90q216 423 457 961.5t262 658.5q6 37 22.5 66.5t33.5 29.5q36 0 36 -113q0 -89 -24.5 -194t-42.5 -105q-8 0 -14 27t-9 27t-8 -7.5t-13 -25t-15.5 -35t-20.5 -49
t-23 -55.5zM287 -264q37 62 131 239q-42 24 -90 60q-34 24 -81 59t-72.5 53.5t-37.5 24.5q-4 2 -8 2q-8 0 -8 -12q0 -53 66.5 -221.5t99.5 -204.5z" />
    <glyph glyph-name="M" unicode="M" horiz-adv-x="1441" 
d="M1845 1720q53 99 94 99q15 0 15 -33q0 -61 -18 -105t-74 -135q-121 -200 -175.5 -291.5t-156 -271t-159 -298.5t-124 -278t-110.5 -305q-10 -32 -23 -71.5t-20 -60t-12 -43t-5 -38.5q0 -11 1 -39t1 -43q0 -22 -4 -44t-19.5 -44t-39.5 -22q-18 0 -26.5 10t-8.5 35
q0 62 82 354q30 106 119 316t200 426q-76 -86 -151.5 -162t-166.5 -157t-174.5 -129t-141.5 -48q-52 0 -88 33.5t-53.5 90.5t-24.5 114t-7 122q0 20 5 103q-35 -63 -109 -199q-42 -79 -62 -118.5t-62 -129t-62.5 -157.5t-20.5 -115q0 -13 1 -29.5t1 -21.5q0 -18 -14.5 -29.5
t-36.5 -11.5q-19 0 -32 10.5t-13 32.5q5 216 434 924q54 243 201 495q56 96 88 136t51 40q16 0 19 -10q14 -12 24 -39t10 -53q0 -45 -36 -119t-70 -124.5t-92 -131.5q-71 -99 -144 -219q-22 -123 -22 -227q0 -52 6 -96.5t20 -85.5t41 -65t64 -24q53 0 127.5 42t152 108.5
t167 159.5t167.5 184t158 192q59 114 132 254.5t117 226t60 115.5zM936 1540q0 10 -4 14q-2 -3 -6.5 -8.5t-8 -10.5t-6.5 -9q-125 -188 -200 -393q11 16 53 77t59 88.5t46 76.5t44.5 88.5t22.5 76.5z" />
    <glyph glyph-name="N" unicode="N" horiz-adv-x="1464" 
d="M219 45q-151 -129 -264 -129q-26 0 -46 9.5t-22 21.5q0 10 18.5 18.5t56.5 21.5t84 33.5t112 64.5t131 105q229 216 453.5 518.5t293.5 520.5q59 190 121 190q70 0 70 -63q0 -105 -205 -381q-54 -294 -116 -681.5t-62 -463.5q82 153 171 331.5t147 300.5t63 132
q73 150 115.5 234t130 246.5t151.5 265t165 250.5t188 242.5t203 202t226 168.5t242 102.5t266 41.5q34 0 103 -11t157.5 -33.5t152.5 -68.5t64 -106q0 -37 -39.5 -66t-91 -43t-98.5 -14q-68 0 -68 18q0 5 4 10t11.5 11t14 10.5t16 10.5t12.5 8q10 6 50.5 9.5t71.5 12.5
t31 31q0 39 -47.5 67t-120 41.5t-135.5 19t-118 5.5q-526 0 -994 -628q-236 -318 -509 -879q-45 -93 -128 -270l-22 -46q-61 -130 -148.5 -299t-143 -277.5t-67.5 -148.5q-35 -114 -67 -114q-19 0 -31 36t-12 95q0 26 2 36q75 565 166 1094q-15 -15 -13 -14
q-127 -198 -336.5 -434.5t-359.5 -364.5z" />
    <glyph glyph-name="O" unicode="O" 
d="M784 1169q-121 -113 -168 -188q-16 -25 -36 -71.5t-33 -78.5t-15 -32q-8 8 -8 26q0 39 40.5 109t89 131t89 113t41.5 59q0 8 -8 8q-16 0 -35 -16q-55 -58 -105 -135.5t-75 -125.5t-74 -147q-149 -301 -149 -522q0 -86 20.5 -154.5t66.5 -112.5t112 -44q68 0 155.5 34.5
t167.5 87.5t147 107.5t111 101.5q508 546 508 1119q0 64 -9 108t-36.5 74.5t-73.5 30.5q-66 0 -141 -39t-140.5 -97.5t-129.5 -133t-109 -139t-78 -122.5q-90 -153 -160.5 -343.5t-93.5 -368.5q-4 -34 -5 -116.5t-7 -139.5t-22 -70q-33 62 -33 184q0 212 67 418t195 446
q32 60 81 132.5t121.5 158.5t148.5 154.5t166 115t171 46.5q172 0 172 -246q0 -314 -146.5 -629t-398.5 -579q-72 -75 -178.5 -153.5t-242.5 -141t-240 -62.5q-102 0 -174 75t-72 224q0 253 170 598q35 72 77.5 148t96 161t105.5 139t88 54q18 0 36.5 -10t18.5 -27
q0 -20 -19.5 -58t-46.5 -61z" />
    <glyph glyph-name="P" unicode="P" horiz-adv-x="1378" 
d="M772 817q66 88 115 144q-12 98 -44.5 174.5t-80.5 131.5t-122.5 100t-155 76.5t-193.5 63.5q-94 26 -94 47t101 34.5t334.5 30t364.5 30.5q20 2 136 14t150.5 15.5t131 12.5t150 12t130 6t142.5 3q133 0 199.5 -47.5t66.5 -128.5q0 -70 -45 -152q-89 -158 -270 -300
t-394.5 -235.5t-424.5 -129.5q-54 -343 -365 -707q-59 -69 -129 -117.5t-104 -48.5q-35 0 -35 66q0 98 64.5 266t193.5 373q75 118 96 151q-72 6 -127 29q-11 4 -29.5 11.5t-29.5 11.5t-17 4q-20 0 -20 -45v-31l-5 7q-20 39 -20 83q0 53 35 53q10 0 23.5 -4t35 -12.5
t31.5 -11.5q83 -29 166 -35q23 34 39 55zM1212 1241q-33 0 -241 -262q8 -52 8 -127q0 -24 -4 -74q209 35 419.5 129.5t372.5 231.5t218 280q22 61 22 105q0 69 -58.5 97t-203.5 28q-91 0 -196 -6.5t-166.5 -12.5t-201 -22t-186.5 -21q-70 -7 -228.5 -11.5t-258.5 -12
t-100 -25.5q0 -15 59 -35q206 -71 328 -180t163 -281q49 55 130 140.5t104 113.5q110 134 156 134q14 0 14 -13q0 -33 -35 -65q-27 -24 -50 -80t-49 -112.5t-61 -84.5q1 4 26 68t26 86q0 12 -7 12zM643 532q-57 -87 -92 -145t-75 -135t-59.5 -144t-19.5 -126q0 -43 17 -43
q19 0 55.5 30t77.5 80q133 156 219.5 327.5t114.5 330.5q-72 -7 -123 -7q-82 -117 -115 -168zM895 885q-18 -23 -50.5 -67t-41.5 -56q28 0 86 4q6 41 6 119z" />
    <glyph glyph-name="Q" unicode="Q" horiz-adv-x="2250" 
d="M1905 33q-123 -53 -230 -53q-191 0 -227 247q-170 -196 -356.5 -309t-376.5 -113q-104 0 -187.5 29t-138 77.5t-91 113.5t-52 133t-15.5 141q0 144 55.5 302.5t148.5 302.5t198.5 268t222.5 229q159 144 425.5 301.5t447.5 216.5q94 74 215 74q108 0 189 -72t81 -195
q0 -177 -128 -469.5t-323 -566.5q-126 -229 -266 -403q26 -246 189 -246q88 0 268 86q54 26 151 86.5t169 104.5t89 44q15 0 15 -10q0 -24 -166.5 -140t-306.5 -179zM1831 1884q-18 4 -21 12q-19 -3 -49 -16q-92 -65 -98 -182q-3 -41 -23 -41q-12 0 -20 15t-8 38
q0 54 33 115q-219 -106 -390 -213.5t-335 -251.5q-88 -78 -171.5 -168t-164 -200.5t-140.5 -222t-96.5 -235t-36.5 -235.5q0 -65 12.5 -124.5t42.5 -116.5t76.5 -98.5t119.5 -67t165 -25.5q166 0 342.5 114t343.5 310q-104 -82 -226 -143.5t-214 -61.5q-70 0 -115 45.5
t-45 136.5q0 103 48.5 221t123 214t171.5 159.5t187 63.5q158 0 158 -289q0 -23 -3.5 -90t-4.5 -103q85 89 184 220q155 258 248.5 514t93.5 424q0 69 -22.5 125.5t-56 88t-61.5 48t-48 20.5zM1001 150q85 0 213 76t224 163v8q0 46 3 125.5t3 106.5q0 124 -20.5 177.5
t-84.5 53.5q-97 0 -202 -96.5t-171.5 -232.5t-66.5 -250q0 -131 102 -131zM1892 1933q14 -11 17 -22q70 -27 119 -92.5t49 -180.5q0 -206 -123 -536q200 382 200 612q0 92 -61 157.5t-151 65.5q-18 0 -50 -4z" />
    <glyph glyph-name="R" unicode="R" 
d="M860 1376q12 -12 12 -14q0 -4 -6 -4q-44 0 -146.5 18.5t-203 56.5t-100.5 80t99 113.5t238.5 136t254.5 92.5q159 39 329 39q135 0 236 -27t164 -90.5t63 -158.5q0 -98 -70 -215t-182 -222.5t-249 -198t-273 -151.5q62 -95 94.5 -223t32.5 -262q0 -28 -5 -82t-5 -80
q0 -51 45 -51q22 0 52.5 10.5t68.5 31.5t67.5 39t73 46t61.5 39q150 92 172 92q13 0 13 -12q0 -34 -158 -131q-321 -203 -412 -203q-71 0 -71 90q0 20 12 96t12 121q0 274 -125 451q-63 -22 -116 -33q-76 -16 -123 -20q-104 -202 -142 -301q-41 -107 -76 -218.5
t-52.5 -175.5t-37 -119t-39.5 -77.5t-49 -22.5q-16 0 -16 21q0 10 2 16q1 7 7.5 41t9 48.5t11 52t16.5 63t21.5 70t29 84.5t37.5 93.5t48 110.5q40 91 156 309h-23q-123 0 -203.5 31t-80.5 94q0 60 44.5 106t101.5 66.5t110 20.5q90 0 205 -47q154 269 311 522
q102 166 139 166q15 0 15 -21t-54 -100q-162 -243 -358 -592q36 -17 70 -41q35 -25 67 -65q164 71 323.5 190t268.5 262t109 258q0 81 -53 137t-134.5 79.5t-185.5 23.5q-123 0 -281 -37q-37 -9 -113.5 -37.5t-162.5 -67t-149.5 -84.5t-63.5 -81q0 -27 40.5 -49.5t91 -35.5
t107 -31.5t78.5 -35.5zM680 815q11 19 38.5 69t43.5 77q-85 32 -172 32q-68 0 -125 -25t-57 -69q0 -39 72.5 -61.5t176.5 -22.5h23zM815 934q-10 -17 -63 -115q32 3 71 12q29 6 88 25q-47 50 -96 78z" />
    <glyph glyph-name="S" unicode="S" horiz-adv-x="1249" 
d="M973 772q-10 -17 -18 -39.5t-12.5 -34.5t-8.5 -12q-10 0 -10 25q0 76 34 118q16 20 62 67.5t85.5 92.5t81.5 103t66.5 123t24.5 128q0 173 -150 173q-65 0 -157.5 -33t-173.5 -84q-61 -38 -100 -64.5t-90 -70t-80.5 -83.5t-50.5 -95t-21 -115q0 -55 29 -112.5t75.5 -109
t95 -98t96.5 -97t70 -87.5q41 -66 41 -154q0 -132 -74 -241q60 12 127 43q64 31 110 55t90.5 50.5t62 38t70.5 47.5t71 48q56 39 80 39q16 0 16 -16q0 -36 -164.5 -140t-369.5 -194q-70 -30 -152 -39q-63 -59 -146.5 -91t-166.5 -32q-102 0 -196 49t-147 118.5t-53 133.5
q0 36 22.5 63t55.5 27q20 0 54.5 -22t80 -53.5t102.5 -63.5t141 -54t177 -22h19q44 43 69 98t25 111q0 48 -11.5 90.5t-28 73.5t-49.5 67.5t-59 60.5t-75 65q-68 56 -120 140t-52 185q0 88 44.5 173.5t111.5 151.5t153 124.5t161 96t144 62.5q109 39 184 39
q92 0 143.5 -58.5t51.5 -150.5q0 -79 -36 -164t-90.5 -155t-108.5 -128t-100 -104t-56 -63zM426 -45q97 0 178 49q-106 6 -216.5 34.5t-167.5 53.5l-58 25q-10 0 -10 -8q0 -14 22 -39t57.5 -51t88.5 -45t106 -19z" />
    <glyph glyph-name="T" unicode="T" horiz-adv-x="1169" 
d="M494 1571q1 -4 9.5 -19t8.5 -20q0 -4 -8 -4q-6 0 -10 2q-53 15 -110 40t-104 60t-47 64q0 35 101 35q18 0 85.5 -7.5t117.5 -7.5q62 0 183 13t214.5 26t282.5 41t249 37q36 51 65.5 76.5t45.5 25.5q12 0 12 -18q0 -27 -22 -70q184 24 227 27q115 8 211 8q172 0 172 -33
q0 -25 -35.5 -53.5t-69 -44.5t-38.5 -16q-9 0 -9 8q0 2 2.5 8t2.5 8q0 45 -181 45q-62 0 -145 -6q-93 -8 -180 -20q-3 -9 -11 -17q-98 -141 -304.5 -510t-315.5 -602q-176 -381 -250 -645q-8 -24 -8 -33q0 -2 2.5 -5t3.5 -3q3 0 68 57q63 55 119.5 90t80.5 35q3 0 7 -4
t4 -10q0 -9 -30 -27t-88 -59t-108 -94q-76 -80 -104.5 -104.5t-50.5 -24.5q-23 0 -23 41q0 87 75.5 302.5t211.5 491.5q113 230 303.5 569.5t310.5 534.5q-68 -10 -228 -35.5t-251 -39.5t-199 -26.5t-164 -12.5q-58 0 -90.5 -2.5t-45.5 -7.5t-13 -13q0 -11 34 -30.5
t34 -20.5z" />
    <glyph glyph-name="U" unicode="U" horiz-adv-x="1439" 
d="M854 1180q-7 -24 -18.5 -35.5t-22.5 -11.5q-10 0 -10 12q0 25 17.5 89.5t17.5 92.5q0 55 -21 55q-27 0 -117 -182q-340 -695 -407 -932q-35 -119 -35 -166q0 -39 29 -39q48 0 295.5 156.5t488.5 347.5q145 301 338 615q139 223 352 489t250 266q47 0 47 -57
q-1 -78 -61 -223t-115 -250q-173 -324 -442 -588q-126 -123 -281 -248q-96 -202 -158.5 -363t-62.5 -218q0 -17 12 -17t47 23q27 20 61 48.5t50.5 40t26.5 11.5q3 0 8.5 -4.5t5.5 -7.5q0 -8 -16 -22t-53 -47.5t-72 -71.5q-83 -90 -138 -90q-32 0 -32 41q0 68 38 203t123 317
q4 8 11.5 24.5t11.5 24.5q-350 -270 -612 -428q-118 -72 -174 -72q-68 0 -68 94q0 62 27 164q43 169 192.5 484t300.5 602q94 182 148 182q23 0 40 -34.5t17 -72.5q0 -77 -39 -202zM1268 793q-55 -107 -56 -109q5 4 66 57q293 265 545 686q58 99 103.5 197.5t45.5 140.5
q0 25 -18 25q-10 0 -39 -24.5t-83.5 -88.5t-115.5 -153q-293 -426 -448 -731z" />
    <glyph glyph-name="V" unicode="V" horiz-adv-x="1241" 
d="M426 981q-7 48 -30.5 174t-40.5 224.5t-17 117.5q0 28 13 41.5t30 13.5q24 0 34.5 -20.5t15.5 -50t16 -59t47 -50t98 -20.5q156 0 315 75q53 25 101 63.5t74.5 69t54.5 52.5t51 22q18 0 28.5 -7.5t10.5 -18.5q0 -18 -25 -37q-308 -233 -688 -1098q-52 -118 -82.5 -193.5
t-62 -194.5t-31.5 -210q0 -76 47 -76q62 0 132 41t132 104t132 158t124 182.5t115.5 199t99.5 186.5t83 166.5t59 117.5q24 45 64.5 131t76 162t85.5 173t96.5 176.5t105.5 159t115.5 133.5t123 88t131.5 34q115 0 181.5 -67.5t66.5 -151.5q0 -49 -22.5 -108t-55.5 -100.5
t-61 -41.5q-15 0 -24 9.5t-9 17.5q0 18 33 56.5t37 51.5q18 50 18 97q0 62 -44 106.5t-134 44.5q-65 0 -135.5 -45.5t-134 -123t-123.5 -168.5t-114.5 -195t-95.5 -188t-77.5 -161.5t-50.5 -103.5q-27 -49 -74.5 -145.5t-90 -184t-103.5 -198.5t-118 -203t-130 -184
t-143.5 -155t-154.5 -102.5t-167 -39.5q-84 0 -84 100q0 239 184 649q60 135 246.5 490.5t234.5 396.5q-65 -33 -169.5 -63.5t-184.5 -30.5q-56 0 -88 22l-8 4q-14 0 -14 -47q0 -102 47 -263l4 -13q0 -18 -11.5 -29.5t-25.5 -11.5t-25 12.5t-14 36.5z" />
    <glyph glyph-name="W" unicode="W" horiz-adv-x="1581" 
d="M393 -111q0 32 10.5 78t43 167.5t61.5 238.5q35 144 104.5 339.5t153.5 352.5q176 331 336 514q-249 -98 -359 -98q-29 0 -64.5 4t-43.5 4q-27 0 -27 -25q0 -23 -27.5 -114t-27.5 -133q0 -21 11 -48t11 -34q0 -14 -8 -22.5t-18 -8.5q-19 0 -31 18q-26 39 -26 88
q0 52 30.5 145.5t30.5 153.5q0 29 -10.5 61.5t-10.5 53.5q0 42 15 62t33 20q14 0 25 -12.5t18.5 -32t20 -41.5t27 -41.5t41 -32t60.5 -12.5q130 0 404 121q45 43 110 108t94.5 93t69.5 61.5t68.5 45t58.5 11.5q25 0 39 -12.5t14 -34.5q0 -61 -90 -125q-97 -75 -303 -164
q-256 -268 -414 -589q-87 -174 -159.5 -375.5t-96.5 -341.5q-16 -100 -24 -168q28 38 678 827q24 30 82.5 99.5t87.5 105.5q131 289 286 432q96 86 129 86q13 0 13 -14q0 -16 -27 -58q-26 -45 -77.5 -115.5t-95 -125.5t-126.5 -158q-102 -194 -190 -457t-128 -432.5
t-40 -208.5q236 348 529.5 685.5t561.5 551.5q130 104 298.5 208t317.5 178.5t253.5 121.5t162.5 68q80 29 131 29q54 0 54 -27q0 -28 -45 -59t-62 -31q-11 0 -24.5 5t-26.5 11.5t-16 7.5q-43 0 -195 -65q-87 -38 -149 -68.5t-192.5 -106t-285.5 -177.5
q-186 -123 -382.5 -306t-350 -360.5t-289.5 -356t-215.5 -299t-113.5 -184.5q-30 -53 -60 -53q-14 0 -22.5 7t-10.5 13l-2 7q0 58 82 325q7 23 59 203.5t92.5 306.5t86.5 246q-526 -658 -649 -807q-63 -74 -122 -168.5t-90.5 -143t-49.5 -48.5q-17 0 -17 30zM1495 1870
q-89 -70 -160 -135q57 31 108.5 69.5t51.5 65.5z" />
    <glyph glyph-name="X" unicode="X" horiz-adv-x="1345" 
d="M1116 -55q2 -8 2 -21v-14q-6 -25 -35 -25q-16 0 -39 13.5t-24 25.5q-5 47 -19.5 124t-28 137.5t-41.5 181.5t-40 176q-14 57 -62 307q-107 -107 -225 -230t-233.5 -246.5t-197 -212t-181.5 -197.5t-121 -132q-52 -56 -105.5 -115t-82.5 -91t-60 -65.5t-47 -49t-33 -29
t-28.5 -17.5t-24.5 -4q-21 0 -39 9t-18 18q0 21 39.5 34.5t40.5 14.5q139 139 249 256q72 76 272.5 298t410.5 447.5t372 385.5q-59 312 -82 379q-17 46 -30 47q-8 0 -18 -10.5t-13 -10.5q-2 0 -10.5 21t-16.5 54.5t-8 59.5q0 24 9.5 46t31.5 22q13 0 32 -19t40.5 -54
t42.5 -95t36 -133q8 -41 24 -124t24 -124q30 30 84 80q129 119 231.5 206.5t144.5 120t115 83.5t90 63q55 40 109 61t78 21q22 0 22 -68q0 -55 -15 -109.5t-36 -54.5q-9 0 -12 11q-1 4 -2 29.5t-4.5 47t-10.5 21.5q-17 0 -62.5 -19.5t-131.5 -71.5t-181 -126
q-151 -119 -405 -367q122 -613 223 -966z" />
    <glyph glyph-name="Y" unicode="Y" horiz-adv-x="1255" 
d="M647 -94l-86 -37q-145 -387 -145 -700q0 -38 7 -112.5t7 -111.5q0 -63 -47 -63q-55 0 -164 73t-212.5 168.5t-182 190.5t-78.5 135q0 42 45 88t147.5 102t167.5 87.5t205 93.5q9 4 13 6q33 16 96.5 44.5t79.5 35.5q119 304 295.5 603.5t332.5 502.5q-24 -17 -94 -73.5
t-119 -92.5t-117 -68.5t-120 -32.5q-48 0 -83 35t-49.5 76t-25.5 82.5t-14 46.5q-12 -17 -19.5 -56.5t-9.5 -67t-2 -46.5q0 -64 27 -137q4 -12 11.5 -28.5t12 -28.5t4.5 -19q0 -12 -30 -12q-109 0 -109 211q0 85 38.5 219.5t80 247t43.5 127.5q17 110 51 110q17 0 28 -26
t11 -62q0 -25 -42 -151t-42 -187q0 -36 6 -76t20.5 -86t46 -76t75.5 -30q54 0 153.5 68t180.5 142t145 142q50 53 120.5 137.5t114 137.5t92 94t80.5 41q25 0 40.5 -9.5t15.5 -27.5q0 -8 -5.5 -17.5t-12 -16.5t-23 -23t-27.5 -27q-111 -112 -239.5 -271t-264 -354
t-265 -427.5t-218.5 -452.5q313 143 516 262q42 24 96.5 61.5t86.5 57.5t46 20q13 0 13 -10q0 -28 -103.5 -103.5t-271 -167.5t-330.5 -161zM336 -236q-26 -12 -76.5 -34.5t-77.5 -35t-71 -33t-68.5 -34t-57 -33t-51 -35t-36.5 -34t-25.5 -37t-7.5 -37.5q0 -37 56 -111.5
t130 -146t151.5 -126t116.5 -54.5q25 0 25 31q0 24 -3 71t-3 70q0 276 133 643q-25 -13 -72.5 -35t-62.5 -29z" />
    <glyph glyph-name="Z" unicode="Z" horiz-adv-x="1562" 
d="M555 709q32 -7 55 -7q10 0 21 0.5t26 2.5t27.5 3.5t35 5t38 6.5t46.5 8.5t51 9.5t61.5 11.5t68.5 12.5q11 0 23 4q502 502 845 774q-59 -13 -572.5 -169.5t-514.5 -168.5q0 -4 5 -14t5 -14q0 -5 -2 -7q-18 -12 -37 -12q-30 0 -56 27.5t-26 54.5q0 16 14.5 29.5t43.5 17.5
q115 17 522.5 134t560.5 177q108 41 190 84.5t123 75t72 57.5t56.5 41.5t56.5 18.5q16 0 16 -19q-4 -36 -66.5 -101t-179.5 -130q-122 -67 -927 -831q810 152 936 184q49 12 75 12q39 0 39 -20q0 -23 -36 -55.5t-56 -32.5q-5 0 -31 -3.5t-47 -3.5q-71 0 -157.5 -9.5
t-206 -32.5t-189.5 -37.5t-226 -50t-198 -44.5q-21 -21 -62 -60.5t-60 -57.5q-158 -155 -355 -373q215 49 420 49q92 0 177 -19t142 -47.5t91 -61.5t34 -62q0 -44 -45 -75.5t-75 -31.5q-41 0 -75 33.5t-34 66.5q0 23 21 33q1 1 20 -12t44.5 -27t39.5 -14q9 0 12 10
q0 21 -28.5 46t-74 47.5t-109 37.5t-126.5 15q-236 0 -499 -62q-76 -87 -152.5 -177t-177 -211t-125.5 -151q-66 -78 -128 -159t-95.5 -128t-65 -87.5t-55 -57t-47.5 -16.5q-39 0 -91 31.5t-89 66.5q-39 36 -39 94q0 220 397 535q250 199 619 305q244 269 466 494
q-239 -51 -356 -51q-32 0 -56 7t-35 16.5t-17.5 22t-7.5 19.5t-1 14q0 21 29 21q10 0 84 -12zM-20 -381q139 190 397 481q-166 -53 -325.5 -145t-277 -196t-189.5 -214.5t-72 -199.5q0 -29 36.5 -75t90.5 -46q46 0 340 395z" />
    <glyph glyph-name="bracketleft" unicode="[" horiz-adv-x="446" 
d="M653 1612q2 10 6 26h-28q-142 6 -142 64q0 17 21.5 30t50.5 13q17 0 63 -17.5t91 -17.5q9 0 41 4q393 58 430 58q12 0 19 -5.5t7 -13.5q0 -3 -20.5 -29t-56.5 -54t-68 -28q-51 0 -51 15q0 4 7 5.5t7 4.5q0 4 -41 4q-25 0 -59.5 -3.5t-82.5 -9.5t-73 -9q0 -1 -10.5 -17
t-19 -37t-15.5 -51q-101 -390 -246 -631q-55 -90 -281.5 -554.5t-236.5 -483.5q65 15 206.5 31.5t186.5 27.5q70 17 95 17q20 0 20 -10q0 -12 -49.5 -52.5t-71.5 -40.5q-3 0 -11.5 5.5t-18.5 5.5q-20 0 -97 -17.5t-129 -23.5q-15 -2 -48 -4.5t-50.5 -5t-43.5 -10t-48 -19.5
q-37 -19 -78 -19q-14 0 -14 15q0 18 39 71q35 47 148.5 268.5t249 494t167.5 333.5q72 137 144.5 353t90.5 317z" />
    <glyph glyph-name="backslash" unicode="\" horiz-adv-x="714" 
d="M307 1485q-2 14 -2 49v47q0 35 -14 35t-78 -53q-4 -4 -10 -4q-8 0 -8 16q0 32 65 90.5t96 58.5q56 0 56 -79q0 -31 -6.5 -95t-6.5 -96q0 -146 58 -487q12 -76 29 -209.5t31.5 -240t36 -226t52.5 -219.5t70 -168q35 -58 35 -113q0 -43 -30 -71.5t-58 -37t-48 -8.5
q-10 0 -10 9q0 8 23.5 47t23.5 47q0 11 -20.5 68.5t-54.5 178t-60 261.5q-25 142 -53.5 341t-63 462t-53.5 397z" />
    <glyph glyph-name="bracketright" unicode="]" horiz-adv-x="442" 
d="M383 1567q-41 3 -74 19t-33 40q0 19 10.5 30t32.5 15t46 5t60.5 3.5t66.5 8.5q118 24 258 24q42 0 79 12t57.5 27t41 27t33.5 12q18 0 30.5 -6.5t12.5 -16.5q1 -9 -25.5 -37.5t-77 -96t-94.5 -154.5q-78 -150 -279 -595.5t-241 -572.5q-30 -94 -45 -195t-22 -161t-23 -82
q-23 -31 -193 -31q-50 0 -83.5 1t-35.5 1q-31 0 -61.5 -4t-50 -7.5t-50 -15t-41.5 -16t-47 -21t-45 -20.5q-12 -6 -26 -6q-23 0 -44.5 13t-21.5 28q1 12 8 21.5t24 17.5t32 13.5t43.5 14.5t46.5 15q62 22 178 34t199.5 19t87.5 17q12 26 36 169t62 242q53 141 233.5 536.5
t221.5 473.5q112 220 112 268q0 11 -6 11q-46 0 -211 -33q-44 -9 -95.5 -28t-74.5 -19h-12z" />
    <glyph glyph-name="asciicircum" unicode="^" horiz-adv-x="696" 
d="M418 946q67 22 145 90t127 138q11 16 22 40t20 32.5t28 8.5q35 0 35 -122q0 -25 2 -81t2 -89q0 -50 -7 -84t-31 -59t-67 -25q-16 0 -16 14q0 13 14 27q19 16 28 107.5t9 166.5q0 27 -2 27q-225 -283 -367 -283q-22 0 -39.5 8.5t-17.5 22.5q0 15 14.5 26.5t29.5 16.5
t40.5 10.5t30.5 7.5z" />
    <glyph glyph-name="underscore" unicode="_" horiz-adv-x="954" 
d="M102 -84q45 2 246 12.5t293 10.5q137 0 137 -29q0 -18 -21.5 -55t-45.5 -37q-7 1 -32 13t-70 23t-105 11q-78 0 -410 -41q-36 -8 -63 -8q-61 0 -88 25.5t-27 52.5q0 11 17 14t91 5q15 1 23.5 1t24.5 0.5t30 1.5z" />
    <glyph glyph-name="grave" unicode="`" horiz-adv-x="657" 
d="M836 864q0 -20 -39.5 -31.5t-69.5 -11.5q-60 0 -131 41q-61 33 -124 111.5t-64 134.5q0 26 20 44.5t43 18.5q27 0 33 -36v-15q1 -32 34.5 -88.5t85.5 -103.5t95 -47q31 0 31 16q0 14 24 14q17 0 39.5 -15t22.5 -32z" />
    <glyph glyph-name="a" unicode="a" horiz-adv-x="894" 
d="M563 518q2 4 7.5 13.5t7.5 13.5q-1 3 -6 17.5t-6.5 19.5t-7 18t-9.5 18t-12 14t-15.5 13t-18.5 7t-24 3q-58 0 -133 -68t-135.5 -158.5t-102.5 -179.5t-42 -132q0 -41 30 -41q45 0 195 144.5t272 297.5zM635 621q57 57 88 57q21 0 27 -29q0 -48 -97 -168l-8 -14
q-183 -288 -184 -361q0 -22 18 -22q46 0 164 63q48 26 138.5 83t154 94.5t78.5 37.5q12 0 12 -10q0 -22 -115.5 -103.5t-248.5 -152.5q-195 -102 -240 -102q-49 0 -49 86q0 74 73 213q-295 -299 -385 -299q-38 0 -58.5 28.5t-20.5 69.5q0 103 88.5 255.5t208 266
t200.5 113.5q61 0 101 -30.5t55 -75.5z" />
    <glyph glyph-name="b" unicode="b" horiz-adv-x="909" 
d="M516 659q-65 -61 -299 -251q-10 -22 -31.5 -64t-27.5 -55q41 52 97 107t120.5 105.5t133.5 82.5t124 32q34 0 59 -26t25 -70q0 -140 -89.5 -257t-238.5 -200q86 0 164 39q78 37 183.5 99.5t175.5 107t75 45.5q3 1 12.5 4.5t12.5 3.5q14 0 14 -14q0 -27 -184.5 -146
t-282.5 -165q-46 -22 -100 -32.5t-80 -10.5q-13 0 -46 6t-74 17.5t-72 32t-31 44.5q0 20 29.5 44t54.5 24q18 0 34.5 -15.5t28.5 -31t19 -15.5q45 0 119.5 65.5t133 157t58.5 156.5q0 58 -45 58q-52 0 -148 -68.5t-166 -138.5q-57 -57 -124 -144t-107 -142.5t-49 -55.5
q-22 0 -39.5 15t-17.5 38q0 24 24 51q56 64 133 219q-51 -41 -55 -41q-12 0 -12 9q0 18 112 122q36 74 54 113q56 123 74 162t75 159.5t87 177t84.5 157.5t94.5 161.5t91 130t98 117.5q84 87 175 131.5t140 44.5q32 0 51 -32t19 -78q0 -134 -91.5 -305t-235.5 -338
t-339 -343zM854 1540q-87 -92 -174.5 -222t-168.5 -285.5t-135 -268t-120 -262.5q31 24 105 93t100 91q171 152 314.5 319.5t234 329t90.5 269.5q0 69 -35 69q-26 0 -89.5 -36.5t-121.5 -96.5z" />
    <glyph glyph-name="c" unicode="c" horiz-adv-x="817" 
d="M500 512q-17 -20 -35 -20q-15 0 -24 14t-9 33q0 4 3 20t3 19q0 14 -10 14t-21 -5.5t-27.5 -19t-23.5 -19.5t-26 -24q-103 -97 -189 -231t-86 -227q0 -74 92 -74q50 0 114.5 18.5t121 42.5t134.5 66.5t126 71t126 77t105 64.5q51 28 64 28q12 0 12 -12q0 -8 -35.5 -40
t-76.5 -60q-84 -57 -153.5 -99.5t-176.5 -99.5t-211 -89t-191 -32q-139 0 -139 115q0 83 54.5 195.5t132 209.5t169 167.5t160.5 74.5q23 1 34 6.5t12 10.5t8.5 9.5t23.5 4.5q8 0 8 -10q0 -15 -23.5 -94.5t-45.5 -104.5z" />
    <glyph glyph-name="d" unicode="d" horiz-adv-x="1028" 
d="M563 53q-8 -19 -8 -33q0 -9 2 -26.5t2 -24.5q0 -22 -17 -34.5t-40 -12.5q-26 0 -44 22t-18 66q0 15 2 44.5t2 41.5q0 14 -4 33t-4 23q0 28 51 28q9 0 37 -20q5 21 35 94q37 84 64 135q-86 -71 -145.5 -117.5t-136.5 -100t-138 -81t-105 -27.5q-37 0 -53 18t-16 54
q0 63 40.5 157.5t71.5 135.5q58 78 147.5 168t125.5 90q24 0 24 -45q0 -5 -1 -15t-1 -14q161 72 273 72q35 0 59 -8q44 84 109.5 206t109 203.5t88 167t68.5 139t28 76.5q10 63 34 95t46 32q19 0 48.5 -89.5t29.5 -143.5q0 -33 -8 -64q-8 -33 -40.5 -94t-43.5 -61q-4 0 -4 8
q0 24 27.5 92t27.5 94q0 25 -11 43.5t-24 18.5q-7 0 -14 -13q-35 -80 -196 -361.5t-224 -399.5q2 -4 2 -17q0 -54 -51 -96q-2 -2 -7 -6t-7 -6q-56 -119 -138 -305l-32 -74q21 -6 47 -6q52 0 106 20q68 27 163.5 85.5t163 101.5t83.5 43q14 0 14 -11q0 -10 -47 -51
q-63 -52 -144 -104.5t-192 -100t-192 -47.5q-17 0 -25 2zM346 539q-67 -43 -145 -163t-78 -222q0 -8 5 -18.5t9 -10.5q56 10 193.5 102t254.5 198t117 148q0 11 -8.5 20t-21.5 9q-44 0 -102 -9.5t-98.5 -19.5t-83.5 -22z" />
    <glyph glyph-name="e" unicode="e" horiz-adv-x="741" 
d="M342 412q-46 -26 -120.5 -60t-108.5 -53q-7 -40 -7 -70q0 -74 28 -122t87 -48q70 0 172 44t185 96.5t160.5 102t99.5 56.5l6 1q6 1 10 1q14 0 14 -8q0 -11 -20.5 -31t-42.5 -34q-8 -5 -65 -45t-93.5 -64t-103.5 -63.5t-118 -63t-113 -41.5t-111 -18q-61 0 -104.5 35.5
t-62 85t-18.5 104.5q0 60 20.5 129.5t60 135.5t90.5 120.5t119 87.5t140 33q42 0 71.5 -30t29.5 -66q0 -60 -51.5 -110t-153.5 -105zM403 651q-79 0 -156.5 -84.5t-115.5 -199.5q28 19 96.5 53.5t94.5 50.5q42 26 67.5 44t49.5 44.5t24 48.5q0 20 -17 31.5t-43 11.5z" />
    <glyph glyph-name="f" unicode="f" horiz-adv-x="741" 
d="M342 63q-46 0 -80 27q-46 -109 -129.5 -313t-109.5 -266q-128 -308 -271 -616t-174 -308q-14 0 -14 33q1 43 24 123.5t43 123.5q83 191 247.5 544.5t242.5 543.5q61 142 61 309q0 26 -4 96q-113 -92 -162 -120q-9 -5 -29 -18t-30 -18.5t-24.5 -13.5t-24 -11t-17.5 -3
q-16 0 -16 14q0 10 8.5 21.5t27 26t36 26.5t49 33t51.5 35q96 67 131 94v39q3 121 35 121q34 0 43 -99q115 96 186 162q107 220 265 479q99 164 181 242t136 78q27 0 27 -31q-3 -114 -147.5 -308.5t-362.5 -414.5q-103 -190 -246 -530q26 -39 76 -39q57 0 145 45.5
t248 148.5q12 7 33 18t36.5 18t16.5 7q6 0 12 -3.5t6 -6.5q0 -8 -8 -19t-23 -23t-28 -21.5t-32 -22t-25 -16.5q-138 -99 -228.5 -143t-181.5 -44zM930 1286q-85 0 -320 -463q69 75 133 160q69 92 136 193q9 16 22.5 42.5t22 47t6.5 20.5zM264 244q76 188 133 311
q-73 -70 -137 -125q-3 -80 -6 -137q3 -23 10 -49z" />
    <glyph glyph-name="g" unicode="g" horiz-adv-x="1040" 
d="M467 -188q-38 -60 -96 -164q4 -46 4 -72q0 -148 -62 -348q-30 -96 -75.5 -207t-98 -216t-108.5 -175.5t-97 -73.5q-28 0 -28 68q0 112 65 307q108 323 328 711q-11 62 -40 99.5t-62.5 49.5t-65.5 18.5t-53 17.5t-21 36q0 19 24.5 36.5t76.5 36t103 33t133 38t138 40.5
q87 149 156 299q-6 -3 -80.5 -49.5t-146 -88t-163.5 -78t-151 -36.5q-57 0 -86.5 40t-29.5 87q0 81 60 175t120 149q85 75 181 120.5t181 45.5q101 0 175.5 -62.5t74.5 -107.5q0 -25 -12.5 -44t-28.5 -22q20 4 27 4q25 0 25 -26q0 -50 -197 -369q94 36 137 59q70 36 163 93
t150.5 91.5t73.5 34.5q17 0 17 -12q0 -38 -194 -157t-308 -162q-57 -22 -94 -31q-21 -34 -60 -97.5t-55 -90.5zM690 426q67 42 88 49q-7 0 -14 7t-8 18q-10 51 -56.5 93t-113.5 42q-88 0 -171.5 -38t-150.5 -105q-49 -49 -94 -124t-45 -137q0 -73 57 -73q130 0 508 268z
M248 -768q53 185 59 297q-174 -330 -274 -645q-27 -92 -27 -135q0 -25 8 -25q7 0 19 21q12 22 39 69.5t35.5 64t28.5 54.5t29.5 61.5t25 62.5t29 80.5t28.5 94.5zM225 -131q0 -12 14 -22t33 -18.5t41.5 -33.5t36.5 -63q10 19 32 54t32 54q33 63 75 131q-19 -5 -45.5 -12.5
t-44 -12t-40.5 -11t-37.5 -11.5t-31.5 -11t-27.5 -11t-20 -10.5t-13.5 -11t-4 -11.5z" />
    <glyph glyph-name="h" unicode="h" horiz-adv-x="1030" 
d="M803 944q-209 -243 -461 -455q-13 -34 -40 -99.5t-36 -88.5q34 22 101.5 83t125.5 114.5t130 97t125 43.5q69 0 69 -90q0 -48 -16 -100q-2 -7 -89 -173.5t-87 -197.5q78 30 197.5 98t205 122.5t90.5 55.5q3 1 12.5 4.5t12.5 3.5q14 0 14 -14q0 -27 -184.5 -146
t-282.5 -165q-91 -43 -143 -43q-47 0 -47 37q0 23 45.5 106.5t100.5 175.5t65 113q34 72 34 106q0 12 -15 19.5t-28 7.5q-81 0 -358 -293q-46 -48 -107.5 -121.5t-98 -115t-46.5 -41.5q-22 0 -39.5 15t-17.5 38q0 24 24 51q87 100 181 316q-133 -107 -277 -195
q-61 -37 -86 -37q-12 0 -12 14q0 16 17.5 32t72.5 52q141 93 334 254q59 155 153 445q60 191 156 401t199 328q76 86 140 129t134 43q40 0 74.5 -31.5t34.5 -101.5q0 -354 -377 -797zM520 973q-30 -100 -129 -359q233 208 373 379q67 83 125.5 170t111 185.5t83 200
t30.5 188.5q0 42 -19.5 61t-45.5 19h-13q-74 -18 -157 -116t-152 -232t-122.5 -262.5t-84.5 -233.5z" />
    <glyph glyph-name="i" unicode="i" horiz-adv-x="712" 
d="M680 922q-13 15 -24 43t-11 53q0 33 22 63.5t46 30.5q37 0 37 -80q0 -50 -16.5 -84.5t-41.5 -34.5q-6 0 -12 9zM-133 186q0 8 5 17.5t11.5 16t18.5 16t18.5 14t21 13.5t17.5 11q371 268 451 359q27 31 39 31q8 0 8 -17q0 -15 -21 -88q-9 -30 -35 -68.5t-55.5 -76.5
t-57.5 -81t-46.5 -98t-18.5 -112q0 -51 49 -51q34 2 142 55q56 26 152.5 86.5t168.5 104.5t88 44q15 0 15 -10t-28.5 -36t-66.5 -52q-5 -3 -62 -41.5t-78.5 -52t-76 -48t-85.5 -50.5t-74.5 -37t-76.5 -30t-59 -9q-50 0 -76 32.5t-26 75.5q0 42 15.5 100t35.5 112.5t21 56.5
q-14 -9 -64 -46.5t-107 -75.5t-112 -65q-20 -10 -33 -10q-18 0 -18 10z" />
    <glyph glyph-name="j" unicode="j" horiz-adv-x="706" 
d="M842 362q0 -26 -45.5 -64.5t-134 -90t-178.5 -99t-220.5 -117t-218.5 -118.5q-15 -35 -18 -41q-56 -122 -184.5 -409.5t-215.5 -473t-143 -284.5q-48 -80 -84 -80q-40 0 -71 77t-44.5 172t-13.5 177q0 101 40.5 207.5t109.5 202.5t150 178.5t173 154.5q99 77 244 156
q143 308 241 469q-74 -51 -161 -102.5t-141.5 -80t-61.5 -28.5q-25 0 -25 16q0 10 89.5 71.5t206.5 138t147 98.5q53 39 102.5 79.5t71 59t43 31t39.5 12.5q39 0 39 -29q0 -23 -21 -47t-52 -46t-82 -68.5t-95 -100.5q-95 -118 -240 -418q45 23 129 65t138 70.5t91 51.5
q59 36 125 76.5t102 62.5t71 42.5t54.5 29t30.5 8.5q13 0 13 -9zM-229 -299q-188 -136 -303 -315.5t-115 -356.5q0 -40 3 -90t8.5 -105.5t17.5 -92.5t28 -37q30 0 209 364q45 92 147 337t158 366q3 7 10.5 21.5t10.5 21.5q-111 -68 -174 -113zM778 1051q-4 -4 -8 -4t-4 10
q0 4 1 13t1 13q0 21 -10 21q-19 0 -88 -82q-13 -16 -27 -16q-10 0 -18.5 13t-8.5 28q0 18 19 61q16 36 71 85.5t93 49.5q32 0 32 -43q0 -35 -19 -84.5t-34 -64.5z" />
    <glyph glyph-name="k" unicode="k" horiz-adv-x="991" 
d="M551 88q81 0 246 96q57 33 127 77t109 68t44 25q3 1 12.5 4.5t12.5 3.5q14 0 14 -14q0 -21 -111 -100t-237 -150q-76 -42 -155 -73t-117 -31q-37 0 -62.5 72.5t-33 145t-7.5 128.5v8q-37 -33 -84 -80q-49 -50 -99.5 -122t-79.5 -115t-38 -43q-22 0 -39.5 15t-17.5 38
q0 24 24 51q87 95 191 328q-138 -113 -287 -207q-61 -37 -86 -37q-12 0 -12 14q0 16 17.5 32t72.5 52q142 94 342 258q26 63 53 135t62 167.5t51 138.5q37 100 94 219t134 248.5t157 234t169.5 172.5t164.5 68q35 0 59.5 -28t24.5 -85q0 -153 -144 -408.5t-348 -482.5
q-190 -212 -428 -411q-14 -34 -41 -101.5l-39 -97.5q34 21 119 98q0 31 11 42.5t44 11.5q202 186 308 186q69 0 69 -90q0 -83 -73.5 -152t-186.5 -69q-31 0 -86 12q4 -34 7 -53.5t8 -54.5t11 -56t14 -43.5t18 -33.5t22 -11zM463 791q-30 -83 -70 -177q197 169 342 338
q182 212 321.5 456.5t139.5 381.5q0 59 -25 59q-84 0 -219.5 -166.5t-266.5 -408.5t-222 -483zM702 559q-54 0 -213 -129q10 -5 29 -16.5t31 -17t18 -5.5q64 0 121 45.5t57 95.5q0 12 -15 19.5t-28 7.5z" />
    <glyph glyph-name="l" unicode="l" horiz-adv-x="698" 
d="M-137 190q0 7 9 16.5t29 24.5t39.5 28.5t52 35.5t56.5 39q135 94 227 174q121 335 304 723q65 139 146 262t151 199t127 119.5t86 43.5t45 -25t16 -67q0 -27 -17.5 -90t-62.5 -169.5t-109.5 -226t-171.5 -272t-235 -296.5q-68 -79 -207 -207q-77 -230 -94 -377v-8
q0 -33 37 -33q52 0 141.5 46t166.5 100.5t145.5 100.5t84.5 46q15 0 15 -10q0 -11 -16 -30t-31 -32q-77 -64 -286.5 -191.5t-285.5 -127.5q-61 0 -61 90q0 101 80 336q-165 -135 -324 -224q-24 -12 -39 -12q-18 0 -18 14zM637 1192q-133 -247 -254 -586q59 56 135 146
q129 152 240 319.5t176 298t101 226.5t36 135q0 24 -14 24q-49 0 -181.5 -183t-238.5 -380z" />
    <glyph glyph-name="m" unicode="m" horiz-adv-x="1327" 
d="M319 635q0 -32 -58 -131.5t-129.5 -208t-78.5 -121.5q-24 -47 -24 -63q0 -11 8 -11q12 0 104 87t199.5 191.5t223.5 191.5t171 87q21 0 21 -18q0 -37 -38.5 -102t-77 -118.5t-38.5 -64.5q0 -6 6 -6q16 0 58 31q19 12 118 95.5t191 150.5t127 67q11 0 17.5 -11t6.5 -24
q0 -18 -8.5 -42.5t-24.5 -53.5t-32 -55.5t-38.5 -58t-36 -50t-31.5 -42.5t-19 -25q-29 -37 -64.5 -101.5t-35.5 -107.5q0 -41 51 -41q49 0 140 44t173.5 97t154 97t85.5 44q12 0 12 -10q0 -4 -6 -16q-23 -37 -146 -119t-268.5 -152.5t-212.5 -70.5q-41 0 -63.5 21.5
t-22.5 58.5q0 93 148 284q71 91 99 134.5t28 66.5q0 21 -15 21q-10 0 -32 -19q-28 -23 -83 -69t-86.5 -71.5t-79 -63.5t-77.5 -59.5t-63.5 -44t-56.5 -32.5t-38 -10q-18 0 -27.5 9.5t-9.5 23.5q0 12 9 24q8 12 52 74.5t68.5 103.5t24.5 58q0 4 -4.5 10t-7.5 6t-102 -92
t-222.5 -213.5t-177.5 -183.5q-80 -92 -139 -92q-21 0 -30 8.5t-9 29.5q2 45 59 161.5t164.5 307t107.5 191.5q13 25 46 25q16 0 28 -7t12 -20z" />
    <glyph glyph-name="n" unicode="n" horiz-adv-x="942" 
d="M258 588q-6 -38 -93 -212t-87 -188q1 0 6 5q83 90 264 252t268 229q53 39 86 39q46 0 46 -66q0 -47 -41.5 -136.5t-98 -192t-71.5 -138.5q-21 -51 -21 -71q0 -29 27 -29q14 0 41 12q146 61 424 240q40 24 55 24q10 0 10 -8q0 -44 -184 -157t-344 -179q-39 -16 -78 -16
q-31 0 -48.5 12.5t-17.5 34.5q0 3 5 18q26 76 86.5 192.5t105.5 202t45 109.5q0 17 -18 17q-43 0 -136 -86q-328 -302 -471 -469q-55 -66 -90 -66q-16 0 -25 13t-9 32q0 10 26 57t62 112.5t53 103.5q3 8 35.5 79.5t42.5 100.5q8 24 15 58.5t12 57t14.5 45t27.5 33.5t45 11
q35 0 35 -46q0 -6 -4 -30z" />
    <glyph glyph-name="o" unicode="o" horiz-adv-x="915" 
d="M528 106h-24q-189 -180 -342 -180q-46 0 -70 32.5t-24 76.5q0 64 46 174.5t83 150.5q-245 -163 -260 -163q-33 0 -33 14q0 22 26 39q242 179 385 262q31 19 50 25q50 82 126 135t121 53q74 0 118 -37t44 -106q0 -83 -60 -198t-155 -220q95 9 141 24q64 22 143.5 66.5
t134.5 76t79 31.5q6 0 6 -6q0 -17 -57.5 -62t-122.5 -79q-108 -55 -189.5 -82t-165.5 -27zM410 225q23 -33 67 -49q93 95 154 198.5t61 190.5q0 39 -24 61.5t-62 22.5q-31 0 -70.5 -22t-76 -59.5t-61.5 -96t-25 -123.5q0 -78 37 -123zM309 346q0 21 4 57q-22 -27 -84 -106
q-21 -26 -53.5 -104t-32.5 -132q0 -69 62 -69q34 0 93.5 36.5t125.5 96.5q-115 49 -115 221z" />
    <glyph glyph-name="p" unicode="p" horiz-adv-x="864" 
d="M565 578q-143 0 -370 -205q-44 -98 -140.5 -288t-148.5 -304q-42 -92 -159 -373.5t-208 -497t-100 -215.5q-11 0 -25.5 24t-27.5 82.5t-13 133.5q0 190 87 439.5t218 472.5t273 378q75 79 117 119q149 164 190 250q57 120 106.5 197.5t79.5 106t50 28.5q26 0 26 -39
q0 -35 -27.5 -85.5t-57 -87t-77 -91.5t-57.5 -68q-6 -9 -20 -37q207 144 309 144q65 0 105 -52t40 -118q0 -142 -137 -347q49 26 100.5 57.5t99.5 63t58 37.5q102 59 113 59q16 0 16 -12q0 -9 -36.5 -41t-69.5 -53q-8 -5 -77.5 -52t-143 -91.5t-144.5 -79.5q-3 -4 -11 -13.5
t-11 -13.5q-53 -61 -134.5 -102t-138.5 -41q-53 0 -53 39q0 59 158 127l151 57q68 97 118 224t50 169q0 44 -20 71.5t-58 27.5zM-158 -219q121 264 244 491q-38 -39 -127 -143q-5 -5 -29 -35t-71 -98t-97.5 -150.5t-106 -199t-100 -238t-75.5 -272t-37 -297.5q0 -1 17 39.5
t46 109.5t64.5 154.5t75 180t76 180.5t69 161t51.5 117zM274 -57q60 0 119 53q-42 -9 -71 -19q-20 -5 -34 -12t-19 -11.5t-5 -6.5q0 -4 10 -4z" />
    <glyph glyph-name="q" unicode="q" horiz-adv-x="903" 
d="M51 -154q36 -3 94.5 -11.5t85.5 -8.5q9 0 27 2t27 2q2 1 34 8v45q0 123 66 123q12 0 12 -74q0 -13 -4 -67q113 226 248 491q2 4 5 15.5t5 15.5q-111 -113 -257 -203t-247 -90q-58 0 -88 26.5t-30 74.5q0 56 45 151q23 48 67.5 105.5t98.5 109t115 86.5t110 35
q33 0 65 -18q117 57 203 57q36 0 63 -20t27 -44q0 -27 -35 -92q28 -5 49 -26.5t21 -46.5q0 -15 -6 -22t-18 -11t-27 -11t-35.5 -29.5t-40.5 -58.5q-16 -42 -62 -114t-107.5 -171.5t-106.5 -193.5q165 58 264 105q57 26 78 26q20 0 20 -14q0 -29 -54 -69t-91 -40
q-10 0 -35 -7t-49 -7q-3 0 -156 -45q-19 -45 -70 -154q-38 -196 -114.5 -399.5t-153 -330t-121.5 -126.5q-41 0 -41 47q0 38 35 115q89 205 355 742v10q0 10 -1.5 30.5t-1.5 30.5q-137 -37 -190 -37q-64 0 -96.5 20t-32.5 44q0 26 39 26q2 0 6 -1t6 -1zM182 293
q0 62 65.5 144.5t164.5 154.5q-84 -27 -167.5 -122t-115.5 -177q-23 -63 -23 -88q0 -45 48 -45q59 0 168.5 55t205.5 127t127 121q80 120 80 166q0 20 -24 20q-51 0 -133 -28q12 -17 16 -43q1 -20 9.5 -58.5t8.5 -56.5q0 -20 -8.5 -35.5t-19.5 -15.5q-15 0 -35.5 25
t-20.5 50q0 8 2 25t2 25q0 27 -28 49q-99 -55 -175 -134t-91 -147q-9 -33 -37 -33q-19 0 -19 21zM20 -1059q76 104 150.5 260t114.5 305q-228 -502 -265 -565z" />
    <glyph glyph-name="r" unicode="r" horiz-adv-x="686" 
d="M348 668q0 -40 -20 -88q39 -1 67.5 -5t57.5 -15t44 -34t15 -57q0 -32 -48.5 -93t-106 -116.5t-106 -109.5t-48.5 -74q0 -19 26 -19q45 0 181.5 75.5t261 151.5t139.5 76q10 0 10 -8q-1 -23 -136 -115.5t-298.5 -178t-228.5 -85.5q-38 0 -54 11.5t-16 38.5q12 43 52 95
t87.5 99.5l93.5 93.5t76.5 90.5t30.5 77.5q0 16 -9.5 26t-30 14.5t-39 5.5t-50.5 1q-39 -64 -98.5 -124t-112.5 -95q-95 -61 -127 -61q-10 0 -10 8t10 18t47 39q150 120 211 215q-156 0 -156 86q0 43 60.5 106.5t132.5 63.5q38 0 65 -35.5t27 -78.5zM123 602q0 -24 110 -24
h15q22 52 22 98q0 43 -30 43t-73.5 -34t-43.5 -83z" />
    <glyph glyph-name="s" unicode="s" horiz-adv-x="727" 
d="M289 356v90q-5 -5 -25 -20q-67 -56 -170 -118t-133 -62q-10 0 -10 8q0 15 18 27q202 137 322 241q7 68 31 121q24 55 75 94t95 39q15 0 24.5 -9t9.5 -24q0 -87 -157 -229q1 -31 7.5 -87.5t6.5 -88.5q0 -109 -29 -168q-20 -42 -53 -84q0 -4 4 -4q23 0 29 6
q127 56 214.5 103t194.5 120q26 17 59.5 34t43.5 17q12 0 12 -10q0 -22 -93 -87t-220 -134q-126 -68 -239 -113t-165 -45q-88 0 -150.5 50t-62.5 94q0 20 18.5 34.5t39.5 14.5q19 0 36 -19t28 -42.5t31 -42.5t46 -19q49 0 87 47t56.5 117.5t18.5 148.5zM446 713q0 1 -5 -4
t-12.5 -15.5t-16 -23.5t-17 -30.5t-14.5 -35.5q65 72 65 109z" />
    <glyph glyph-name="t" unicode="t" horiz-adv-x="632" 
d="M1358 1282q268 39 344 39q8 0 21.5 -4.5t13.5 -9.5q-1 -30 -67 -74.5t-101 -44.5q-7 1 -16 7.5t-19 14t-38 13.5t-69 6q-35 0 -87 -4t-136 -15t-136 -18t-173 -24t-162 -23q-82 -196 -205.5 -381.5t-267.5 -327.5q-85 -174 -143 -284q-7 -13 -20 -35.5t-15 -26.5
q14 -2 45 -2q74 0 166 33q77 27 151 66.5t161.5 94t107.5 66.5q23 14 32 14q19 0 19 -10q0 -17 -37 -45q-212 -163 -418 -246q-84 -34 -219 -34h-45q-65 -103 -115 -103q-49 0 -84.5 47.5t-35.5 83.5q0 28 23 36t87 11q56 0 96 -6q36 62 45 80q40 86 68 141
q-86 -69 -180 -118q-46 -23 -55 -23q-17 0 -17 17q0 25 37 47q138 86 276 209q15 33 35.5 73.5t50 99.5l50.5 101q65 132 182 393q-206 -26 -315 -26q-121 0 -121 45q5 36 86 36q27 0 82.5 -13t85.5 -13q64 0 202 16q63 138 98.5 213.5t82 168.5t75.5 135t45 42q17 0 17 -71
q0 -206 -94 -455q63 9 292 43.5t314 44.5zM586 1124q-183 -397 -248 -532q250 273 342 547q-16 -2 -47 -7.5t-47 -7.5zM711 1403q-13 -29 -48.5 -108.5t-56.5 -123.5q13 2 43.5 7.5t46.5 7.5q33 122 33 221q0 14 -6 14t-12 -18zM-70 29q-12 0 -12 -6t8.5 -13.5t14.5 -9.5
q11 0 30 29h-41z" />
    <glyph glyph-name="u" unicode="u" horiz-adv-x="1087" 
d="M303 563q-11 -21 -51 -79t-72.5 -108t-60 -116t-27.5 -115q0 -36 37 -36q25 0 92 26q55 24 192.5 135t207.5 181q43 42 87.5 108t75 100.5t66.5 34.5q9 0 16.5 -8.5t7.5 -21.5q0 -28 -28 -74t-75.5 -111t-68.5 -100q-73 -120 -73 -219q0 -14 1 -22.5t4 -20t12.5 -17.5
t23.5 -6q42 0 105 26.5t110 54t123.5 76t99.5 62.5q40 25 49 25q10 0 17.5 -5.5t7.5 -13.5q0 -21 -158 -122q-265 -170 -381 -170q-50 0 -76 37.5t-26 97.5q0 33 9.5 91t10.5 66q-103 -103 -252 -194.5t-217 -91.5q-43 0 -68.5 31.5t-25.5 82.5q0 69 56.5 188.5t129 211.5
t113.5 92q20 0 20 -25q0 -23 -14 -51z" />
    <glyph glyph-name="v" unicode="v" horiz-adv-x="851" 
d="M145 66q22 0 104 83.5t187 204.5q9 79 48.5 168.5t88.5 149t84 59.5q60 0 60 -63t-201 -295q-6 -30 -6 -56q0 -133 102 -133q61 0 140 45q30 17 86 53t93 58t52 22q12 0 12 -10q0 -13 -47 -53q-84 -69 -196 -125q-92 -47 -168 -47q-131 0 -148 147q-57 -71 -97 -117.5
t-87 -93t-88 -69.5t-76 -23q-32 0 -45.5 31t-13.5 72q0 65 61 231q-66 -53 -98 -74q-90 -55 -113 -55q-18 0 -18 12q0 9 12 25.5t33 30.5q78 52 121 93.5t98 119.5q23 33 57 95.5t57.5 98t39.5 35.5q43 0 43 -41q0 -27 -31 -94t-67.5 -137t-67.5 -160.5t-31 -159.5
q0 -9 5.5 -18.5t14.5 -9.5zM639 666q-13 0 -39.5 -51.5t-50.5 -120.5q103 132 106 155q0 8 -5 12.5t-11 4.5z" />
    <glyph glyph-name="w" unicode="w" horiz-adv-x="1349" 
d="M524 35q72 0 200.5 97t246.5 241q24 120 87 231t103 111q53 0 53 -47q0 -91 -159 -289q-17 -66 -17 -107q0 -88 72 -88q60 0 139 45q30 17 86 53t93.5 58t52.5 22q12 0 12 -10q0 -13 -47 -53q-82 -68 -197 -125q-92 -47 -168 -47q-115 0 -118 147
q-127 -134 -258.5 -222.5t-225.5 -88.5q-43 0 -67.5 23t-24.5 63q0 20 10.5 52t21.5 57t11 26q0 4 -4 4q-12 -9 -31.5 -23.5t-72 -51.5t-95 -65.5t-84.5 -51.5t-57 -23q-31 0 -49.5 19.5t-18.5 54.5q0 34 22.5 90.5t76.5 167.5q-68 -52 -135.5 -90.5t-87.5 -38.5
q-17 0 -17 12q0 10 11.5 26.5t33.5 29.5q47 31 68 45.5t32.5 22.5t49 36.5t82.5 61.5q65 114 144.5 197t141.5 83q23 0 36 -13t13 -34q0 -20 -8 -33q-22 -39 -46.5 -70t-45 -51.5t-53 -42.5t-54.5 -34.5t-65 -34.5q-8 -16 -27.5 -52t-32 -61t-27.5 -56t-22.5 -54t-7.5 -37
q0 -29 33 -29q42 0 107 43q61 39 145.5 111t168.5 164.5t118 160.5q9 19 34.5 33t47.5 14t22 -16q0 -19 -28 -47q-77 -79 -179 -240t-102 -215q0 -28 15 -44.5t42 -16.5zM262 459q63 42 101 80t38 59q0 6 -6 6q-54 0 -133 -145z" />
    <glyph glyph-name="x" unicode="x" horiz-adv-x="966" 
d="M-55 -98q0 24 12.5 32t33.5 13t32 18q151 175 370 408q-9 68 -21 119t-23 74.5t-19 23.5q-2 -26 -40 -89t-81 -106q-24 -24 -107.5 -86.5t-103.5 -62.5q-23 0 -23 10q0 14 27.5 38.5t79 64.5t80.5 67q38 35 66 92t28 84q0 96 80 96q52 0 84 -60t51 -183q223 233 326 317
q13 10 24 10q49 0 49 -26q0 -11 -10 -34.5t-24 -37.5q-7 -7 -25 -7.5t-31 -12.5q-28 -25 -67 -63t-65 -65t-84.5 -87.5t-80.5 -83.5q0 -1 1 -4.5t1 -4.5q1 -12 3 -39t4 -50t5.5 -52t8 -52t11 -43t16 -31t20.5 -11q39 0 211 88q37 23 117 77.5t131 86.5t65 32q13 0 13 -12
q2 -15 -86 -84.5t-209 -148.5q-60 -38 -157.5 -80.5t-131.5 -42.5q-19 0 -33.5 9t-25 30t-17.5 42.5t-13 60t-9 67t-7 78.5q-268 -272 -319 -326q-23 -25 -56.5 -49.5t-56.5 -24.5q-24 0 -24 21z" />
    <glyph glyph-name="y" unicode="y" horiz-adv-x="995" 
d="M174 213q0 -33 23 -33q50 0 226.5 146t264.5 239q26 27 58.5 62.5t48 52.5t34 34.5t31 24t23.5 6.5q28 0 28 -18q0 -15 -18 -46t-56 -89.5t-65 -106.5q-39 -72 -62.5 -123t-50.5 -120.5t-53 -128.5q-25 -58 -28 -66q127 67 163 88q75 44 189 114.5t145 88.5q41 24 60 24
q7 0 8.5 -2t1.5 -8q0 -4 -3 -9.5t-10 -12.5t-14 -13t-19 -15t-20.5 -15.5t-23.5 -17.5t-23 -17q-106 -79 -268 -172q-99 -55 -221 -113q-112 -257 -286 -678t-218 -520q-64 -145 -113 -145q-42 0 -80 94.5t-60 241.5t-22 299q0 84 22 159.5t51.5 131.5t90.5 114t104.5 93.5
t132 85t135 72.5t146.5 71q17 8 25 12q113 263 217 467q-77 -68 -170.5 -143t-211 -151.5t-167.5 -76.5q-45 0 -45 68q0 122 189 516q11 22 18 35t23.5 29t33.5 16q15 0 25 -14.5t10 -38.5q0 -3 -1 -9.5t-1 -9.5q-5 -29 -59.5 -129t-106 -202t-51.5 -142zM-43 -1225
q84 188 263 622.5t216 522.5q-76 -36 -129 -63t-120.5 -67t-113 -75.5t-94 -84.5t-77 -98.5t-46.5 -112.5t-18 -132q0 -115 18 -240.5t43.5 -204.5t45.5 -79q6 0 12 12z" />
    <glyph glyph-name="z" unicode="z" horiz-adv-x="790" 
d="M-102 231q10 7 79.5 56.5t93.5 67.5t86 64t94.5 74t79 68.5t79 76.5t57.5 71q26 39 65 39q23 0 39.5 -16.5t16.5 -43.5q0 -46 -47.5 -160t-89.5 -182q-14 -23 -58 -82q86 -39 111 -153q153 101 278 176t140 75q12 0 12 -10q0 -7 -6.5 -16.5t-21.5 -23t-31.5 -27
t-44 -32.5t-51 -35.5t-60 -41t-64 -42.5t-70 -46t-71.5 -47v-10q0 -126 -76 -307t-184.5 -341t-239 -273.5t-229.5 -113.5q-96 0 -96 150q0 78 30.5 164.5t73 156t97.5 138t95.5 109t75.5 71.5q124 110 381 283q-11 121 -102 131q-38 -43 -74 -76q-72 -60 -108 -60
q-20 0 -31.5 12t-11.5 31q0 46 66 105.5t149 62.5q55 69 94 144q22 45 46 109.5t24 88.5q0 11 -5 11t-20 -15q-101 -104 -260.5 -231t-290.5 -195q-25 -10 -31 -10q-20 0 -20 12q0 21 31 43zM100 -264q-52 -48 -106.5 -111.5t-108.5 -140.5t-88.5 -161.5t-34.5 -153.5
q0 -91 54 -91q24 0 65 23q87 51 182.5 153t176 224t137 261.5t65.5 256.5q-231 -156 -342 -260zM221 156q13 7 35 30q-70 -23 -70 -39q0 -4 11 -4t24 13z" />
    <glyph glyph-name="braceleft" unicode="{" horiz-adv-x="724" 
d="M387 616q0 52 -55 72q-47 -8 -117 -8q-61 0 -61 35q0 71 211 71q39 0 61 19q36 32 56 97.5t26 131t19 144t36 125.5q99 206 295 280q38 14 84 14q30 0 60 -8t51 -19.5t38 -22.5t26.5 -19t10.5 -8q7 0 17.5 7t11.5 7q4 0 4 -10q0 -42 -23.5 -83.5t-45.5 -41.5
q-14 0 -17 22q-8 46 -40 69t-99 23q-192 0 -293 -208q-31 -63 -48.5 -142t-25 -142.5t-20 -124.5t-43.5 -108t-86 -73q39 -34 39 -76q0 -70 -37.5 -175.5t-82.5 -196.5t-82.5 -191t-37.5 -160q0 -34 19 -53t49 -19q43 0 119 36t81 36q14 0 26.5 -7.5t12.5 -14.5
q0 -10 -40 -41.5t-98.5 -61t-98.5 -29.5q-56 0 -107 39.5t-51 104.5q0 62 40 159.5t88 185t88 191t40 174.5z" />
    <glyph glyph-name="bar" unicode="|" horiz-adv-x="397" 
d="M78 72q28 70 188 516t240 624q216 486 282 486q16 0 23.5 -15.5t7.5 -35.5q-1 -24 -12.5 -49.5t-30.5 -55t-26 -45.5q-4 -8 -37.5 -61.5t-83.5 -146.5t-101 -208q-148 -331 -354 -983q-11 -34 -23 -73t-19 -62.5t-15.5 -50t-14 -41.5t-13 -31t-13.5 -24t-14 -15t-17 -9.5
t-20 -2.5q-28 0 -44 19t-16 45q0 22 15 45t44.5 68.5t53.5 105.5z" />
    <glyph glyph-name="braceright" unicode="}" horiz-adv-x="935" 
d="M899 752h27q59 0 59 -39q0 -23 -35 -47.5t-82 -24.5q-13 0 -54 3t-58 3q-54 0 -116 -37.5t-101 -103.5q-37 -64 -77.5 -224.5t-55.5 -265.5q-14 -93 -127 -170t-248 -77q-34 0 -59 36.5t-25 55.5q0 9 14.5 18.5t32.5 9.5q13 0 39 -11t43 -11q2 0 18 -1t27 -1q23 0 50.5 6
t62 19.5t61 43.5t35.5 72q2 12 14.5 75.5t19 92.5t20 89.5t25 97t27.5 83t34 80t38 56.5q49 58 98 89t79.5 35t56.5 9.5t36 17.5q-30 35 -30 90q0 53 30 114t68.5 110t81 119t61.5 132q27 94 27 191q0 172 -131 172q-88 0 -140 -74q-17 -26 -30 -26q-11 0 -18 14t-7 35
t13.5 60.5t25.5 39.5q2 0 7 -7t12 -7q23 0 70 20.5t93 20.5q96 0 137.5 -63.5t41.5 -190.5q0 -95 -29 -182t-70 -149.5t-82.5 -118t-70.5 -111t-29 -105.5q0 -27 34.5 -45t55.5 -18z" />
    <glyph glyph-name="asciitilde" unicode="~" horiz-adv-x="1036" 
d="M369 369q-19 -10 -45 -29t-44.5 -29t-35.5 -10q-29 0 -29 37q0 38 58.5 74.5t135 56.5t136.5 20q36 0 57.5 -15t30 -37t15 -43.5t19.5 -36.5t35 -15q21 0 72.5 42t107 84t87.5 42q12 0 22 -7.5t10 -17.5q0 -22 -56 -74t-135.5 -97.5t-133.5 -45.5q-37 0 -58 15t-28 36.5
t-12 43t-17 36.5t-35 15q-72 0 -157 -45z" />
    <glyph glyph-name="exclamdown" unicode="&#xa1;" horiz-adv-x="389" 
d="M434 1016q13 31 35 31q16 0 29.5 -20.5t13.5 -47.5q0 -45 -55 -174q-35 -81 -200 -365t-206 -391q-7 -19 -20.5 -66t-26.5 -85t-30.5 -78.5t-41.5 -64t-51 -23.5q-37 0 -37 35q0 18 35.5 73.5t44.5 91.5q20 77 92.5 211t173.5 306t148 264q32 64 53 121.5t27.5 88.5
t10.5 59.5t5 33.5zM657 1409q3 0 7 -3.5t4 -6.5q0 -6 -15.5 -13t-15.5 -12q0 -4 4 -4q16 0 33 22.5t35 22.5q14 0 14 -12q0 -23 -37 -56.5t-76 -33.5q-15 0 -31 6.5t-16 19.5q0 15 31 42.5t63 27.5z" />
    <glyph glyph-name="cent" unicode="&#xa2;" horiz-adv-x="1062" 
d="M203 -201q-12 -12 -31 -12q-27 0 -46.5 23t-19.5 53q0 25 25 53t74 66q38 30 164 292q-224 44 -224 187q0 73 46.5 146.5t124.5 135.5t173.5 113.5t200.5 89.5q46 97 80 162q128 259 200 372t107 113q21 0 34 -17.5t13 -37.5q0 -6 -8.5 -13.5t-27.5 -28t-45.5 -55.5
t-70.5 -111.5t-95 -180.5q-14 -29 -42 -85.5t-42 -84.5q151 41 254 41q86 0 86 -68q0 -71 -62 -71q-7 0 -13.5 8.5t-13 19t-27 19t-52.5 8.5q-92 0 -213 -41q-39 -80 -134.5 -268t-150.5 -303q85 -5 242 -5q76 0 176.5 1.5t130.5 1.5q55 0 55 -21q-2 -17 -64 -44.5
t-100 -27.5q-8 0 -10 2q-46 12 -211.5 17t-247.5 16q-33 -67 -69 -145t-57.5 -124.5t-43.5 -91t-37.5 -69t-27.5 -35.5zM233 475q0 -63 40 -96t124 -47q229 481 250 524q-171 -70 -292.5 -174.5t-121.5 -206.5z" />
    <glyph glyph-name="sterling" unicode="&#xa3;" horiz-adv-x="935" 
d="M338 750h22q9 0 28 -1t28 -1q108 266 205 395q80 110 188 173.5t197 63.5q66 0 106.5 -46.5t40.5 -110.5v-9q-1 -46 -21 -82.5t-43.5 -56.5t-53.5 -45.5t-44 -46.5q-11 -20 -28 -20q-20 0 -32.5 17t-12.5 40q1 22 26.5 44t56 38t55.5 45t25 65q0 44 -27.5 74t-64.5 33
q-152 0 -330 -238q-52 -72 -165 -342q129 -15 236.5 -49.5t107.5 -60.5q0 -9 -14.5 -18t-35.5 -9q-30 0 -80 19.5t-113.5 39t-125.5 19.5q-107 -264 -197 -524q-1 -14 64.5 -23.5t144.5 -15.5t145 -25.5t66 -52.5q0 -24 -24 -49t-41 -25q-27 0 -47 9.5t-28.5 21t-19.5 24.5
t-22 17q-47 20 -188 20q-126 0 -136 -10q-61 -72 -131 -72q-26 0 -43.5 16t-17.5 44q0 26 11.5 45t27.5 29.5t40.5 17t42 8.5t42 3.5t30.5 2.5q10 17 18 33.5t14 29.5t14.5 34t13 33t15 42.5t16 46.5t20.5 61.5t23 70.5q27 83 63 178q-15 -3 -46 -10.5t-52.5 -11t-40.5 -3.5
q-58 0 -58 41q0 58 150 64z" />
    <glyph glyph-name="currency" unicode="&#xa4;" horiz-adv-x="892" 
d="M358 539q-63 -58 -104 -143.5t-41 -155.5q0 -23 2 -33q2 1 5 3t5 3q12 4 19 4q20 0 20 -16t-24 -43q26 -33 71 -33q91 0 213 72q-3 10 -12.5 20t-9.5 12q0 24 17 46t38 22q29 0 33 -55q88 66 143 147.5t55 163.5q0 25 -8 53q-117 -80 -125 -86q0 -3 1 -9t1 -9
q0 -49 -39 -49q-16 0 -35.5 7t-23.5 23q0 8 13.5 24.5t13.5 29.5q-3 17 -22 36.5t-44 26.5q-92 -68 -145 -68q-10 0 -17 7zM705 670q-57 0 -117 -29q35 -35 53 -76q47 31 113 82q-26 23 -49 23zM731 723q40 0 78 -33q81 67 100 96q16 24 37.5 38t36.5 14q23 0 23 -21
q0 -43 -166 -168q18 -45 18 -82q0 -104 -75.5 -210.5t-190.5 -184.5q0 -16 2 -49.5t2 -52.5q0 -62 -21 -96.5t-83 -34.5q-17 0 -17 10q0 8 14 22q26 18 35 158q-114 -63 -217 -63q-86 0 -129 51q-172 -105 -215 -105q-63 0 -63 25q0 21 39 50.5t57 29.5q6 0 18 -5l13 -6
q1 1 21.5 10t48 22.5t55.5 29.5q-9 24 -9 59q0 47 21 119q15 57 60 128.5t102 125.5q-25 97 -25 240q0 4 4 16q6 15 22 28t31 13q31 0 31 -74q0 -23 -4 -73.5t-4 -71.5v-35q63 39 111 39q24 0 55 -14q95 55 184 55z" />
    <glyph glyph-name="yen" unicode="&#xa5;" horiz-adv-x="983" 
d="M360 436q-39 -20 -81 -20q-38 0 -65.5 13t-27.5 30q0 11 11.5 20t36 16.5t49.5 13t66.5 11t71.5 9t79 8.5q43 105 43 161q0 11 -4 23q-35 93 -45.5 153.5t-10.5 145.5q0 51 -9 157t-9 138q0 36 14 56t35 20q32 0 40.5 -43.5t8.5 -139.5v-61q0 -112 12 -238.5t37 -126.5
q4 0 6 2q47 35 88.5 78.5t68.5 80t56 87t42 78t34 74.5l11 22q29 64 66 112t69 71t54.5 33t35.5 10q32 0 35 -33q0 -26 -29 -69.5t-53 -43.5q-3 0 -10.5 1t-10.5 1q-20 0 -37 -24.5t-55 -102.5q-67 -132 -149 -237.5t-211 -212.5q-5 -3 -10.5 -22t-17.5 -62t-26 -82
q154 15 201 30q28 7 39 7q37 0 37 -25q0 -18 -8.5 -31t-26.5 -21t-37.5 -13t-50.5 -7.5t-55 -3.5t-62.5 -2t-62.5 -2q-11 -30 -37 -80q-19 -36 -35 -63q209 41 258 49q126 20 170 20q17 0 35 -4.5t18 -11.5q0 -18 -74 -58t-98 -40q-13 0 -54 14t-75 14q-31 0 -71 -12
q-72 -21 -146 -35q-57 -94 -115 -172.5t-91 -113.5t-40 -35q-34 0 -34 33q0 37 19 68.5t79 94.5q42 45 86 105q-133 -24 -205 -51q-38 -15 -67 -15q-27 0 -44.5 10t-17.5 23q0 33 86 47q114 16 293 53q40 62 86 152q-68 -10 -109 -31z" />
    <glyph glyph-name="brokenbar" unicode="&#xa6;" horiz-adv-x="397" 
d="M532 1016q-35 -77 -68 -116.5t-56 -39.5q-25 0 -25 31q0 63 27.5 125.5t48.5 62.5q7 0 14 -2t10 -2q7 0 32.5 71.5t56 162t42.5 116.5q64 244 115 244q19 0 33 -19.5t14 -39.5q0 -6 -7.5 -14.5t-19 -22t-30 -53t-35.5 -97.5q-54 -177 -152 -407zM322 424
q-113 -251 -164.5 -383t-51.5 -182q0 -19 13 -19q8 4 18 4q2 0 7.5 1t7.5 1q15 0 18 -6q1 -11 -23.5 -24.5t-51.5 -22t-38 -8.5q-53 0 -53 53q0 25 10.5 55.5t29.5 70t26 56.5q24 61 78 187.5t89 218t44 141.5q4 16 4 19q0 6 -5.5 12.5t-5.5 17.5q0 17 23.5 33.5t36.5 16.5
q16 0 29.5 -20.5t13.5 -47.5q0 -52 -55 -174z" />
    <glyph glyph-name="section" unicode="&#xa7;" horiz-adv-x="978" 
d="M496 963q0 -21 9 -38t23.5 -28t38 -19t46 -12t55 -6.5t57 -3t59.5 -0.5q132 0 189 -35t57 -104q0 -125 -188 -217q-58 -32 -68 -37q96 -31 96 -121q0 -96 -81 -187t-207.5 -146.5t-255.5 -55.5q-50 0 -127.5 20.5t-92.5 20.5q-29 0 -50 -10.5t-29 -10.5q-19 0 -47.5 9.5
t-28.5 21.5q0 5 21 21.5t59 32.5t73 16q30 0 117.5 -27t122.5 -27q79 0 159 28.5t138 71t94.5 92.5t36.5 91q0 46 -26 72t-78 26q-22 0 -106 -3t-126 -3q-252 0 -252 133q0 44 30.5 92t76.5 88t93.5 71t88.5 48q-70 39 -70 115q0 78 70.5 153.5t170.5 127t206 83t182 31.5
q15 0 39 12.5t41 12.5q8 0 8 -6q-1 -7 -14 -38.5t-32 -72.5t-44.5 -72.5t-46.5 -31.5q-27 0 -27 26q0 11 6.5 34t6.5 28q0 14 -23 14q-45 0 -118.5 -21.5t-148.5 -57t-129 -90t-54 -111.5zM655 477q8 0 25 -1t25 -1q26 26 92 60q62 34 99.5 79t37.5 86q0 76 -119 84
q-15 1 -69 1t-106 4t-95 14q-56 -34 -80 -49t-68.5 -46.5t-65 -52t-39 -48.5t-20.5 -54q0 -19 7.5 -33t22 -22.5t29.5 -13.5t38.5 -7.5t39.5 -3t40 -0.5q35 0 102.5 2t103.5 2z" />
    <glyph glyph-name="dieresis" unicode="&#xa8;" horiz-adv-x="600" 
d="M465 911q-1 -26 -30.5 -47.5t-51.5 -21.5q-31 0 -31 47q0 29 12 56.5t37 27.5q23 0 43.5 -19.5t20.5 -42.5zM543 883q1 26 29.5 52t54.5 39t32 13q12 0 20.5 -6.5t8.5 -15.5q0 -8 -10.5 -35t-34.5 -55.5t-51 -28.5q-21 0 -35 9.5t-14 27.5z" />
    <glyph glyph-name="copyright" unicode="&#xa9;" horiz-adv-x="1638" 
d="M254 1008q11 13 81.5 54.5t162.5 88.5q56 48 104 78.5t60 30.5q24 0 53 -11q255 103 387 103q649 0 649 -523q0 -119 -41 -233t-110.5 -206.5t-164 -171.5t-200 -132t-219 -83t-221.5 -30q-134 0 -247.5 30.5t-199.5 90t-135 153.5t-49 214q0 311 223 577
q-77 -25 -133 -30zM717 1194q-27 -14 -97.5 -51.5t-109.5 -55.5q-52 -49 -98 -107.5t-88.5 -134t-67.5 -169t-25 -191.5q0 -137 77 -242t200.5 -158.5t269.5 -53.5q104 0 212.5 27t209 75.5t190 120.5t155.5 156.5t104.5 188.5t38.5 212q0 114 -39 202t-99.5 141t-143.5 87
t-161 46.5t-162 12.5q-139 0 -311 -79q47 -34 74 -80q8 -10 8 -29q0 -14 -8 -14q-7 0 -23.5 19t-44.5 43t-61 34zM1149 799q33 0 48 37t15 82q0 25 -5.5 48.5t-19.5 48.5t-43.5 40.5t-70.5 15.5q-102 0 -209 -77t-176.5 -198t-69.5 -239q0 -80 20.5 -135.5t59.5 -85
t85 -41.5t106 -12q49 0 117 23t121 50.5t95.5 50.5t45.5 23q8 0 15 -6.5t7 -15.5q-9 -8 -25 -20.5t-64.5 -45t-95.5 -57.5t-111.5 -45.5t-119.5 -20.5q-165 0 -252 81t-87 243q0 89 47 191t121 185.5t173.5 139t196.5 55.5q110 0 155.5 -55.5t45.5 -159.5q0 -52 -23 -127
t-49.5 -126.5t-38.5 -51.5q-45 0 -76.5 27t-31.5 92q0 40 12 75t37 35q4 0 19 -12t26 -12z" />
    <glyph glyph-name="ordfeminine" unicode="&#xaa;" horiz-adv-x="823" 
d="M809 977q25 0 103 17.5t100 17.5q26 0 26 -21q0 -26 -30 -64t-62 -38q-13 0 -29.5 13t-31.5 13t-53 -4t-72 -4q-48 0 -81.5 25t-33.5 80v12q-4 -3 -13.5 -10t-13.5 -10q-6 -5 -34.5 -29t-45.5 -37t-43 -31t-48 -26.5t-41 -8.5q-31 0 -51.5 29t-20.5 70q0 54 37.5 113.5
t96 108.5t123.5 90t125 64t97 23q45 0 89 -43t50 -84q0 -21 -8.5 -30t-30.5 -9q-17 0 -32 6q-7 2 -21 11l-27 -27t-31 -32t-26.5 -31.5t-26 -36t-15.5 -34t-7 -36.5q0 -47 82 -47zM528 623q-19 0 -143 -28t-158 -28q-47 0 -84 20.5t-37 51.5q0 23 29 23q4 0 23.5 -2.5
t34.5 -2.5q89 0 278 30t264 34q37 0 37 -35q0 -36 -48.5 -65t-84.5 -29q-17 0 -45.5 15.5t-65.5 15.5zM592 1057q3 3 15.5 17.5t21.5 23.5l21.5 21.5t24 20.5t21.5 11q55 85 97 127q-16 8 -29 8q-7 0 -23 -4q-123 -36 -231.5 -139t-108.5 -178q0 -11 6 -21t15 -10
q20 0 80.5 45t89.5 78z" />
    <glyph glyph-name="guillemotleft" unicode="&#xab;" horiz-adv-x="655" 
d="M430 561q18 12 27 12q10 -5 10 -26q0 -22 -62.5 -104.5t-130.5 -143.5q37 -68 37 -133q0 -31 -9.5 -73t-18.5 -42q-26 0 -31 32.5t-10.5 85t-28.5 85.5q-18 -6 -31 -6q-8 8 -8 18q0 20 25 53q49 36 92.5 86.5t77.5 93.5t61 62zM436 70q-6 -4 -18 -4t-23.5 14t-11.5 33
q0 7 2 26t2 29q0 31 -8.5 50.5t-19 25t-19 13t-8.5 17.5q0 30 30 45q15 7 65 51t95 84t51 40q3 0 7 -8.5t4 -14.5q0 -27 -48 -83.5t-102 -98.5q17 -38 17 -121q0 -68 -15 -98z" />
    <glyph glyph-name="logicalnot" unicode="&#xac;" horiz-adv-x="1316" 
d="M983 223q36 80 83.5 153.5t74 112t26.5 56.5q0 4 -8 4q-75 0 -412 -54.5t-446 -54.5q-147 0 -147 58q0 19 9 32t25 13q10 0 61 -10.5t95 -10.5q83 0 205.5 12.5t239.5 30t221.5 35.5t172.5 30.5t70 12.5q31 0 31 -16q0 -7 -2.5 -15t-9 -19t-11 -18t-15 -21t-13.5 -19
q-117 -163 -166 -297q-11 -29 -24.5 -70.5t-14.5 -44.5q0 -6 6 -6q2 0 9 6t12 6q10 0 10 -12t-31.5 -36t-56.5 -24q-12 0 -19.5 13.5t-7.5 35.5q0 43 33 117z" />
    <glyph glyph-name="registered" unicode="&#xae;" horiz-adv-x="1638" 
d="M254 1008q11 13 81.5 54.5t162.5 88.5q56 48 104 78.5t60 30.5q24 0 53 -11q255 103 387 103q649 0 649 -523q0 -119 -41 -233t-110.5 -206.5t-164 -171.5t-200 -132t-219 -83t-221.5 -30q-134 0 -247.5 30.5t-199.5 90t-135 153.5t-49 214q0 311 223 577
q-77 -25 -133 -30zM717 1194q-27 -14 -97.5 -51.5t-109.5 -55.5q-52 -49 -98 -107.5t-88.5 -134t-67.5 -169t-25 -191.5q0 -137 77 -242t200.5 -158.5t269.5 -53.5q104 0 212.5 27t209 75.5t190 120.5t155.5 156.5t104.5 188.5t38.5 212q0 114 -39 202t-99.5 141t-143.5 87
t-161 46.5t-162 12.5q-139 0 -311 -79q47 -34 74 -80q8 -10 8 -29q0 -14 -8 -14q-7 0 -23.5 19t-44.5 43t-61 34zM623 299q-12 -43 -28.5 -66.5t-27.5 -23.5q-12 0 -19 15.5t-7 37.5q4 42 12 72q52 174 84 254q-50 9 -76 32.5t-26 55.5q0 51 58 88t148 53q171 311 414 311
q119 0 190.5 -43.5t71.5 -107.5q0 -57 -85 -132.5t-216 -142.5q21 -58 21 -124q0 -35 -19 -131t-56 -191.5t-75 -95.5q-18 0 -18 24q0 33 26.5 112.5t53 173.5t26.5 161q0 28 -6 49q-199 -90 -354 -96q-34 -95 -92 -285zM1151 1085q-110 0 -190 -64.5t-146 -193.5
q9 0 27.5 1t27.5 1q164 0 222 -84q93 40 155 88t76 97q8 32 8 51q0 104 -180 104zM799 795q-36 -80 -62 -150q149 17 314 84q-43 70 -193 70q-19 0 -59 -4zM592 684q0 -41 65 -43q30 73 64 137q-57 -16 -93 -41t-36 -53z" />
    <glyph glyph-name="macron" unicode="&#xaf;" horiz-adv-x="628" 
d="M303 936q9 5 62 5t134 4t144 16q52 10 96 10q25 0 25 -21q-7 -31 -35 -52t-57 -21q-11 0 -29 8t-45 8q-42 0 -126 -15.5t-118 -15.5q-27 0 -42 15t-15 38q0 15 6 21z" />
    <glyph glyph-name="degree" unicode="&#xb0;" horiz-adv-x="493" 
d="M313 1006q0 98 89.5 198t183.5 115q71 53 104 53q27 0 50 -22t30 -60q8 -40 8 -69q0 -75 -55 -161t-139.5 -144t-161.5 -58q-54 0 -81.5 44.5t-27.5 103.5zM446 924q44 0 103 50t101 118.5t42 117.5q0 70 -47 70q-4 0 -16 -6q-2 -2 -31 -19q-2 -1 -5 -4t-5 -4
q-12 -10 -58.5 -23t-70.5 -36q-32 -31 -53 -88t-21 -105q0 -34 19.5 -52.5t41.5 -18.5z" />
    <glyph glyph-name="plusminus" unicode="&#xb1;" horiz-adv-x="1054" 
d="M592 842q3 36 19 57t38 21q39 0 39 -64q0 -45 -15.5 -89t-68.5 -161q252 19 369 35q10 2 28 2q39 0 39 -18q0 -26 -33.5 -52.5t-77 -43t-80.5 -27t-48 -10.5q-31 0 -31 14q0 11 58.5 30t58.5 25q0 4 -33 4q-119 0 -276 -20q-18 -42 -36.5 -98.5t-30.5 -93.5t-28 -73
t-38 -53.5t-52 -17.5q-26 0 -26 24q0 15 8 31q22 51 39 88.5t41.5 88.5t44.5 94q-172 -28 -172 -46q0 -3 2 -8t2 -8q0 -13 -16.5 -25t-30.5 -12q-36 0 -67.5 40t-31.5 65q0 30 342 59q45 115 64 242zM35 78q0 22 131 22q26 0 79.5 -1t76.5 -1q73 0 213 38t182 38
q35 0 35 -16q0 -1 -11.5 -16.5t-31.5 -38t-43.5 -44.5t-51.5 -37.5t-51 -15.5q-8 0 -8 8q0 6 8 24.5t8 24.5q0 11 -10 11q-8 0 -26 -6q-59 -23 -181.5 -39.5t-201.5 -16.5q-63 0 -87.5 16.5t-29.5 49.5z" />
    <glyph glyph-name="twosuperior" unicode="&#xb2;" horiz-adv-x="555" 
d="M690 803q4 -8 4 -15q0 -30 -54.5 -76.5t-92.5 -52.5q-30 0 -47.5 13t-23 28t-17.5 28t-31 13q-31 0 -64 -20.5t-57 -45t-57.5 -45t-65.5 -20.5q-47 0 -47 23q0 20 39 47q71 52 136.5 106t140.5 127t129.5 141t90.5 144.5t36 142.5q0 3 -3.5 8t-5.5 5q-23 -1 -53.5 -37
t-30.5 -55q0 -26 -29 -47t-77 -27q-14 0 -22.5 1t-17.5 9t-9 23q0 19 17 42t52.5 50t60 43.5t68.5 44.5q1 1 22.5 17.5t45 29t43.5 12.5q37 0 37 -65t-38.5 -149.5t-96 -161.5t-113 -138.5t-102.5 -101.5q1 -3 11 -4t24 -5t22 -14q5 -6 9.5 -25t13.5 -31.5t26 -12.5
q21 3 50 30.5t49 30.5q23 0 28 -10z" />
    <glyph glyph-name="threesuperior" unicode="&#xb3;" horiz-adv-x="624" 
d="M524 1278q-4 -2 -10 -2q-12 1 -18.5 13t-6.5 28q0 26 13.5 45.5t38.5 19.5q14 0 46 -4t77 -4q48 0 88 16t69.5 32t50.5 16t36.5 -9t15.5 -26q0 -40 -51 -93.5t-113 -95t-120.5 -82t-68.5 -55.5q11 0 58 7.5t78 7.5q100 0 100 -113q0 -77 -41 -156t-115.5 -133.5
t-158.5 -54.5q-38 0 -82.5 9t-65.5 9q-20 0 -44 -2t-38 -2q-22 0 -45.5 17t-23.5 39q0 25 24 37t57 12q27 0 112 -26t108 -26q98 0 173.5 84t75.5 181q0 55 -57 55q-33 0 -108 -20.5t-93 -20.5q-41 0 -41 33q0 25 48 68t106 81.5t106 79.5t48 64q0 14 -25 14
q-27 0 -91 -11.5t-112 -31.5z" />
    <glyph glyph-name="acute" unicode="&#xb4;" horiz-adv-x="610" 
d="M362 864q-63 0 -63 25q0 21 39 50.5t57 29.5q4 0 11.5 -2.5t13 -5.5t6.5 -3q23 10 57 26.5t94.5 50.5t117.5 82t91 97q16 24 37.5 38t36.5 14q23 0 23 -21q0 -41 -73.5 -109t-166 -126.5t-176 -102t-105.5 -43.5z" />
    <glyph glyph-name="mu" unicode="&#xb5;" horiz-adv-x="864" 
d="M-197 -233q-39 -73 -61.5 -118t-62.5 -131.5t-61 -155.5t-21 -116q0 -13 1 -29.5t1 -21.5q0 -18 -15 -29.5t-37 -11.5q-19 0 -32 10.5t-13 32.5q4 225 504 1039l4 8q19 110 66 230.5t112 221.5q65 97 93 97q22 0 35.5 -37t13.5 -66q0 -45 -36.5 -119.5t-69.5 -123.5
t-93 -132q-7 -10 -26 -36.5t-29 -42.5q-4 -29 -4 -86q0 -74 24 -74q45 0 211 164t295 327q24 51 71 106.5t89 55.5q20 0 26 -29q0 -49 -96 -168q-231 -347 -231 -426q0 -22 18 -22q46 0 164 63q48 26 138.5 83t154 94.5t78.5 37.5q12 0 12 -10q0 -22 -115.5 -103.5
t-248.5 -152.5q-195 -102 -240 -102q-49 0 -49 86q0 73 94 242q-137 -142 -248 -235t-158 -93q-25 0 -42.5 29.5t-18.5 91.5q-91 -153 -197 -348zM244 686q-97 -151 -140 -305q47 69 73 110.5t54.5 101t36.5 107.5q0 11 -4 15q-13 -17 -20 -29z" />
    <glyph glyph-name="paragraph" unicode="&#xb6;" horiz-adv-x="1024" 
d="M350 109q97 230 424 845q-88 -21 -186 -67q-58 -27 -127 -27q-213 0 -213 101q0 51 49 94q84 75 161.5 129.5t127 82t153 80.5t176.5 93q32 16 54 16q36 0 53 -39q29 49 56.5 76t43.5 27q17 0 17 -25q0 -43 -45 -113q-38 -58 -174 -309q4 2 10 2q22 0 34.5 -14.5
t12.5 -34.5q0 -19 -13 -33.5t-38 -15.5q-7 -1 -19.5 -1.5t-23 -1.5t-19.5 -3q-350 -656 -452 -871q-25 -54 -45.5 -98t-28.5 -63t-15.5 -35t-15.5 -29q-13 -22 -34 -34.5t-40 -12.5q-16 0 -21 9.5t-5 31.5q0 30 10 68q8 21 66.5 87t66.5 85zM811 1024q153 285 164 305
q-14 14 -37 14q-24 0 -57 -16q-541 -261 -541 -354q0 -26 35 -39.5t86 -13.5q120 0 350 104zM1255 1362q13 24 34.5 40.5t35.5 16.5q18 0 18 -24q0 -35 -45.5 -133t-101.5 -187q-44 -71 -182.5 -364t-173.5 -387q-13 -36 -22 -63.5t-16 -58t-9 -41.5t-8.5 -51t-8.5 -49
q-14 -77 -29 -113t-29.5 -44t-45.5 -8q-5 0 -12 9.5t-7 12.5q0 17 26 71t36 111q33 187 141 451t268 557q25 46 70 137t61 117z" />
    <glyph glyph-name="periodcentered" unicode="&#xb7;" horiz-adv-x="567" 
d="M223 322q7 8 19 13t16 9q3 3 11.5 12t13 13t11.5 9.5t14 8t14 2.5q26 0 41.5 -16t15.5 -41q0 -42 -40 -81.5t-85 -39.5t-45 53q0 44 14 58z" />
    <glyph glyph-name="cedilla" unicode="&#xb8;" horiz-adv-x="878" 
d="M111 -78q22 41 34 50.5t35 9.5q19 0 19 -27q-1 -9 -36 -61t-36 -60q0 -7 31 -9t67.5 -4.5t67.5 -24.5t31 -64q0 -41 -43.5 -93.5t-114.5 -91.5t-139 -39q-34 0 -55 10t-31.5 19.5t-18.5 9.5q-3 0 -9.5 -1t-8.5 -1q-13 0 -13 17q2 21 29.5 53.5t54.5 32.5q15 0 22 -12
t8.5 -26t11 -26t28.5 -12q53 0 126 47t73 98q0 39 -45 39q-30 0 -87 -6t-67 -6q-13 0 -21 10.5t-8 26.5q2 11 17 29t38.5 48.5t39.5 63.5z" />
    <glyph glyph-name="onesuperior" unicode="&#xb9;" horiz-adv-x="522" 
d="M459 692q-27 0 -72.5 -23.5t-85.5 -23.5q-135 0 -135 45q0 56 225 60q59 87 163.5 288t104.5 228q0 4 -4 4q-2 0 -18 -9.5t-47 -28t-62 -34.5q-18 -9 -18 -10q0 -7 18.5 -19.5t18.5 -13.5q0 -14 -12 -14q-5 0 -7 2q-44 22 -73 22q-10 0 -29 -8t-29 -8q-11 0 -18.5 8
t-7.5 21q0 16 17.5 32.5t53.5 26.5q71 18 127.5 46.5t87.5 56t53.5 52t37 39.5t26.5 15q21 0 21 -19q0 -30 -105 -252.5t-198 -398.5q-6 -10 -15 -28q56 -6 112 -33.5t56 -46.5t-59 -19q-11 0 -17 4q-73 39 -110 39z" />
    <glyph glyph-name="ordmasculine" unicode="&#xba;" horiz-adv-x="602" 
d="M365 973q0 99 93.5 213t186.5 133q71 53 105 53q75 0 75 -117q0 -81 -59 -174t-147.5 -156t-165.5 -63q-39 0 -63.5 29.5t-24.5 81.5zM477 928q45 0 108 54t109.5 130t46.5 131q0 13 -7.5 26t-20.5 13q-9 0 -25 -8q-2 -2 -31 -19q-2 -1 -5 -4t-5 -4q-12 -10 -58.5 -23
t-70.5 -36q-31 -30 -56.5 -101.5t-25.5 -111.5q0 -22 13.5 -34.5t27.5 -12.5zM119 651q9 4 76 7t170 11t184 23q73 15 123 15q30 0 30 -19q-7 -34 -53.5 -61t-87.5 -27q-9 1 -36.5 11t-51.5 10q-60 0 -155.5 -33t-139.5 -33q-29 0 -48 27t-19 51v8q0 6 8 10z" />
    <glyph glyph-name="guillemotright" unicode="&#xbb;" horiz-adv-x="692" 
d="M340 96q-8 -8 -8 -20q0 -13 26 -29q-6 -12 -49 -12q-57 0 -57 31q0 27 63.5 107.5t122.5 125.5q-14 16 -29.5 62t-15.5 88q0 28 10 47.5t18.5 25.5t12.5 6q17 0 23 -26t9 -64.5t11 -54.5t20.5 -31.5t20.5 -25.5t8 -15q0 -4 -12.5 -12t-33 -23t-43.5 -36.5t-49.5 -59.5
t-47.5 -84zM106 102q7 42 59 104.5t105 100.5q-32 66 -32 119q0 28 9 70.5t21 42.5t19 -5.5t10 -19t3.5 -24t0.5 -31.5q0 -51 6 -74q3 -13 24 -43.5t21 -38.5q-13 -41 -41 -41q-12 0 -12 2q-22 -22 -53 -60.5t-51 -65.5t-21 -27q6 0 24 5t27 5q-7 -11 -39.5 -34.5
t-58.5 -23.5q-23 0 -23 23q0 10 2 16z" />
    <glyph glyph-name="onequarter" unicode="&#xbc;" horiz-adv-x="1630" 
d="M1569 799q35 0 35 -23q0 -22 -17 -42.5t-50.5 -58.5t-59.5 -85q-57 -101 -154 -311q29 2 68.5 4.5t64.5 4t37 1.5q61 0 61 -13q0 -19 -51.5 -46t-77.5 -27q-8 0 -44 8t-70 8h-15q-15 -38 -49 -117q-30 -68 -70.5 -97.5t-74.5 -29.5q-27 0 -27 37q0 23 20.5 52.5
t37.5 29.5q3 0 7.5 -2t6.5 -2q11 0 67 125q-224 -16 -237 -16q-94 0 -94 49q0 30 36.5 73t103 94.5t133.5 98.5t155.5 108.5t140.5 100.5q22 32 44.5 49t36 20.5t36.5 6.5zM213 -236q0 30 25 88t47 58q6 0 6.5 -32.5t7.5 -33.5q9 -1 28 21.5t49.5 71.5t63 103t85 140.5
t98.5 159.5q23 35 130 203.5t199.5 313t204.5 315t197.5 290.5t124.5 160q1 1 26 27.5t35 34.5t32.5 20t43.5 12q29 -3 29 -39q-2 -15 -23.5 -41.5t-61 -73.5t-69.5 -92q-35 -52 -99.5 -166t-108.5 -182.5t-64 -66.5q-11 0 -11 20q3 26 19.5 51t35 43t35.5 45.5t21 57.5
q0 6 -2 8q-16 0 -76 -84q-28 -39 -269 -425.5t-284 -453.5q-184 -284 -282 -464q-32 -55 -82 -94.5t-84 -39.5q-27 3 -27 45zM459 692q-27 0 -72.5 -23.5t-85.5 -23.5q-135 0 -135 45q0 56 225 60q59 87 163.5 288t104.5 228q0 4 -4 4q-2 0 -18 -9.5t-47 -28t-62 -34.5
q-18 -9 -18 -10q0 -7 18.5 -19.5t18.5 -13.5q0 -14 -12 -14q-5 0 -7 2q-44 22 -73 22q-10 0 -29 -8t-29 -8q-11 0 -18.5 8t-7.5 21q0 16 17.5 32.5t53.5 26.5q71 18 127.5 46.5t87.5 56t53.5 52t37 39.5t26.5 15q21 0 21 -19q0 -30 -105 -252.5t-198 -398.5q-6 -10 -15 -28
q56 -6 112 -33.5t56 -46.5t-59 -19q-11 0 -17 4q-73 39 -110 39zM1018 260q23 0 102.5 5t120.5 7q14 32 40.5 94t49 114t41.5 93q-32 -21 -109 -70.5t-111.5 -73.5t-82 -58.5t-67 -57.5t-19.5 -39q0 -14 35 -14z" />
    <glyph glyph-name="onehalf" unicode="&#xbd;" horiz-adv-x="1552" 
d="M213 -236q0 30 25 88t47 58q6 0 6.5 -32.5t7.5 -33.5q9 -1 28 21.5t49.5 71.5t63 103t85 140.5t98.5 159.5q23 35 130 203.5t199.5 313t204.5 315t197.5 290.5t124.5 160q1 1 26 27.5t35 34.5t32.5 20t43.5 12q29 -3 29 -39q-2 -15 -23.5 -41.5t-61 -73.5t-69.5 -92
q-35 -52 -99.5 -166t-108.5 -182.5t-64 -66.5q-11 0 -11 20q3 26 19.5 51t35 43t35.5 45.5t21 57.5q0 6 -2 8q-16 0 -76 -84q-28 -39 -269 -425.5t-284 -453.5q-184 -284 -282 -464q-32 -55 -82 -94.5t-84 -39.5q-27 3 -27 45zM1368 174q4 -8 4 -14q0 -30 -54.5 -76.5
t-92.5 -52.5q-30 0 -47.5 13t-23 28t-17.5 28t-31 13q-31 0 -64 -20.5t-57 -45t-57.5 -45t-65.5 -20.5q-47 0 -47 22q0 20 39 47q71 52 136.5 106t140.5 127t129 141.5t90 145t36 142.5q0 3 -3 7.5t-5 4.5q-23 -1 -53.5 -37t-30.5 -55q0 -26 -29 -47t-77 -27q-14 0 -22.5 1
t-17.5 9t-9 23q0 19 17 42t52.5 50t60 43.5t68.5 44.5q1 1 22.5 17.5t45 29t43.5 12.5q37 0 37 -65t-38.5 -149.5t-96 -161.5t-113 -138.5t-102.5 -101.5q1 -3 11 -4t24 -4.5t22 -13.5q5 -6 9.5 -25t13.5 -32t26 -13q21 3 49 30.5t49 30.5q24 0 29 -10zM459 692
q-27 0 -72.5 -23.5t-85.5 -23.5q-135 0 -135 45q0 56 225 60q59 87 163.5 288t104.5 228q0 4 -4 4q-2 0 -18 -9.5t-47 -28t-62 -34.5q-18 -9 -18 -10q0 -7 18.5 -19.5t18.5 -13.5q0 -14 -12 -14q-5 0 -7 2q-44 22 -73 22q-10 0 -29 -8t-29 -8q-11 0 -18.5 8t-7.5 21
q0 16 17.5 32.5t53.5 26.5q71 18 127.5 46.5t87.5 56t53.5 52t37 39.5t26.5 15q21 0 21 -19q0 -30 -105 -252.5t-198 -398.5q-6 -10 -15 -28q56 -6 112 -33.5t56 -46.5t-59 -19q-11 0 -17 4q-73 39 -110 39z" />
    <glyph glyph-name="threequarters" unicode="&#xbe;" horiz-adv-x="1644" 
d="M1569 799q35 0 35 -23q0 -22 -17 -42.5t-50.5 -58.5t-59.5 -85q-57 -101 -154 -311q29 2 68.5 4.5t64.5 4t37 1.5q61 0 61 -13q0 -19 -51.5 -46t-77.5 -27q-8 0 -44 8t-70 8h-15q-15 -38 -49 -117q-30 -68 -70.5 -97.5t-74.5 -29.5q-27 0 -27 37q0 23 20.5 52.5
t37.5 29.5q3 0 7.5 -2t6.5 -2q11 0 67 125q-224 -16 -237 -16q-94 0 -94 49q0 30 36.5 73t103 94.5t133.5 98.5t155.5 108.5t140.5 100.5q22 32 44.5 49t36 20.5t36.5 6.5zM213 -236q0 30 25 88t47 58q6 0 6.5 -32.5t7.5 -33.5q9 -1 28 21.5t49.5 71.5t63 103t85 140.5
t98.5 159.5q23 35 130 203.5t199.5 313t204.5 315t197.5 290.5t124.5 160q1 1 26 27.5t35 34.5t32.5 20t43.5 12q29 -3 29 -39q-2 -15 -23.5 -41.5t-61 -73.5t-69.5 -92q-35 -52 -99.5 -166t-108.5 -182.5t-64 -66.5q-11 0 -11 20q3 26 19.5 51t35 43t35.5 45.5t21 57.5
q0 6 -2 8q-16 0 -76 -84q-28 -39 -269 -425.5t-284 -453.5q-184 -284 -282 -464q-32 -55 -82 -94.5t-84 -39.5q-27 3 -27 45zM524 1278q-4 -2 -10 -2q-12 1 -18.5 13t-6.5 28q0 26 13.5 45.5t38.5 19.5q14 0 46 -4t77 -4q48 0 88 16t69.5 32t50.5 16t36.5 -9t15.5 -26
q0 -40 -51 -93.5t-113 -95t-120.5 -82t-68.5 -55.5q11 0 58 7.5t78 7.5q100 0 100 -113q0 -77 -41 -156t-115.5 -133.5t-158.5 -54.5q-38 0 -82.5 9t-65.5 9q-20 0 -44 -2t-38 -2q-22 0 -45.5 17t-23.5 39q0 25 24 37t57 12q27 0 112 -26t108 -26q98 0 173.5 84t75.5 181
q0 55 -57 55q-33 0 -108 -20.5t-93 -20.5q-41 0 -41 33q0 25 48 68t106 81.5t106 79.5t48 64q0 14 -25 14q-27 0 -91 -11.5t-112 -31.5zM1018 260q23 0 102.5 5t120.5 7q14 32 40.5 94t49 114t41.5 93q-32 -21 -109 -70.5t-111.5 -73.5t-82 -58.5t-67 -57.5t-19.5 -39
q0 -14 35 -14z" />
    <glyph glyph-name="questiondown" unicode="&#xbf;" horiz-adv-x="993" 
d="M1120 1147q41 59 76 59q25 0 25 -26q0 -17 -39.5 -74t-46.5 -82q-20 -70 -125 -291t-131 -221q-15 0 -30 9t-15 20q0 7 6 29t6 32q0 12 -32 18.5t-69 6.5q-34 0 -110.5 -31t-168.5 -84.5t-177 -116t-142 -135.5t-57 -133q0 -40 35 -74.5t80.5 -51.5t85.5 -17
q50 0 124.5 38t121.5 72q7 4 12.5 8.5t7.5 8t2 4.5q0 4 -6 4q-17 0 -104 -43t-117 -43q-25 0 -25 18q1 14 66.5 51t152 70t133.5 33q52 0 52 -21q-2 -23 -41 -67t-96.5 -89t-134 -78.5t-142.5 -33.5q-111 0 -202 58.5t-91 121.5q0 64 41.5 135.5t107 134.5t146 122t159 102
t146 70t107.5 30q225 18 313 232q11 27 32.5 84t36 90t27.5 51zM1366 1430q-6 -20 -22.5 -32t-36.5 -12q-26 0 -45 33.5t-19 71.5q0 25 15.5 39t41.5 14q35 0 51.5 -27.5t16.5 -66.5q0 -4 -1 -10.5t-1 -9.5z" />
    <glyph glyph-name="Agrave" unicode="&#xc0;" horiz-adv-x="1239" 
d="M299 485q0 82 64 144t141 65q59 77 219 295q108 147 206 294.5t148.5 230t97.5 151.5t80 96t68 27q80 0 80 -141q0 -95 -40.5 -236t-82.5 -242t-102 -233q-134 -295 -404 -801h10q188 0 400 129q15 9 43 26.5t44 27t36 21t32.5 16.5t20.5 5q10 0 10 -8q0 -13 -26 -35
t-87 -65q-251 -176 -469 -176q-31 0 -45 2q-68 -128 -118 -211q-46 -74 -82 -74q-10 0 -17.5 8.5t-7.5 20.5q0 28 27 65q63 88 82 211q-97 30 -171.5 88.5t-115.5 139.5q-59 -76 -144.5 -178t-137.5 -169.5t-89 -130.5q-22 -36 -43.5 -54.5t-36.5 -18.5q-22 0 -22 28
q0 40 55 121t171 226t173 223q6 9 19.5 27.5t19.5 27.5q-6 27 -6 57zM1114 1323h10q17 0 17 -14q0 -13 -13 -36.5t-32 -49t-43 -54t-43 -50.5t-35 -39.5t-17 -18.5q-32 -39 -86.5 -102t-130.5 -151.5t-127 -148.5q72 -63 86 -253q2 -27 2 -84q0 -89 -10 -177q12 -4 21 -4
q78 148 192 383t176 377q19 44 78 170.5t89.5 197t59.5 167t29 161.5q0 43 -13 80t-30 37q-17 1 -57 -46t-76 -109q-29 -49 -78.5 -121.5t-121.5 -173.5t-129 -179t-151.5 -206.5t-137.5 -188.5q12 0 18 -2q208 242 336 387q45 51 96 118t77 96.5t44 33.5zM399 399
q81 -175 236 -235q6 68 6 217q0 161 -70 227q-119 -141 -172 -209zM362 504q8 12 103 139q-36 -3 -69.5 -49t-33.5 -90zM518 637q-2 0 -6.5 1t-7.5 1q-38 -52 -96 -133q64 77 110 131zM1554 1911q0 -20 -39 -31.5t-69 -11.5q-60 0 -131 41q-61 33 -124.5 111t-64.5 134
q0 26 20.5 45t43.5 19q27 0 33 -37v-14q1 -32 34.5 -89t85.5 -104t95 -47q30 0 30 17q0 14 25 14q17 0 39 -15t22 -32z" />
    <glyph glyph-name="Aacute" unicode="&#xc1;" horiz-adv-x="1239" 
d="M299 485q0 82 64 144t141 65q59 77 219 295q108 147 206 294.5t148.5 230t97.5 151.5t80 96t68 27q80 0 80 -141q0 -95 -40.5 -236t-82.5 -242t-102 -233q-134 -295 -404 -801h10q188 0 400 129q15 9 43 26.5t44 27t36 21t32.5 16.5t20.5 5q10 0 10 -8q0 -13 -26 -35
t-87 -65q-251 -176 -469 -176q-31 0 -45 2q-68 -128 -118 -211q-46 -74 -82 -74q-10 0 -17.5 8.5t-7.5 20.5q0 28 27 65q63 88 82 211q-97 30 -171.5 88.5t-115.5 139.5q-59 -76 -144.5 -178t-137.5 -169.5t-89 -130.5q-22 -36 -43.5 -54.5t-36.5 -18.5q-22 0 -22 28
q0 40 55 121t171 226t173 223q6 9 19.5 27.5t19.5 27.5q-6 27 -6 57zM1114 1323h10q17 0 17 -14q0 -13 -13 -36.5t-32 -49t-43 -54t-43 -50.5t-35 -39.5t-17 -18.5q-32 -39 -86.5 -102t-130.5 -151.5t-127 -148.5q72 -63 86 -253q2 -27 2 -84q0 -89 -10 -177q12 -4 21 -4
q78 148 192 383t176 377q19 44 78 170.5t89.5 197t59.5 167t29 161.5q0 43 -13 80t-30 37q-17 1 -57 -46t-76 -109q-29 -49 -78.5 -121.5t-121.5 -173.5t-129 -179t-151.5 -206.5t-137.5 -188.5q12 0 18 -2q208 242 336 387q45 51 96 118t77 96.5t44 33.5zM399 399
q81 -175 236 -235q6 68 6 217q0 161 -70 227q-119 -141 -172 -209zM362 504q8 12 103 139q-36 -3 -69.5 -49t-33.5 -90zM518 637q-2 0 -6.5 1t-7.5 1q-38 -52 -96 -133q64 77 110 131zM1296 1890q-63 0 -63 25q0 21 39 50.5t57 29.5q6 0 19 -5l12 -5q23 10 57 26.5
t94.5 50.5t117.5 82t91 97q16 24 37.5 37.5t36.5 13.5q23 0 23 -21q0 -41 -73.5 -109t-166 -126.5t-176 -102t-105.5 -43.5z" />
    <glyph glyph-name="Acircumflex" unicode="&#xc2;" horiz-adv-x="1239" 
d="M299 485q0 82 64 144t141 65q59 77 219 295q108 147 206 294.5t148.5 230t97.5 151.5t80 96t68 27q80 0 80 -141q0 -95 -40.5 -236t-82.5 -242t-102 -233q-134 -295 -404 -801h10q188 0 400 129q15 9 43 26.5t44 27t36 21t32.5 16.5t20.5 5q10 0 10 -8q0 -13 -26 -35
t-87 -65q-251 -176 -469 -176q-31 0 -45 2q-68 -128 -118 -211q-46 -74 -82 -74q-10 0 -17.5 8.5t-7.5 20.5q0 28 27 65q63 88 82 211q-97 30 -171.5 88.5t-115.5 139.5q-59 -76 -144.5 -178t-137.5 -169.5t-89 -130.5q-22 -36 -43.5 -54.5t-36.5 -18.5q-22 0 -22 28
q0 40 55 121t171 226t173 223q6 9 19.5 27.5t19.5 27.5q-6 27 -6 57zM1114 1323h10q17 0 17 -14q0 -13 -13 -36.5t-32 -49t-43 -54t-43 -50.5t-35 -39.5t-17 -18.5q-32 -39 -86.5 -102t-130.5 -151.5t-127 -148.5q72 -63 86 -253q2 -27 2 -84q0 -89 -10 -177q12 -4 21 -4
q78 148 192 383t176 377q19 44 78 170.5t89.5 197t59.5 167t29 161.5q0 43 -13 80t-30 37q-17 1 -57 -46t-76 -109q-29 -49 -78.5 -121.5t-121.5 -173.5t-129 -179t-151.5 -206.5t-137.5 -188.5q12 0 18 -2q208 242 336 387q45 51 96 118t77 96.5t44 33.5zM399 399
q81 -175 236 -235q6 68 6 217q0 161 -70 227q-119 -141 -172 -209zM362 504q8 12 103 139q-36 -3 -69.5 -49t-33.5 -90zM518 637q-2 0 -6.5 1t-7.5 1q-38 -52 -96 -133q64 77 110 131zM1212 1960q68 22 146 90t127 137q11 16 22 40t19.5 33t27.5 9q35 0 35 -123q0 -25 2 -81
t2 -89q0 -79 -21.5 -123.5t-82.5 -44.5q-16 0 -16 15q0 12 14 26q19 16 28 108t9 167q0 26 -2 26q-224 -282 -367 -282q-22 0 -39.5 8t-17.5 22q0 12 8 21.5t23 16t28 10.5t31 8t24 6z" />
    <glyph glyph-name="Atilde" unicode="&#xc3;" horiz-adv-x="1239" 
d="M299 485q0 82 64 144t141 65q59 77 219 295q108 147 206 294.5t148.5 230t97.5 151.5t80 96t68 27q80 0 80 -141q0 -95 -40.5 -236t-82.5 -242t-102 -233q-134 -295 -404 -801h10q188 0 400 129q15 9 43 26.5t44 27t36 21t32.5 16.5t20.5 5q10 0 10 -8q0 -13 -26 -35
t-87 -65q-251 -176 -469 -176q-31 0 -45 2q-68 -128 -118 -211q-46 -74 -82 -74q-10 0 -17.5 8.5t-7.5 20.5q0 28 27 65q63 88 82 211q-97 30 -171.5 88.5t-115.5 139.5q-59 -76 -144.5 -178t-137.5 -169.5t-89 -130.5q-22 -36 -43.5 -54.5t-36.5 -18.5q-22 0 -22 28
q0 40 55 121t171 226t173 223q6 9 19.5 27.5t19.5 27.5q-6 27 -6 57zM1114 1323h10q17 0 17 -14q0 -13 -13 -36.5t-32 -49t-43 -54t-43 -50.5t-35 -39.5t-17 -18.5q-32 -39 -86.5 -102t-130.5 -151.5t-127 -148.5q72 -63 86 -253q2 -27 2 -84q0 -89 -10 -177q12 -4 21 -4
q78 148 192 383t176 377q19 44 78 170.5t89.5 197t59.5 167t29 161.5q0 43 -13 80t-30 37q-17 1 -57 -46t-76 -109q-29 -49 -78.5 -121.5t-121.5 -173.5t-129 -179t-151.5 -206.5t-137.5 -188.5q12 0 18 -2q208 242 336 387q45 51 96 118t77 96.5t44 33.5zM399 399
q81 -175 236 -235q6 68 6 217q0 161 -70 227q-119 -141 -172 -209zM362 504q8 12 103 139q-36 -3 -69.5 -49t-33.5 -90zM518 637q-2 0 -6.5 1t-7.5 1q-38 -52 -96 -133q64 77 110 131zM1235 1956q-15 -10 -35 -29t-34 -29t-27 -10q-23 0 -23 37q0 38 45 74.5t104 57
t105 20.5q27 0 43.5 -15t23.5 -37t12 -44t15 -37t27 -15t56 42t81.5 84t67.5 42q9 0 16.5 -7t7.5 -17q0 -22 -43 -74.5t-104 -98t-103 -45.5q-34 0 -51 23t-19.5 50t-12 50t-31.5 23q-56 0 -121 -45z" />
    <glyph glyph-name="Adieresis" unicode="&#xc4;" horiz-adv-x="1239" 
d="M299 485q0 82 64 144t141 65q59 77 219 295q108 147 206 294.5t148.5 230t97.5 151.5t80 96t68 27q80 0 80 -141q0 -95 -40.5 -236t-82.5 -242t-102 -233q-134 -295 -404 -801h10q188 0 400 129q15 9 43 26.5t44 27t36 21t32.5 16.5t20.5 5q10 0 10 -8q0 -13 -26 -35
t-87 -65q-251 -176 -469 -176q-31 0 -45 2q-68 -128 -118 -211q-46 -74 -82 -74q-10 0 -17.5 8.5t-7.5 20.5q0 28 27 65q63 88 82 211q-97 30 -171.5 88.5t-115.5 139.5q-59 -76 -144.5 -178t-137.5 -169.5t-89 -130.5q-22 -36 -43.5 -54.5t-36.5 -18.5q-22 0 -22 28
q0 40 55 121t171 226t173 223q6 9 19.5 27.5t19.5 27.5q-6 27 -6 57zM1114 1323h10q17 0 17 -14q0 -13 -13 -36.5t-32 -49t-43 -54t-43 -50.5t-35 -39.5t-17 -18.5q-32 -39 -86.5 -102t-130.5 -151.5t-127 -148.5q72 -63 86 -253q2 -27 2 -84q0 -89 -10 -177q12 -4 21 -4
q78 148 192 383t176 377q19 44 78 170.5t89.5 197t59.5 167t29 161.5q0 43 -13 80t-30 37q-17 1 -57 -46t-76 -109q-29 -49 -78.5 -121.5t-121.5 -173.5t-129 -179t-151.5 -206.5t-137.5 -188.5q12 0 18 -2q208 242 336 387q45 51 96 118t77 96.5t44 33.5zM399 399
q81 -175 236 -235q6 68 6 217q0 161 -70 227q-119 -141 -172 -209zM362 504q8 12 103 139q-36 -3 -69.5 -49t-33.5 -90zM518 637q-2 0 -6.5 1t-7.5 1q-38 -52 -96 -133q64 77 110 131zM1325 1960q-1 -26 -30.5 -48t-51.5 -22q-31 0 -31 47q0 28 12.5 56t37.5 28q23 0 43 -19
t20 -42zM1403 1931q1 26 29.5 52.5t55 39.5t32.5 13q12 0 20 -7t8 -16q0 -8 -10.5 -35t-34.5 -55.5t-51 -28.5q-21 0 -35 9.5t-14 27.5z" />
    <glyph glyph-name="Aring" unicode="&#xc5;" horiz-adv-x="1239" 
d="M299 485q0 82 64 144t141 65q59 77 219 295q108 147 206 294.5t148.5 230t97.5 151.5t80 96t68 27q80 0 80 -141q0 -95 -40.5 -236t-82.5 -242t-102 -233q-134 -295 -404 -801h10q188 0 400 129q15 9 43 26.5t44 27t36 21t32.5 16.5t20.5 5q10 0 10 -8q0 -13 -26 -35
t-87 -65q-251 -176 -469 -176q-31 0 -45 2q-68 -128 -118 -211q-46 -74 -82 -74q-10 0 -17.5 8.5t-7.5 20.5q0 28 27 65q63 88 82 211q-97 30 -171.5 88.5t-115.5 139.5q-59 -76 -144.5 -178t-137.5 -169.5t-89 -130.5q-22 -36 -43.5 -54.5t-36.5 -18.5q-22 0 -22 28
q0 40 55 121t171 226t173 223q6 9 19.5 27.5t19.5 27.5q-6 27 -6 57zM1114 1323h10q17 0 17 -14q0 -13 -13 -36.5t-32 -49t-43 -54t-43 -50.5t-35 -39.5t-17 -18.5q-32 -39 -86.5 -102t-130.5 -151.5t-127 -148.5q72 -63 86 -253q2 -27 2 -84q0 -89 -10 -177q12 -4 21 -4
q78 148 192 383t176 377q19 44 78 170.5t89.5 197t59.5 167t29 161.5q0 43 -13 80t-30 37q-17 1 -57 -46t-76 -109q-29 -49 -78.5 -121.5t-121.5 -173.5t-129 -179t-151.5 -206.5t-137.5 -188.5q12 0 18 -2q208 242 336 387q45 51 96 118t77 96.5t44 33.5zM399 399
q81 -175 236 -235q6 68 6 217q0 161 -70 227q-119 -141 -172 -209zM362 504q8 12 103 139q-36 -3 -69.5 -49t-33.5 -90zM518 637q-2 0 -6.5 1t-7.5 1q-38 -52 -96 -133q64 77 110 131zM1665 2132q0 -54 -54 -112t-127.5 -94t-129.5 -36q-34 0 -69.5 17t-35.5 51q0 11 25 29
v10q0 69 84 146t172 77q68 0 101.5 -25t33.5 -63zM1391 2089q-7 -8 -25 -44.5t-33 -51.5q6 -2 27.5 -10.5t36 -12.5t26.5 -4q43 0 101.5 52.5t58.5 95.5q0 21 -13 36t-40 15q-37 0 -75.5 -20t-63.5 -56z" />
    <glyph glyph-name="AE" unicode="&#xc6;" horiz-adv-x="2037" 
d="M614 659q-137 -170 -270.5 -332.5t-190.5 -231t-106 -133t-78 -114.5q-22 -36 -43.5 -54.5t-36.5 -18.5q-22 0 -22 28q0 40 55 121t171 226t173 223q4 5 8.5 12t20 28t37 49.5t68.5 91.5t104 140q59 77 219 295q153 211 309 455q-7 4 -21 11.5t-20 11t-15.5 9.5t-13.5 11
t-7 11.5t-3 14.5q0 24 19 42t41 18q7 0 15.5 -5t14 -11t18 -19t19.5 -20q101 159 147.5 214.5t96.5 55.5q80 0 80 -141q0 -95 -37 -224h16q79 0 174 23.5t185 57.5t183 68t197.5 57.5t198.5 23.5q96 0 152.5 -26t56.5 -58q0 -54 -73.5 -120.5t-112.5 -66.5q-16 0 -16 4
q0 8 22 24t48.5 32.5t48.5 44.5t22 59t-111 31q-123 0 -262 -31q-72 -17 -219 -67t-281.5 -84.5t-246.5 -34.5q-45 -143 -170 -424q-33 -69 -39 -82q200 20 282 20q113 0 204 -8t136 -19.5t45 -23.5q0 -14 -13 -27.5t-26 -13.5q-5 0 -25.5 8t-59 15.5t-87.5 7.5
q-219 0 -485 -20q-50 -103 -262 -512q604 -189 794 -267q18 -6 33 -6q31 0 65.5 26.5t39.5 26.5q10 0 17 -21t7 -40q0 -34 -18 -62t-66 -28q-11 0 -25 4t-28.5 9.5t-19.5 6.5q-60 22 -240 89.5t-316 114t-274 85.5q-7 -16 -43 -84q-54 -106 -149 -268q-32 -48 -60 -66
q-28 -23 -58.5 -40t-45.5 -17q-27 0 -42.5 64.5t-15.5 160.5q0 70 12 130t38.5 110.5t73.5 79t110 28.5q83 0 156 -20q68 131 235 487q-95 -11 -131 -20q-62 -16 -104 -16q-60 0 -60 34q0 9 4 21q-20 -24 -62 -72.5t-61 -71.5zM1071 1421q-66 -96 -461 -641q-8 -11 -36 -48
t-54 -71.5t-54.5 -73t-47.5 -66.5t-23 -38q16 20 115 139t113 136q66 76 164 189.5t110 127.5q45 51 96 118t77 96.5t44 33.5h10q17 0 17 -14q0 -13 -13 -36.5t-32 -49t-43 -54t-43 -50.5t-35 -39.5t-17 -18.5q-15 -17 -51 -60t-74 -87t-73 -85q47 35 106 35q13 0 25 -4
q4 -2 4 -8v-8q0 -8 18 -8q68 0 142 6q6 12 15.5 34.5t10.5 24.5q8 19 90 195t113 266q-148 15 -213 59zM711 143q2 3 49 90q-112 25 -154 25q-75 0 -106 -51.5t-31 -143.5q0 -49 10.5 -132t20.5 -83q9 0 24 16.5t39 50t31 42.5q56 78 117 186zM1161 1559q-5 -8 -20.5 -32.5
t-24.5 -39.5q45 -33 101 -43q65 -16 90 -19q30 105 30 172q0 43 -13 80t-30 37q-17 1 -57 -46t-76 -109z" />
    <glyph glyph-name="Ccedilla" unicode="&#xc7;" horiz-adv-x="1159" 
d="M440 -219q2 11 15 28t34.5 44.5t36.5 56.5q-34 -6 -63 -6q-123 0 -192.5 87t-69.5 247q0 118 38.5 264.5t110.5 296.5q89 188 238 381t288 312.5t211 119.5q55 0 95.5 -46t59 -112t18.5 -139q0 -126 -43 -272.5t-101.5 -257.5t-119.5 -186.5t-97 -78.5q-27 0 -44 25
t-21.5 49.5t-4.5 44.5q0 157 107 367q53 104 125.5 201t128.5 149q-9 73 -37.5 128.5t-73.5 55.5q-50 0 -130 -59t-168.5 -155t-179 -227t-162.5 -267.5t-117.5 -284t-45.5 -268.5q0 -152 63 -224.5t171 -72.5q107 0 240 71q129 68 263.5 155t207 135t96.5 50q8 0 8 -8
q0 -13 -7 -25t-25 -26t-36.5 -27t-54 -37t-65.5 -45q-301 -224 -527 -295q-7 -12 -23 -35.5t-26 -39.5t-10 -21q0 -7 31 -9t67.5 -4.5t67.5 -24.5t31 -64q0 -41 -43.5 -93.5t-114.5 -91.5t-139 -39q-34 0 -55 10t-31.5 19.5t-18.5 9.5q-3 0 -9.5 -1t-8.5 -1q-13 0 -13 17
q2 21 29.5 53.5t54.5 32.5q15 0 22 -12t8.5 -26t11 -26t28.5 -12q53 0 126 47t73 98q0 39 -45 39q-30 0 -87 -6t-67 -6q-13 0 -21 10.5t-8 26.5zM1120 956q69 180 74 330q-56 -55 -121.5 -153.5t-120.5 -232t-55 -236.5q0 -54 8 -54q20 2 95.5 118.5t119.5 227.5z" />
    <glyph glyph-name="Egrave" unicode="&#xc8;" horiz-adv-x="1644" 
d="M958 1343q1 3 2.5 8.5t2.5 8.5q-74 -10 -187 -10q-177 0 -256 53q-28 19 -65 38t-51 30t-19 30q-2 4 -2 10q0 24 23 46t45 22q11 0 23.5 -12t27.5 -30t34 -36.5t50 -34t69 -20.5q110 -16 187 -16q82 0 153 10q29 59 56 59q20 0 20 -43q0 -1 -1 -3t-1 -3q3 1 36.5 7
t51.5 11q107 24 277.5 73.5t295.5 80.5t197 31q96 0 152.5 -26t56.5 -58q0 -54 -73.5 -120.5t-112.5 -66.5q-17 0 -17 4q0 10 35.5 31.5t71 55.5t35.5 73q0 31 -111 31q-122 0 -262 -31q-37 -8 -265.5 -78.5t-387.5 -95.5q-61 -175 -226 -508q120 10 205 10q113 0 204 -8
t136 -19.5t45 -23.5q0 -14 -13 -27.5t-26 -13.5q-5 0 -25.5 8t-59 15.5t-87.5 7.5q-4 0 -61 -2.5t-161 -9t-194 -13.5q-152 -297 -247 -448q-37 -58 -45 -72q539 -165 755 -254q18 -6 33 -6q31 0 65 26.5t39 26.5q10 0 17.5 -21t7.5 -40q0 -34 -18 -62t-66 -28q-38 0 -74 20
q-7 3 -91.5 36t-157 60.5t-173.5 64t-198.5 67.5t-175.5 51q-204 -334 -229 -372q-73 -111 -97 -111q-27 0 -42 64t-15 161q0 70 12 130t38 110.5t73 79t110 28.5q47 0 115 -10q127 212 274 491q-152 -13 -231 -32q-66 -17 -105 -17q-59 0 -59 35t45.5 58.5t87.5 23.5
q13 0 25 -4q4 -2 4 -8v-9q0 -8 18 -8q39 0 133 16t121 19q180 354 223 489zM166 -115q9 0 29.5 32.5t72.5 120.5t101 165q12 18 14 22q-77 15 -107 15q-137 0 -137 -185q0 -48 8.5 -109t18.5 -61zM1358 1712q0 -20 -39.5 -31.5t-69.5 -11.5q-60 0 -131 41q-61 33 -124 111.5
t-64 134.5q0 26 20 44.5t43 18.5q27 0 33 -37v-14q1 -32 34.5 -88.5t85.5 -103.5t95 -47q31 0 31 16q0 14 24 14q17 0 39.5 -15t22.5 -32z" />
    <glyph glyph-name="Eacute" unicode="&#xc9;" horiz-adv-x="1644" 
d="M958 1343q1 3 2.5 8.5t2.5 8.5q-74 -10 -187 -10q-177 0 -256 53q-28 19 -65 38t-51 30t-19 30q-2 4 -2 10q0 24 23 46t45 22q11 0 23.5 -12t27.5 -30t34 -36.5t50 -34t69 -20.5q110 -16 187 -16q82 0 153 10q29 59 56 59q20 0 20 -43q0 -1 -1 -3t-1 -3q3 1 36.5 7
t51.5 11q107 24 277.5 73.5t295.5 80.5t197 31q96 0 152.5 -26t56.5 -58q0 -54 -73.5 -120.5t-112.5 -66.5q-17 0 -17 4q0 10 35.5 31.5t71 55.5t35.5 73q0 31 -111 31q-122 0 -262 -31q-37 -8 -265.5 -78.5t-387.5 -95.5q-61 -175 -226 -508q120 10 205 10q113 0 204 -8
t136 -19.5t45 -23.5q0 -14 -13 -27.5t-26 -13.5q-5 0 -25.5 8t-59 15.5t-87.5 7.5q-4 0 -61 -2.5t-161 -9t-194 -13.5q-152 -297 -247 -448q-37 -58 -45 -72q539 -165 755 -254q18 -6 33 -6q31 0 65 26.5t39 26.5q10 0 17.5 -21t7.5 -40q0 -34 -18 -62t-66 -28q-38 0 -74 20
q-7 3 -91.5 36t-157 60.5t-173.5 64t-198.5 67.5t-175.5 51q-204 -334 -229 -372q-73 -111 -97 -111q-27 0 -42 64t-15 161q0 70 12 130t38 110.5t73 79t110 28.5q47 0 115 -10q127 212 274 491q-152 -13 -231 -32q-66 -17 -105 -17q-59 0 -59 35t45.5 58.5t87.5 23.5
q13 0 25 -4q4 -2 4 -8v-9q0 -8 18 -8q39 0 133 16t121 19q180 354 223 489zM166 -115q9 0 29.5 32.5t72.5 120.5t101 165q12 18 14 22q-77 15 -107 15q-137 0 -137 -185q0 -48 8.5 -109t18.5 -61zM1161 1712q-63 0 -63 25q0 21 39 50.5t57 29.5q4 0 11.5 -2.5t13 -5.5
t6.5 -3q23 10 57 26.5t94.5 50.5t117.5 82t91 97q16 24 37.5 38t36.5 14q22 0 22 -21q0 -54 -119 -148.5t-244.5 -163.5t-156.5 -69z" />
    <glyph glyph-name="Ecircumflex" unicode="&#xca;" horiz-adv-x="1644" 
d="M958 1343q1 3 2.5 8.5t2.5 8.5q-74 -10 -187 -10q-177 0 -256 53q-28 19 -65 38t-51 30t-19 30q-2 4 -2 10q0 24 23 46t45 22q11 0 23.5 -12t27.5 -30t34 -36.5t50 -34t69 -20.5q110 -16 187 -16q82 0 153 10q29 59 56 59q20 0 20 -43q0 -1 -1 -3t-1 -3q3 1 36.5 7
t51.5 11q107 24 277.5 73.5t295.5 80.5t197 31q96 0 152.5 -26t56.5 -58q0 -54 -73.5 -120.5t-112.5 -66.5q-17 0 -17 4q0 10 35.5 31.5t71 55.5t35.5 73q0 31 -111 31q-122 0 -262 -31q-37 -8 -265.5 -78.5t-387.5 -95.5q-61 -175 -226 -508q120 10 205 10q113 0 204 -8
t136 -19.5t45 -23.5q0 -14 -13 -27.5t-26 -13.5q-5 0 -25.5 8t-59 15.5t-87.5 7.5q-4 0 -61 -2.5t-161 -9t-194 -13.5q-152 -297 -247 -448q-37 -58 -45 -72q539 -165 755 -254q18 -6 33 -6q31 0 65 26.5t39 26.5q10 0 17.5 -21t7.5 -40q0 -34 -18 -62t-66 -28q-38 0 -74 20
q-7 3 -91.5 36t-157 60.5t-173.5 64t-198.5 67.5t-175.5 51q-204 -334 -229 -372q-73 -111 -97 -111q-27 0 -42 64t-15 161q0 70 12 130t38 110.5t73 79t110 28.5q47 0 115 -10q127 212 274 491q-152 -13 -231 -32q-66 -17 -105 -17q-59 0 -59 35t45.5 58.5t87.5 23.5
q13 0 25 -4q4 -2 4 -8v-9q0 -8 18 -8q39 0 133 16t121 19q180 354 223 489zM166 -115q9 0 29.5 32.5t72.5 120.5t101 165q12 18 14 22q-77 15 -107 15q-137 0 -137 -185q0 -48 8.5 -109t18.5 -61zM1257 1794q68 22 146 90t127 137q11 16 22 40t19.5 33t27.5 9q35 0 35 -123
q0 -25 2 -81t2 -89q0 -79 -21.5 -123.5t-82.5 -44.5q-16 0 -16 15q0 12 14 26q19 16 28 108t9 167q0 27 -2 27q-225 -283 -367 -283q-22 0 -39.5 8.5t-17.5 22.5q0 15 14.5 26.5t29 16t40 10.5t30.5 8z" />
    <glyph glyph-name="Edieresis" unicode="&#xcb;" horiz-adv-x="1644" 
d="M958 1343q1 3 2.5 8.5t2.5 8.5q-74 -10 -187 -10q-177 0 -256 53q-28 19 -65 38t-51 30t-19 30q-2 4 -2 10q0 24 23 46t45 22q11 0 23.5 -12t27.5 -30t34 -36.5t50 -34t69 -20.5q110 -16 187 -16q82 0 153 10q29 59 56 59q20 0 20 -43q0 -1 -1 -3t-1 -3q3 1 36.5 7
t51.5 11q107 24 277.5 73.5t295.5 80.5t197 31q96 0 152.5 -26t56.5 -58q0 -54 -73.5 -120.5t-112.5 -66.5q-17 0 -17 4q0 10 35.5 31.5t71 55.5t35.5 73q0 31 -111 31q-122 0 -262 -31q-37 -8 -265.5 -78.5t-387.5 -95.5q-61 -175 -226 -508q120 10 205 10q113 0 204 -8
t136 -19.5t45 -23.5q0 -14 -13 -27.5t-26 -13.5q-5 0 -25.5 8t-59 15.5t-87.5 7.5q-4 0 -61 -2.5t-161 -9t-194 -13.5q-152 -297 -247 -448q-37 -58 -45 -72q539 -165 755 -254q18 -6 33 -6q31 0 65 26.5t39 26.5q10 0 17.5 -21t7.5 -40q0 -34 -18 -62t-66 -28q-38 0 -74 20
q-7 3 -91.5 36t-157 60.5t-173.5 64t-198.5 67.5t-175.5 51q-204 -334 -229 -372q-73 -111 -97 -111q-27 0 -42 64t-15 161q0 70 12 130t38 110.5t73 79t110 28.5q47 0 115 -10q127 212 274 491q-152 -13 -231 -32q-66 -17 -105 -17q-59 0 -59 35t45.5 58.5t87.5 23.5
q13 0 25 -4q4 -2 4 -8v-9q0 -8 18 -8q39 0 133 16t121 19q180 354 223 489zM166 -115q9 0 29.5 32.5t72.5 120.5t101 165q12 18 14 22q-77 15 -107 15q-137 0 -137 -185q0 -48 8.5 -109t18.5 -61zM1260 1759q-1 -26 -30.5 -47.5t-51.5 -21.5q-31 0 -31 47q0 29 12 56.5
t37 27.5q23 0 43.5 -19.5t20.5 -42.5zM1337 1731q1 26 29.5 52t55 39t32.5 13q12 0 20.5 -7t8.5 -16q0 -19 -29 -68.5t-68 -49.5q-21 0 -35 9.5t-14 27.5z" />
    <glyph glyph-name="Igrave" unicode="&#xcc;" horiz-adv-x="1355" 
d="M967 756q4 -20 4 -27q0 -33 -19 -33q-7 0 -20 13q-2 2 -22 18.5t-26.5 24t-22 33.5t-22 54.5t-12.5 79.5t-6 115q0 85 10.5 201t10.5 160v39q0 82 43 82q17 0 34.5 -14.5t26.5 -37.5q14 -36 19.5 -49.5t21.5 -51t26 -56t29 -51.5t34.5 -51t39 -41.5t46 -35.5t51 -21
t59.5 -9q20 0 59 8.5t72 23.5q20 22 72.5 85.5t80.5 91.5q154 158 261 234.5t155 76.5q31 0 31 -27q0 -46 -81 -154.5t-161 -174.5q-190 -153 -358 -203q-53 -64 -121.5 -165t-119.5 -183t-181 -293q-136 -220 -242 -400q233 42 465 175q45 26 119 73t116 70.5t60 23.5
q10 0 10 -8q0 -25 -70.5 -77.5t-211.5 -124.5q-104 -54 -184 -87t-131 -48.5t-162 -45.5q-8 -2 -23 -5t-22 -5q-81 -143 -91 -162q-138 -247 -161 -291q-9 -148 -59 -288t-128 -230q-59 -67 -96 -67q-18 0 -18 24q0 91 124 344q19 40 58.5 117t60.5 119q2 14 2 41
q0 123 -29 217t-114 180q-117 17 -190.5 49t-73.5 80q0 17 16.5 26t38.5 9q17 0 34 -4.5t42 -14.5t39 -14q72 -38 114 -78q129 -18 232 -18q88 0 153 8q64 109 265 432q24 38 123 199q134 228 276 403q-41 -6 -76 -6q-65 0 -122 30t-93 73t-63 85.5t-42.5 72.5t-19.5 30
q-14 0 -14 -186q0 -120 8 -183q5 -50 19 -90.5t29 -69.5t18 -40zM471 -328q34 70 152 275q-66 -4 -101 -4q-79 0 -184 10q98 -127 113 -320q3 6 10 19.5t10 19.5zM1616 1270q-52 -42 -84 -74q182 93 182 133q0 6 -4 10q-8 0 -39 -23.5t-55 -45.5zM315 -856q2 0 11.5 26
t24 77t24.5 104q-25 -54 -37 -88q-25 -67 -25 -103q0 -10 2 -16zM72 78q0 -25 100 -45l-49 37q-26 16 -39 16q-12 0 -12 -8zM1524 1712q0 -20 -39.5 -31.5t-69.5 -11.5q-60 0 -131 41q-61 33 -124 111.5t-64 134.5q0 26 20 44.5t43 18.5q27 0 33 -37v-14q1 -32 34.5 -88.5
t85.5 -103.5t95 -47q31 0 31 16q0 14 24 14q17 0 39.5 -15t22.5 -32z" />
    <glyph glyph-name="Iacute" unicode="&#xcd;" horiz-adv-x="1355" 
d="M967 756q4 -20 4 -27q0 -33 -19 -33q-7 0 -20 13q-2 2 -22 18.5t-26.5 24t-22 33.5t-22 54.5t-12.5 79.5t-6 115q0 85 10.5 201t10.5 160v39q0 82 43 82q17 0 34.5 -14.5t26.5 -37.5q14 -36 19.5 -49.5t21.5 -51t26 -56t29 -51.5t34.5 -51t39 -41.5t46 -35.5t51 -21
t59.5 -9q20 0 59 8.5t72 23.5q20 22 72.5 85.5t80.5 91.5q154 158 261 234.5t155 76.5q31 0 31 -27q0 -46 -81 -154.5t-161 -174.5q-190 -153 -358 -203q-53 -64 -121.5 -165t-119.5 -183t-181 -293q-136 -220 -242 -400q233 42 465 175q45 26 119 73t116 70.5t60 23.5
q10 0 10 -8q0 -25 -70.5 -77.5t-211.5 -124.5q-104 -54 -184 -87t-131 -48.5t-162 -45.5q-8 -2 -23 -5t-22 -5q-81 -143 -91 -162q-138 -247 -161 -291q-9 -148 -59 -288t-128 -230q-59 -67 -96 -67q-18 0 -18 24q0 91 124 344q19 40 58.5 117t60.5 119q2 14 2 41
q0 123 -29 217t-114 180q-117 17 -190.5 49t-73.5 80q0 17 16.5 26t38.5 9q17 0 34 -4.5t42 -14.5t39 -14q72 -38 114 -78q129 -18 232 -18q88 0 153 8q64 109 265 432q24 38 123 199q134 228 276 403q-41 -6 -76 -6q-65 0 -122 30t-93 73t-63 85.5t-42.5 72.5t-19.5 30
q-14 0 -14 -186q0 -120 8 -183q5 -50 19 -90.5t29 -69.5t18 -40zM471 -328q34 70 152 275q-66 -4 -101 -4q-79 0 -184 10q98 -127 113 -320q3 6 10 19.5t10 19.5zM1616 1270q-52 -42 -84 -74q182 93 182 133q0 6 -4 10q-8 0 -39 -23.5t-55 -45.5zM315 -856q2 0 11.5 26
t24 77t24.5 104q-25 -54 -37 -88q-25 -67 -25 -103q0 -10 2 -16zM72 78q0 -25 100 -45l-49 37q-26 16 -39 16q-12 0 -12 -8zM1526 1712q-64 0 -64 25q0 21 39.5 50.5t57.5 29.5q6 0 18 -5l12 -6q24 10 57.5 26.5t94.5 50.5t118 82t91 97q16 24 37 38t36 14q23 0 23 -21
q0 -54 -119 -148.5t-244.5 -163.5t-156.5 -69z" />
    <glyph glyph-name="Icircumflex" unicode="&#xce;" horiz-adv-x="1355" 
d="M967 756q4 -20 4 -27q0 -33 -19 -33q-7 0 -20 13q-2 2 -22 18.5t-26.5 24t-22 33.5t-22 54.5t-12.5 79.5t-6 115q0 85 10.5 201t10.5 160v39q0 82 43 82q17 0 34.5 -14.5t26.5 -37.5q14 -36 19.5 -49.5t21.5 -51t26 -56t29 -51.5t34.5 -51t39 -41.5t46 -35.5t51 -21
t59.5 -9q20 0 59 8.5t72 23.5q20 22 72.5 85.5t80.5 91.5q154 158 261 234.5t155 76.5q31 0 31 -27q0 -46 -81 -154.5t-161 -174.5q-190 -153 -358 -203q-53 -64 -121.5 -165t-119.5 -183t-181 -293q-136 -220 -242 -400q233 42 465 175q45 26 119 73t116 70.5t60 23.5
q10 0 10 -8q0 -25 -70.5 -77.5t-211.5 -124.5q-104 -54 -184 -87t-131 -48.5t-162 -45.5q-8 -2 -23 -5t-22 -5q-81 -143 -91 -162q-138 -247 -161 -291q-9 -148 -59 -288t-128 -230q-59 -67 -96 -67q-18 0 -18 24q0 91 124 344q19 40 58.5 117t60.5 119q2 14 2 41
q0 123 -29 217t-114 180q-117 17 -190.5 49t-73.5 80q0 17 16.5 26t38.5 9q17 0 34 -4.5t42 -14.5t39 -14q72 -38 114 -78q129 -18 232 -18q88 0 153 8q64 109 265 432q24 38 123 199q134 228 276 403q-41 -6 -76 -6q-65 0 -122 30t-93 73t-63 85.5t-42.5 72.5t-19.5 30
q-14 0 -14 -186q0 -120 8 -183q5 -50 19 -90.5t29 -69.5t18 -40zM471 -328q34 70 152 275q-66 -4 -101 -4q-79 0 -184 10q98 -127 113 -320q3 6 10 19.5t10 19.5zM1616 1270q-52 -42 -84 -74q182 93 182 133q0 6 -4 10q-8 0 -39 -23.5t-55 -45.5zM315 -856q2 0 11.5 26
t24 77t24.5 104q-25 -54 -37 -88q-25 -67 -25 -103q0 -10 2 -16zM72 78q0 -25 100 -45l-49 37q-26 16 -39 16q-12 0 -12 -8zM1350 1794q67 22 145 90t127 137q11 16 22 40t20 33t28 9q34 0 34 -123q0 -25 2.5 -81t2.5 -89q0 -50 -7 -84t-31 -59t-67 -25q-16 0 -16 15
q0 12 14 26q19 16 28 108t9 167q0 27 -2 27q-225 -283 -367 -283q-22 0 -39.5 8.5t-17.5 22.5q0 15 14.5 26.5t29.5 16.5t40.5 10.5t30.5 7.5z" />
    <glyph glyph-name="Idieresis" unicode="&#xcf;" horiz-adv-x="1355" 
d="M967 756q4 -20 4 -27q0 -33 -19 -33q-7 0 -20 13q-2 2 -22 18.5t-26.5 24t-22 33.5t-22 54.5t-12.5 79.5t-6 115q0 85 10.5 201t10.5 160v39q0 82 43 82q17 0 34.5 -14.5t26.5 -37.5q14 -36 19.5 -49.5t21.5 -51t26 -56t29 -51.5t34.5 -51t39 -41.5t46 -35.5t51 -21
t59.5 -9q20 0 59 8.5t72 23.5q20 22 72.5 85.5t80.5 91.5q154 158 261 234.5t155 76.5q31 0 31 -27q0 -46 -81 -154.5t-161 -174.5q-190 -153 -358 -203q-53 -64 -121.5 -165t-119.5 -183t-181 -293q-136 -220 -242 -400q233 42 465 175q45 26 119 73t116 70.5t60 23.5
q10 0 10 -8q0 -25 -70.5 -77.5t-211.5 -124.5q-104 -54 -184 -87t-131 -48.5t-162 -45.5q-8 -2 -23 -5t-22 -5q-81 -143 -91 -162q-138 -247 -161 -291q-9 -148 -59 -288t-128 -230q-59 -67 -96 -67q-18 0 -18 24q0 91 124 344q19 40 58.5 117t60.5 119q2 14 2 41
q0 123 -29 217t-114 180q-117 17 -190.5 49t-73.5 80q0 17 16.5 26t38.5 9q17 0 34 -4.5t42 -14.5t39 -14q72 -38 114 -78q129 -18 232 -18q88 0 153 8q64 109 265 432q24 38 123 199q134 228 276 403q-41 -6 -76 -6q-65 0 -122 30t-93 73t-63 85.5t-42.5 72.5t-19.5 30
q-14 0 -14 -186q0 -120 8 -183q5 -50 19 -90.5t29 -69.5t18 -40zM471 -328q34 70 152 275q-66 -4 -101 -4q-79 0 -184 10q98 -127 113 -320q3 6 10 19.5t10 19.5zM1616 1270q-52 -42 -84 -74q182 93 182 133q0 6 -4 10q-8 0 -39 -23.5t-55 -45.5zM315 -856q2 0 11.5 26
t24 77t24.5 104q-25 -54 -37 -88q-25 -67 -25 -103q0 -10 2 -16zM72 78q0 -25 100 -45l-49 37q-26 16 -39 16q-12 0 -12 -8zM1470 1759q-1 -26 -30 -47.5t-51 -21.5q-31 0 -31 47q0 29 12 56.5t37 27.5q23 0 43 -19.5t20 -42.5zM1548 1731q1 26 29.5 52t55 39t32.5 13
q12 0 20.5 -7t8.5 -16q0 -19 -29 -68.5t-68 -49.5q-21 0 -35 9.5t-14 27.5z" />
    <glyph glyph-name="Eth" unicode="&#xd0;" horiz-adv-x="1554" 
d="M186 539q0 22 131 22q26 0 79.5 -1t76.5 -1q39 0 55 2q88 201 199 471q34 83 80 138t84 55q39 0 58.5 -28.5t19.5 -63.5q0 -44 -26.5 -98t-57.5 -89t-47 -35q0 5 14 25q61 100 61 164q0 41 -14 41q-20 0 -57.5 -53t-67.5 -134q-74 -193 -151 -374q246 69 292 75
q40 4 50 4q34 0 34 -16q0 -4 -29 -39.5t-75.5 -73.5t-83.5 -38q-8 0 -8 8q0 6 8 24.5t8 24.5q0 10 -10 10q-9 0 -27 -6q-76 -25 -190 -47q-8 -20 -154 -356q119 -48 213 -73.5t191 -25.5q140 71 248.5 193t166.5 267t58 288q0 157 -67.5 293.5t-180.5 229t-262 145.5
t-311 53q-51 0 -105 -15.5t-96.5 -50.5t-42.5 -82q0 -35 23 -71.5t55 -63.5q37 -32 37 -43q0 -4 -9 -4q-57 0 -121.5 70.5t-64.5 142.5q0 59 50 103t116 63.5t133 19.5q132 0 266 -37.5t251.5 -108.5t209 -164.5t144.5 -215t53 -250.5q0 -213 -116 -413.5t-308 -333.5
q136 30 302 100t288 145q56 35 73 35q15 0 15 -12q0 -14 -13.5 -35t-36.5 -37q-145 -100 -355.5 -177.5t-385.5 -84.5q-202 -102 -410 -102q-56 0 -108 12q-36 -96 -37 -98q-18 -48 -44 -77.5t-46 -29.5q-18 0 -18 29q0 28 20 78l49 122q-100 43 -170 134q-29 39 -29 77
q0 41 31 69t82 28q34 0 86 -19q29 -11 103 -43q21 52 66.5 156t66.5 156q-127 -19 -195 -19q-63 0 -87.5 16.5t-29.5 49.5zM414 92q-24 -58 -45 -108q66 -17 129 -17q119 0 229 35q-125 15 -313 90zM291 6l49 117q-19 7 -56.5 20.5t-56.5 20.5q-38 12 -59 12q-35 0 -35 -24
q0 -35 44 -76t114 -70z" />
    <glyph glyph-name="Ntilde" unicode="&#xd1;" horiz-adv-x="1464" 
d="M219 45q-151 -129 -264 -129q-26 0 -46 9.5t-22 21.5q0 10 18.5 18.5t56.5 21.5t84 33.5t112 64.5t131 105q229 216 453.5 518.5t293.5 520.5q59 190 121 190q70 0 70 -63q0 -105 -205 -381q-54 -294 -116 -681.5t-62 -463.5q82 153 171 331.5t147 300.5t63 132
q73 150 115.5 234t130 246.5t151.5 265t165 250.5t188 242.5t203 202t226 168.5t242 102.5t266 41.5q34 0 103 -11t157.5 -33.5t152.5 -68.5t64 -106q0 -37 -39.5 -66t-91 -43t-98.5 -14q-68 0 -68 18q0 5 4 10t11.5 11t14 10.5t16 10.5t12.5 8q10 6 50.5 9.5t71.5 12.5
t31 31q0 39 -47.5 67t-120 41.5t-135.5 19t-118 5.5q-526 0 -994 -628q-236 -318 -509 -879q-45 -93 -128 -270l-22 -46q-61 -130 -148.5 -299t-143 -277.5t-67.5 -148.5q-35 -114 -67 -114q-19 0 -31 36t-12 95q0 26 2 36q75 565 166 1094q-15 -15 -13 -14
q-127 -198 -336.5 -434.5t-359.5 -364.5zM1311 1731q-15 -10 -35.5 -29t-34.5 -29t-27 -10q-22 0 -22 37q0 38 45 74.5t104 56.5t105 20q27 0 43.5 -15t23.5 -36.5t12 -43.5t15 -37t27 -15t56 42t81.5 84t67.5 42q9 0 16.5 -7.5t7.5 -17.5q0 -22 -43 -74t-104 -97.5
t-103 -45.5q-34 0 -51 23t-19.5 50t-12 50t-31.5 23q-56 0 -121 -45z" />
    <glyph glyph-name="Ograve" unicode="&#xd2;" 
d="M784 1169q-121 -113 -168 -188q-16 -25 -36 -71.5t-33 -78.5t-15 -32q-8 8 -8 26q0 39 40.5 109t89 131t89 113t41.5 59q0 8 -8 8q-16 0 -35 -16q-55 -58 -105 -135.5t-75 -125.5t-74 -147q-149 -301 -149 -522q0 -86 20.5 -154.5t66.5 -112.5t112 -44q68 0 155.5 34.5
t167.5 87.5t147 107.5t111 101.5q508 546 508 1119q0 64 -9 108t-36.5 74.5t-73.5 30.5q-66 0 -141 -39t-140.5 -97.5t-129.5 -133t-109 -139t-78 -122.5q-90 -153 -160.5 -343.5t-93.5 -368.5q-4 -34 -5 -116.5t-7 -139.5t-22 -70q-33 62 -33 184q0 212 67 418t195 446
q32 60 81 132.5t121.5 158.5t148.5 154.5t166 115t171 46.5q172 0 172 -246q0 -314 -146.5 -629t-398.5 -579q-72 -75 -178.5 -153.5t-242.5 -141t-240 -62.5q-102 0 -174 75t-72 224q0 253 170 598q35 72 77.5 148t96 161t105.5 139t88 54q18 0 36.5 -10t18.5 -27
q0 -20 -19.5 -58t-46.5 -61zM1628 1874q0 -20 -39 -31.5t-69 -11.5q-60 0 -131 41q-61 33 -124.5 111.5t-64.5 134.5q0 26 20.5 44.5t43.5 18.5q26 0 32 -37v-14q1 -32 34.5 -89t85.5 -104t95 -47q31 0 31 17q0 14 25 14q17 0 39 -15t22 -32z" />
    <glyph glyph-name="Oacute" unicode="&#xd3;" 
d="M784 1169q-121 -113 -168 -188q-16 -25 -36 -71.5t-33 -78.5t-15 -32q-8 8 -8 26q0 39 40.5 109t89 131t89 113t41.5 59q0 8 -8 8q-16 0 -35 -16q-55 -58 -105 -135.5t-75 -125.5t-74 -147q-149 -301 -149 -522q0 -86 20.5 -154.5t66.5 -112.5t112 -44q68 0 155.5 34.5
t167.5 87.5t147 107.5t111 101.5q508 546 508 1119q0 64 -9 108t-36.5 74.5t-73.5 30.5q-66 0 -141 -39t-140.5 -97.5t-129.5 -133t-109 -139t-78 -122.5q-90 -153 -160.5 -343.5t-93.5 -368.5q-4 -34 -5 -116.5t-7 -139.5t-22 -70q-33 62 -33 184q0 212 67 418t195 446
q32 60 81 132.5t121.5 158.5t148.5 154.5t166 115t171 46.5q172 0 172 -246q0 -314 -146.5 -629t-398.5 -579q-72 -75 -178.5 -153.5t-242.5 -141t-240 -62.5q-102 0 -174 75t-72 224q0 253 170 598q35 72 77.5 148t96 161t105.5 139t88 54q18 0 36.5 -10t18.5 -27
q0 -20 -19.5 -58t-46.5 -61zM1368 1829q-63 0 -63 24q0 21 39 50.5t57 29.5q6 0 19 -5l12 -5q23 10 57 26.5t94.5 50.5t117.5 82t91 97q16 24 37.5 37.5t36.5 13.5q22 0 22 -20q0 -54 -119 -148.5t-244.5 -163.5t-156.5 -69z" />
    <glyph glyph-name="Ocircumflex" unicode="&#xd4;" 
d="M784 1169q-121 -113 -168 -188q-16 -25 -36 -71.5t-33 -78.5t-15 -32q-8 8 -8 26q0 39 40.5 109t89 131t89 113t41.5 59q0 8 -8 8q-16 0 -35 -16q-55 -58 -105 -135.5t-75 -125.5t-74 -147q-149 -301 -149 -522q0 -86 20.5 -154.5t66.5 -112.5t112 -44q68 0 155.5 34.5
t167.5 87.5t147 107.5t111 101.5q508 546 508 1119q0 64 -9 108t-36.5 74.5t-73.5 30.5q-66 0 -141 -39t-140.5 -97.5t-129.5 -133t-109 -139t-78 -122.5q-90 -153 -160.5 -343.5t-93.5 -368.5q-4 -34 -5 -116.5t-7 -139.5t-22 -70q-33 62 -33 184q0 212 67 418t195 446
q32 60 81 132.5t121.5 158.5t148.5 154.5t166 115t171 46.5q172 0 172 -246q0 -314 -146.5 -629t-398.5 -579q-72 -75 -178.5 -153.5t-242.5 -141t-240 -62.5q-102 0 -174 75t-72 224q0 253 170 598q35 72 77.5 148t96 161t105.5 139t88 54q18 0 36.5 -10t18.5 -27
q0 -20 -19.5 -58t-46.5 -61zM1419 1939q67 22 145.5 90t127.5 138q11 16 22 40t19.5 33t27.5 9q35 0 35 -123q0 -25 2 -81t2 -89q0 -79 -21.5 -123.5t-82.5 -44.5q-17 0 -17 14q0 12 15 27q19 16 28 107.5t9 166.5q0 27 -2 27q-225 -283 -367 -283q-22 0 -39.5 8.5
t-17.5 22.5q0 15 14.5 26.5t29 16t40 10.5t30.5 8z" />
    <glyph glyph-name="Otilde" unicode="&#xd5;" 
d="M784 1169q-121 -113 -168 -188q-16 -25 -36 -71.5t-33 -78.5t-15 -32q-8 8 -8 26q0 39 40.5 109t89 131t89 113t41.5 59q0 8 -8 8q-16 0 -35 -16q-55 -58 -105 -135.5t-75 -125.5t-74 -147q-149 -301 -149 -522q0 -86 20.5 -154.5t66.5 -112.5t112 -44q68 0 155.5 34.5
t167.5 87.5t147 107.5t111 101.5q508 546 508 1119q0 64 -9 108t-36.5 74.5t-73.5 30.5q-66 0 -141 -39t-140.5 -97.5t-129.5 -133t-109 -139t-78 -122.5q-90 -153 -160.5 -343.5t-93.5 -368.5q-4 -34 -5 -116.5t-7 -139.5t-22 -70q-33 62 -33 184q0 212 67 418t195 446
q32 60 81 132.5t121.5 158.5t148.5 154.5t166 115t171 46.5q172 0 172 -246q0 -314 -146.5 -629t-398.5 -579q-72 -75 -178.5 -153.5t-242.5 -141t-240 -62.5q-102 0 -174 75t-72 224q0 253 170 598q35 72 77.5 148t96 161t105.5 139t88 54q18 0 36.5 -10t18.5 -27
q0 -20 -19.5 -58t-46.5 -61zM1403 1933q-14 -10 -34.5 -29t-34.5 -28.5t-27 -9.5q-23 0 -23 37q0 38 45 74.5t104 56.5t105 20q27 0 43.5 -15t23.5 -37t12 -43.5t15 -36.5t27 -15t56 42t81.5 84t67.5 42q9 0 16.5 -7.5t7.5 -17.5q0 -22 -43 -74t-104 -97.5t-103 -45.5
q-34 0 -51 22.5t-19.5 50t-12 50t-31.5 22.5q-56 0 -121 -45z" />
    <glyph glyph-name="Odieresis" unicode="&#xd6;" 
d="M784 1169q-121 -113 -168 -188q-16 -25 -36 -71.5t-33 -78.5t-15 -32q-8 8 -8 26q0 39 40.5 109t89 131t89 113t41.5 59q0 8 -8 8q-16 0 -35 -16q-55 -58 -105 -135.5t-75 -125.5t-74 -147q-149 -301 -149 -522q0 -86 20.5 -154.5t66.5 -112.5t112 -44q68 0 155.5 34.5
t167.5 87.5t147 107.5t111 101.5q508 546 508 1119q0 64 -9 108t-36.5 74.5t-73.5 30.5q-66 0 -141 -39t-140.5 -97.5t-129.5 -133t-109 -139t-78 -122.5q-90 -153 -160.5 -343.5t-93.5 -368.5q-4 -34 -5 -116.5t-7 -139.5t-22 -70q-33 62 -33 184q0 212 67 418t195 446
q32 60 81 132.5t121.5 158.5t148.5 154.5t166 115t171 46.5q172 0 172 -246q0 -314 -146.5 -629t-398.5 -579q-72 -75 -178.5 -153.5t-242.5 -141t-240 -62.5q-102 0 -174 75t-72 224q0 253 170 598q35 72 77.5 148t96 161t105.5 139t88 54q18 0 36.5 -10t18.5 -27
q0 -20 -19.5 -58t-46.5 -61zM1499 1905q-1 -26 -30.5 -48t-51.5 -22q-31 0 -31 47q0 28 12.5 56t37.5 28q23 0 43 -19t20 -42zM1577 1876q1 26 29.5 52t55 39t32.5 13q12 0 20 -6.5t8 -15.5q0 -8 -10.5 -35t-34.5 -55.5t-51 -28.5q-21 0 -35 9.5t-14 27.5z" />
    <glyph glyph-name="multiply" unicode="&#xd7;" horiz-adv-x="827" 
d="M840 688q-7 0 -20.5 18.5t-28.5 18.5q-32 0 -120.5 -78.5t-230.5 -220.5q2 -3 6.5 -8t6.5 -8q57 -88 85.5 -173t28.5 -149q0 -35 -12 -50t-39 -15q-31 0 -42 13.5t-12.5 44t-2 69t-17.5 100.5t-53 125q-202 -205 -272 -262q-91 -74 -119 -74q-8 0 -18.5 10t-10.5 19
q0 26 105 116q46 37 278 254q-9 13 -28.5 37.5t-28.5 36.5q-74 89 -74 162q0 33 13 72.5t36 39.5q14 0 23.5 -11t20 -32t20.5 -32q10 -12 31.5 -27t35 -27t13.5 -22q0 -2 -6 -2q-25 0 -41 16q-31 35 -48 35q-8 0 -14 -6q0 -56 96 -195q204 197 289 271q71 63 111 63
q24 0 38 -19.5t16.5 -33.5t2.5 -21q0 -18 -6.5 -36.5t-11.5 -18.5z" />
    <glyph glyph-name="Oslash" unicode="&#xd8;" 
d="M784 1169q-121 -113 -168 -188q-16 -25 -36 -71.5t-33 -78.5t-15 -32q-8 8 -8 26q0 39 40.5 109t89 131t89 113t41.5 59q0 8 -8 8q-16 0 -35 -16q-55 -58 -105 -135.5t-75 -125.5t-74 -147q-149 -301 -149 -522q0 -203 98 -279q104 156 152 234v12q0 212 67 418t195 446
q32 60 81 132.5t121.5 158.5t148.5 154.5t166 115t171 46.5q48 0 90 -27q130 127 180 127q20 0 31.5 -11t11.5 -30q0 -12 -8.5 -23t-19.5 -18t-35 -21.5t-41 -25.5q-34 -21 -70 -51q33 -62 33 -166q0 -314 -146.5 -629t-398.5 -579q-72 -75 -178.5 -153.5t-242.5 -141
t-240 -62.5q-17 0 -45 4q-8 -14 -25 -41.5t-24 -40.5q-87 -133 -134 -133q-20 0 -20 27q0 32 15 62t73 96q23 26 43 55q-129 71 -129 270q0 253 170 598q35 72 77.5 148t96 161t105.5 139t88 54q18 0 36.5 -10t18.5 -27q0 -20 -19.5 -58t-46.5 -61zM596 158
q-22 -35 -60 -100t-38 -66q24 -4 39 -4q68 0 155.5 34.5t167.5 87.5t147 107.5t111 101.5q508 546 508 1119q0 93 -22 147q-180 -186 -461 -563q-72 -97 -169 -246.5t-158 -249.5t-169 -280q-4 -146 -26 -164q-19 31 -25 76zM1098 1059q254 353 461 579q-23 13 -52 13
q-66 0 -141 -39t-140.5 -97.5t-129.5 -133t-109 -139t-78 -122.5q-90 -153 -160.5 -343.5t-93.5 -368.5q-4 -28 -4 -52q8 13 71 116.5t80.5 132.5t70.5 114t81.5 128.5t69 104t74.5 107.5z" />
    <glyph glyph-name="Ugrave" unicode="&#xd9;" horiz-adv-x="1439" 
d="M854 1180q-7 -24 -18.5 -35.5t-22.5 -11.5q-10 0 -10 12q0 25 17.5 89.5t17.5 92.5q0 55 -21 55q-27 0 -117 -182q-340 -695 -407 -932q-35 -119 -35 -166q0 -39 29 -39q48 0 295.5 156.5t488.5 347.5q145 301 338 615q139 223 352 489t250 266q47 0 47 -57
q-1 -78 -61 -223t-115 -250q-173 -324 -442 -588q-126 -123 -281 -248q-96 -202 -158.5 -363t-62.5 -218q0 -17 12 -17t47 23q27 20 61 48.5t50.5 40t26.5 11.5q3 0 8.5 -4.5t5.5 -7.5q0 -8 -16 -22t-53 -47.5t-72 -71.5q-83 -90 -138 -90q-32 0 -32 41q0 68 38 203t123 317
q4 8 11.5 24.5t11.5 24.5q-350 -270 -612 -428q-118 -72 -174 -72q-68 0 -68 94q0 62 27 164q43 169 192.5 484t300.5 602q94 182 148 182q23 0 40 -34.5t17 -72.5q0 -77 -39 -202zM1268 793q-55 -107 -56 -109q5 4 66 57q293 265 545 686q58 99 103.5 197.5t45.5 140.5
q0 25 -18 25q-10 0 -39 -24.5t-83.5 -88.5t-115.5 -153q-293 -426 -448 -731zM1434 1712q0 -20 -39.5 -31.5t-69.5 -11.5q-60 0 -131 41q-61 33 -124 111.5t-64 134.5q0 26 20 44.5t43 18.5q27 0 33 -37v-14q1 -32 34.5 -88.5t85.5 -103.5t95 -47q31 0 31 16q0 14 24 14
q17 0 39.5 -15t22.5 -32z" />
    <glyph glyph-name="Uacute" unicode="&#xda;" horiz-adv-x="1439" 
d="M854 1180q-7 -24 -18.5 -35.5t-22.5 -11.5q-10 0 -10 12q0 25 17.5 89.5t17.5 92.5q0 55 -21 55q-27 0 -117 -182q-340 -695 -407 -932q-35 -119 -35 -166q0 -39 29 -39q48 0 295.5 156.5t488.5 347.5q145 301 338 615q139 223 352 489t250 266q47 0 47 -57
q-1 -78 -61 -223t-115 -250q-173 -324 -442 -588q-126 -123 -281 -248q-96 -202 -158.5 -363t-62.5 -218q0 -17 12 -17t47 23q27 20 61 48.5t50.5 40t26.5 11.5q3 0 8.5 -4.5t5.5 -7.5q0 -8 -16 -22t-53 -47.5t-72 -71.5q-83 -90 -138 -90q-32 0 -32 41q0 68 38 203t123 317
q4 8 11.5 24.5t11.5 24.5q-350 -270 -612 -428q-118 -72 -174 -72q-68 0 -68 94q0 62 27 164q43 169 192.5 484t300.5 602q94 182 148 182q23 0 40 -34.5t17 -72.5q0 -77 -39 -202zM1268 793q-55 -107 -56 -109q5 4 66 57q293 265 545 686q58 99 103.5 197.5t45.5 140.5
q0 25 -18 25q-10 0 -39 -24.5t-83.5 -88.5t-115.5 -153q-293 -426 -448 -731zM1284 1712q-63 0 -63 25q0 21 39 50.5t57 29.5q4 0 11.5 -2.5t13 -5.5t6.5 -3q23 10 57 26.5t94.5 50.5t117.5 82t91 97q16 24 37.5 38t36.5 14q22 0 22 -21q0 -54 -119 -148.5t-244.5 -163.5
t-156.5 -69z" />
    <glyph glyph-name="Ucircumflex" unicode="&#xdb;" horiz-adv-x="1439" 
d="M854 1180q-7 -24 -18.5 -35.5t-22.5 -11.5q-10 0 -10 12q0 25 17.5 89.5t17.5 92.5q0 55 -21 55q-27 0 -117 -182q-340 -695 -407 -932q-35 -119 -35 -166q0 -39 29 -39q48 0 295.5 156.5t488.5 347.5q145 301 338 615q139 223 352 489t250 266q47 0 47 -57
q-1 -78 -61 -223t-115 -250q-173 -324 -442 -588q-126 -123 -281 -248q-96 -202 -158.5 -363t-62.5 -218q0 -17 12 -17t47 23q27 20 61 48.5t50.5 40t26.5 11.5q3 0 8.5 -4.5t5.5 -7.5q0 -8 -16 -22t-53 -47.5t-72 -71.5q-83 -90 -138 -90q-32 0 -32 41q0 68 38 203t123 317
q4 8 11.5 24.5t11.5 24.5q-350 -270 -612 -428q-118 -72 -174 -72q-68 0 -68 94q0 62 27 164q43 169 192.5 484t300.5 602q94 182 148 182q23 0 40 -34.5t17 -72.5q0 -77 -39 -202zM1268 793q-55 -107 -56 -109q5 4 66 57q293 265 545 686q58 99 103.5 197.5t45.5 140.5
q0 25 -18 25q-10 0 -39 -24.5t-83.5 -88.5t-115.5 -153q-293 -426 -448 -731zM1206 1794q68 22 146 90t127 137q11 16 22 40t19.5 33t27.5 9q35 0 35 -123q0 -25 2 -81t2 -89q0 -79 -21.5 -123.5t-82.5 -44.5q-17 0 -17 15q0 11 15 26q19 16 28 108t9 167q0 27 -2 27
q-225 -283 -367 -283q-22 0 -39.5 8.5t-17.5 22.5q0 15 14.5 26.5t29 16t40 10.5t30.5 8z" />
    <glyph glyph-name="Udieresis" unicode="&#xdc;" horiz-adv-x="1439" 
d="M854 1180q-7 -24 -18.5 -35.5t-22.5 -11.5q-10 0 -10 12q0 25 17.5 89.5t17.5 92.5q0 55 -21 55q-27 0 -117 -182q-340 -695 -407 -932q-35 -119 -35 -166q0 -39 29 -39q48 0 295.5 156.5t488.5 347.5q145 301 338 615q139 223 352 489t250 266q47 0 47 -57
q-1 -78 -61 -223t-115 -250q-173 -324 -442 -588q-126 -123 -281 -248q-96 -202 -158.5 -363t-62.5 -218q0 -17 12 -17t47 23q27 20 61 48.5t50.5 40t26.5 11.5q3 0 8.5 -4.5t5.5 -7.5q0 -8 -16 -22t-53 -47.5t-72 -71.5q-83 -90 -138 -90q-32 0 -32 41q0 68 38 203t123 317
q4 8 11.5 24.5t11.5 24.5q-350 -270 -612 -428q-118 -72 -174 -72q-68 0 -68 94q0 62 27 164q43 169 192.5 484t300.5 602q94 182 148 182q23 0 40 -34.5t17 -72.5q0 -77 -39 -202zM1268 793q-55 -107 -56 -109q5 4 66 57q293 265 545 686q58 99 103.5 197.5t45.5 140.5
q0 25 -18 25q-10 0 -39 -24.5t-83.5 -88.5t-115.5 -153q-293 -426 -448 -731zM1255 1759q-1 -26 -30 -47.5t-51 -21.5q-31 0 -31 47q0 29 12 56.5t37 27.5q23 0 43 -19.5t20 -42.5zM1333 1731q1 26 29.5 52t55 39t32.5 13q12 0 20.5 -7t8.5 -16q0 -19 -29 -68.5t-68 -49.5
q-21 0 -35 9.5t-14 27.5z" />
    <glyph glyph-name="Yacute" unicode="&#xdd;" horiz-adv-x="1255" 
d="M647 -94l-86 -37q-145 -387 -145 -700q0 -38 7 -112.5t7 -111.5q0 -63 -47 -63q-55 0 -164 73t-212.5 168.5t-182 190.5t-78.5 135q0 42 45 88t147.5 102t167.5 87.5t205 93.5q9 4 13 6q33 16 96.5 44.5t79.5 35.5q119 304 295.5 603.5t332.5 502.5q-24 -17 -94 -73.5
t-119 -92.5t-117 -68.5t-120 -32.5q-48 0 -83 35t-49.5 76t-25.5 82.5t-14 46.5q-12 -17 -19.5 -56.5t-9.5 -67t-2 -46.5q0 -64 27 -137q4 -12 11.5 -28.5t12 -28.5t4.5 -19q0 -12 -30 -12q-109 0 -109 211q0 85 38.5 219.5t80 247t43.5 127.5q17 110 51 110q17 0 28 -26
t11 -62q0 -25 -42 -151t-42 -187q0 -36 6 -76t20.5 -86t46 -76t75.5 -30q54 0 153.5 68t180.5 142t145 142q50 53 120.5 137.5t114 137.5t92 94t80.5 41q25 0 40.5 -9.5t15.5 -27.5q0 -8 -5.5 -17.5t-12 -16.5t-23 -23t-27.5 -27q-111 -112 -239.5 -271t-264 -354
t-265 -427.5t-218.5 -452.5q313 143 516 262q42 24 96.5 61.5t86.5 57.5t46 20q13 0 13 -10q0 -28 -103.5 -103.5t-271 -167.5t-330.5 -161zM336 -236q-26 -12 -76.5 -34.5t-77.5 -35t-71 -33t-68.5 -34t-57 -33t-51 -35t-36.5 -34t-25.5 -37t-7.5 -37.5q0 -37 56 -111.5
t130 -146t151.5 -126t116.5 -54.5q25 0 25 31q0 24 -3 71t-3 70q0 276 133 643q-25 -13 -72.5 -35t-62.5 -29zM1094 1712q-64 0 -64 25q0 21 39 50.5t57 29.5q4 0 11.5 -2.5t13 -5.5t6.5 -3q24 10 57.5 26.5t94.5 50.5t118 82t91 97q16 24 37 38t36 14q23 0 23 -21
q0 -54 -119 -148.5t-244.5 -163.5t-156.5 -69z" />
    <glyph glyph-name="Thorn" unicode="&#xde;" horiz-adv-x="1757" 
d="M1522 1440q146 0 217 -82.5t71 -224.5q0 -126 -52.5 -279.5t-142 -302t-222 -283.5t-281.5 -217q109 19 246 70q229 81 405 190q56 35 74 35q14 0 14 -12q0 -14 -13 -35t-36 -37q-196 -132 -444 -207q-222 -69 -371 -69h-18q-136 -49 -273 -49q-71 0 -177 24.5t-165 63.5
q-82 -167 -166.5 -304t-170 -228t-144.5 -91q-11 0 -24 8t-13 19q0 43 37 119.5t81.5 146t131.5 201.5t139 215q20 33 133 211.5t172 277.5q82 174 199 344q157 300 227 543q21 77 31 187t18.5 168.5t32.5 58.5q55 0 120 -142l5 -10q0 -22 -7 -42.5t-15 -20.5q-3 0 -39.5 62
t-40.5 62q0 -1 8 -24t8 -41q0 -214 -182 -596q284 291 627 291zM713 801q-53 -94 -78 -137q-84 -162 -158 -355q-8 -22 -53 -129q54 -3 242.5 -69.5t291.5 -73.5q148 60 291 190t244.5 283t164 316.5t62.5 293.5q0 128 -49.5 193t-163.5 65q-441 0 -794 -577zM-109 -543
q79 48 196 222.5t222 392.5q-4 16 -4 24q0 15 4 31q-3 -5 -10 -16.5t-10 -16.5q-68 -109 -178 -279.5t-165 -258.5t-55 -99zM401 127l-18 -43q29 -34 131 -63t223 -29q19 0 53.5 3.5t47.5 4.5q-36 7 -84.5 21t-74.5 22.5t-106.5 36t-103.5 35.5q-37 12 -68 12zM354 170
q15 33 37 90q-41 -65 -65 -108q13 13 28 18z" />
    <glyph glyph-name="germandbls" unicode="&#xdf;" horiz-adv-x="829" 
d="M-74 18q24 48 101 195q241 470 352 655q210 351 365 434q55 29 106 29q56 0 93.5 -46.5t37.5 -113.5q0 -147 -81 -287t-200 -200q-116 -58 -116 -72q0 -13 15.5 -31.5t33.5 -38.5t33.5 -60.5t15.5 -90.5q0 -51 -20 -102t-40 -81.5t-20 -31.5q0 -4 4 -4q5 0 16 6t13 8
q17 11 70.5 38.5t140.5 86.5q79 51 102 51q13 0 13 -10q0 -22 -93.5 -87t-220.5 -134q-39 -21 -103 -57t-90 -49.5t-60 -26t-60 -12.5q-89 0 -161.5 50.5t-72.5 92.5q0 20 18.5 34.5t39.5 14.5q19 0 39 -19t35 -42.5t38 -42.5t49 -19q93 0 186 108.5t93 235.5q0 41 -11.5 74
t-28 53.5t-33.5 36.5t-28.5 30t-11.5 28q0 10 10 23.5t23 21.5q5 3 40.5 17t76.5 36q121 64 197.5 185t76.5 280q0 96 -71 96q-55 0 -147 -101t-185 -246t-197 -329.5t-177 -326t-130 -261.5q-19 -38 -22 -45q-70 -143 -130 -143q-28 0 -28 53q0 23 4.5 44.5t9.5 21.5
q2 0 9 -10.5t14 -10.5q20 0 67 92z" />
    <glyph glyph-name="agrave" unicode="&#xe0;" horiz-adv-x="894" 
d="M563 518q2 4 7.5 13.5t7.5 13.5q-1 3 -6 17.5t-6.5 19.5t-7 18t-9.5 18t-12 14t-15.5 13t-18.5 7t-24 3q-58 0 -133 -68t-135.5 -158.5t-102.5 -179.5t-42 -132q0 -41 30 -41q45 0 195 144.5t272 297.5zM635 621q57 57 88 57q21 0 27 -29q0 -48 -97 -168l-8 -14
q-183 -288 -184 -361q0 -22 18 -22q46 0 164 63q48 26 138.5 83t154 94.5t78.5 37.5q12 0 12 -10q0 -22 -115.5 -103.5t-248.5 -152.5q-195 -102 -240 -102q-49 0 -49 86q0 74 73 213q-295 -299 -385 -299q-38 0 -58.5 28.5t-20.5 69.5q0 103 88.5 255.5t208 266
t200.5 113.5q61 0 101 -30.5t55 -75.5zM768 864q0 -20 -39.5 -31.5t-69.5 -11.5q-60 0 -131 41q-61 33 -124 111.5t-64 134.5q0 26 20 44.5t43 18.5q27 0 33 -36v-15q1 -32 34.5 -88.5t85.5 -103.5t95 -47q31 0 31 16q0 14 25 14q17 0 39 -15t22 -32z" />
    <glyph glyph-name="aacute" unicode="&#xe1;" horiz-adv-x="894" 
d="M563 518q2 4 7.5 13.5t7.5 13.5q-1 3 -6 17.5t-6.5 19.5t-7 18t-9.5 18t-12 14t-15.5 13t-18.5 7t-24 3q-58 0 -133 -68t-135.5 -158.5t-102.5 -179.5t-42 -132q0 -41 30 -41q45 0 195 144.5t272 297.5zM635 621q57 57 88 57q21 0 27 -29q0 -48 -97 -168l-8 -14
q-183 -288 -184 -361q0 -22 18 -22q46 0 164 63q48 26 138.5 83t154 94.5t78.5 37.5q12 0 12 -10q0 -22 -115.5 -103.5t-248.5 -152.5q-195 -102 -240 -102q-49 0 -49 86q0 74 73 213q-295 -299 -385 -299q-38 0 -58.5 28.5t-20.5 69.5q0 103 88.5 255.5t208 266
t200.5 113.5q61 0 101 -30.5t55 -75.5zM565 864q-63 0 -63 25q0 21 39 50.5t57 29.5q4 0 11.5 -2.5t13 -5.5t6.5 -3q23 10 57 26.5t94.5 50.5t117.5 82t91 97q16 24 37.5 38t36.5 14q22 0 22 -21q0 -54 -119 -148.5t-244.5 -163.5t-156.5 -69z" />
    <glyph glyph-name="acircumflex" unicode="&#xe2;" horiz-adv-x="894" 
d="M563 518q2 4 7.5 13.5t7.5 13.5q-1 3 -6 17.5t-6.5 19.5t-7 18t-9.5 18t-12 14t-15.5 13t-18.5 7t-24 3q-58 0 -133 -68t-135.5 -158.5t-102.5 -179.5t-42 -132q0 -41 30 -41q45 0 195 144.5t272 297.5zM635 621q57 57 88 57q21 0 27 -29q0 -48 -97 -168l-8 -14
q-183 -288 -184 -361q0 -22 18 -22q46 0 164 63q48 26 138.5 83t154 94.5t78.5 37.5q12 0 12 -10q0 -22 -115.5 -103.5t-248.5 -152.5q-195 -102 -240 -102q-49 0 -49 86q0 74 73 213q-295 -299 -385 -299q-38 0 -58.5 28.5t-20.5 69.5q0 103 88.5 255.5t208 266
t200.5 113.5q61 0 101 -30.5t55 -75.5zM483 946q67 22 145.5 90t127.5 138q11 16 22 40t19.5 32.5t27.5 8.5q35 0 35 -122q0 -25 2 -81t2 -89q0 -79 -21.5 -123.5t-82.5 -44.5q-17 0 -17 14q0 12 15 27q19 16 28 107.5t9 166.5q0 27 -2 27q-225 -283 -367 -283
q-22 0 -39.5 8.5t-17.5 22.5q0 15 14.5 26.5t29 16t40 10.5t30.5 8z" />
    <glyph glyph-name="atilde" unicode="&#xe3;" horiz-adv-x="894" 
d="M563 518q2 4 7.5 13.5t7.5 13.5q-1 3 -6 17.5t-6.5 19.5t-7 18t-9.5 18t-12 14t-15.5 13t-18.5 7t-24 3q-58 0 -133 -68t-135.5 -158.5t-102.5 -179.5t-42 -132q0 -41 30 -41q45 0 195 144.5t272 297.5zM635 621q57 57 88 57q21 0 27 -29q0 -48 -97 -168l-8 -14
q-183 -288 -184 -361q0 -22 18 -22q46 0 164 63q48 26 138.5 83t154 94.5t78.5 37.5q12 0 12 -10q0 -22 -115.5 -103.5t-248.5 -152.5q-195 -102 -240 -102q-49 0 -49 86q0 74 73 213q-295 -299 -385 -299q-38 0 -58.5 28.5t-20.5 69.5q0 103 88.5 255.5t208 266
t200.5 113.5q61 0 101 -30.5t55 -75.5zM508 963q-15 -10 -35 -29t-34 -29t-27 -10q-23 0 -23 37q0 38 45 74.5t104 56.5t105 20q27 0 43.5 -15t23.5 -36.5t12 -43.5t15 -37t27 -15t56 42t81.5 84t67.5 42q9 0 16.5 -7.5t7.5 -17.5q0 -22 -43 -74t-104 -97.5t-103 -45.5
q-28 0 -44 15t-21.5 36.5t-9 43t-12.5 36.5t-27 15q-56 0 -121 -45z" />
    <glyph glyph-name="adieresis" unicode="&#xe4;" horiz-adv-x="894" 
d="M563 518q2 4 7.5 13.5t7.5 13.5q-1 3 -6 17.5t-6.5 19.5t-7 18t-9.5 18t-12 14t-15.5 13t-18.5 7t-24 3q-58 0 -133 -68t-135.5 -158.5t-102.5 -179.5t-42 -132q0 -41 30 -41q45 0 195 144.5t272 297.5zM635 621q57 57 88 57q21 0 27 -29q0 -48 -97 -168l-8 -14
q-183 -288 -184 -361q0 -22 18 -22q46 0 164 63q48 26 138.5 83t154 94.5t78.5 37.5q12 0 12 -10q0 -22 -115.5 -103.5t-248.5 -152.5q-195 -102 -240 -102q-49 0 -49 86q0 74 73 213q-295 -299 -385 -299q-38 0 -58.5 28.5t-20.5 69.5q0 103 88.5 255.5t208 266
t200.5 113.5q61 0 101 -30.5t55 -75.5zM623 911q-1 -26 -30.5 -47.5t-51.5 -21.5q-31 0 -31 47q0 29 12 56.5t37 27.5q23 0 43.5 -19.5t20.5 -42.5zM700 883q1 26 29.5 52t55 39t32.5 13q12 0 20.5 -6.5t8.5 -15.5q0 -8 -10.5 -35t-34.5 -55.5t-51 -28.5q-22 0 -36 9.5
t-14 27.5z" />
    <glyph glyph-name="aring" unicode="&#xe5;" horiz-adv-x="894" 
d="M563 518q2 4 7.5 13.5t7.5 13.5q-1 3 -6 17.5t-6.5 19.5t-7 18t-9.5 18t-12 14t-15.5 13t-18.5 7t-24 3q-58 0 -133 -68t-135.5 -158.5t-102.5 -179.5t-42 -132q0 -41 30 -41q45 0 195 144.5t272 297.5zM635 621q57 57 88 57q21 0 27 -29q0 -48 -97 -168l-8 -14
q-183 -288 -184 -361q0 -22 18 -22q46 0 164 63q48 26 138.5 83t154 94.5t78.5 37.5q12 0 12 -10q0 -22 -115.5 -103.5t-248.5 -152.5q-195 -102 -240 -102q-49 0 -49 86q0 74 73 213q-295 -299 -385 -299q-38 0 -58.5 28.5t-20.5 69.5q0 103 88.5 255.5t208 266
t200.5 113.5q61 0 101 -30.5t55 -75.5zM926 1079q0 -54 -54.5 -111.5t-128 -93.5t-129.5 -36q-34 0 -69 16.5t-35 50.5q0 11 25 29v10q0 69 84 146t172 77q68 0 101.5 -25t33.5 -63zM651 1036q-7 -9 -24.5 -45t-32.5 -51q6 -2 27.5 -10.5t36 -12.5t26.5 -4q43 0 101.5 52.5
t58.5 95.5q0 21 -13 36t-40 15q-37 0 -76 -20.5t-64 -55.5z" />
    <glyph glyph-name="ae" unicode="&#xe6;" horiz-adv-x="1187" 
d="M758 692q74 31 135 31q42 0 71 -30t29 -66q0 -60 -51 -108.5t-154 -106.5q-44 -24 -120 -58.5t-113 -56.5q-16 -59 -16 -104q0 -134 127 -134q64 0 145 33q82 32 188 95t184.5 113.5t100.5 57.5l6 1q6 1 10 1q15 0 15 -8q0 -11 -21 -31t-43 -34q-8 -5 -72 -50t-108 -74
t-115 -68.5t-131 -63.5q-87 -37 -174 -37q-104 0 -152 51t-48 137q0 68 24 142q-134 -143 -247.5 -236.5t-166.5 -93.5q-38 0 -58.5 28.5t-20.5 69.5q0 103 88.5 255.5t208 266t200.5 113.5q59 0 98 -28.5t56 -71.5q4 7 12 22.5t12 22.5q19 36 76 41q21 0 25 -21zM479 655
q-58 0 -133 -68t-135.5 -158.5t-102.5 -179.5t-42 -132q0 -41 30 -41q52 0 208.5 148.5t273.5 316.5q-1 3 -7.5 24t-9.5 27.5t-11.5 22.5t-16.5 22t-22.5 12t-31.5 6zM672 543q-56 -71 -94 -176q28 19 96 53.5t94 50.5q42 26 67.5 44t49.5 44.5t24 48.5q0 20 -17 31.5
t-42 11.5q-43 0 -91 -28.5t-87 -79.5z" />
    <glyph glyph-name="ccedilla" unicode="&#xe7;" horiz-adv-x="817" 
d="M162 -78q1 2 2 5t2 5q-40 -4 -60 -4q-139 0 -139 115q0 83 54.5 195.5t132 209.5t169 167.5t160.5 74.5q23 1 34 6.5t12 10.5t8.5 9.5t23.5 4.5q8 0 8 -10q0 -15 -23.5 -94.5t-45.5 -104.5q-17 -20 -35 -20q-15 0 -24 14t-9 33q0 4 3 20t3 19q0 14 -10 14t-21 -5.5
t-27.5 -19t-23.5 -19.5t-26 -24q-103 -97 -189 -231t-86 -227q0 -74 92 -74q50 0 114.5 18.5t121 42.5t134.5 66.5t126 71t126 77t105 64.5q51 28 64 28q12 0 12 -12q0 -8 -35.5 -40t-76.5 -60q-73 -48 -123.5 -80t-136.5 -81.5t-170 -85t-160 -54.5q-6 -11 -23.5 -37
t-31.5 -48t-15 -28q0 -7 31 -9t67.5 -4.5t67.5 -24.5t31 -64q0 -41 -43.5 -93.5t-114.5 -91.5t-139 -39q-34 0 -55 10t-31.5 19.5t-18.5 9.5q-3 0 -9.5 -1t-8.5 -1q-12 0 -12 17q2 21 29.5 53.5t54.5 32.5q15 0 22 -12t8 -26t10.5 -26t28.5 -12q53 0 126 47t73 98
q0 39 -45 39q-30 0 -87 -6t-67 -6q-13 0 -20.5 10.5t-7.5 26.5q2 11 16.5 29t38 48.5t39.5 63.5z" />
    <glyph glyph-name="egrave" unicode="&#xe8;" horiz-adv-x="741" 
d="M342 412q-46 -26 -120.5 -60t-108.5 -53q-7 -40 -7 -70q0 -74 28 -122t87 -48q70 0 172 44t185 96.5t160.5 102t99.5 56.5l6 1q6 1 10 1q14 0 14 -8q0 -11 -20.5 -31t-42.5 -34q-8 -5 -65 -45t-93.5 -64t-103.5 -63.5t-118 -63t-113 -41.5t-111 -18q-61 0 -104.5 35.5
t-62 85t-18.5 104.5q0 60 20.5 129.5t60 135.5t90.5 120.5t119 87.5t140 33q42 0 71.5 -30t29.5 -66q0 -60 -51.5 -110t-153.5 -105zM403 651q-79 0 -156.5 -84.5t-115.5 -199.5q28 19 96.5 53.5t94.5 50.5q42 26 67.5 44t49.5 44.5t24 48.5q0 20 -17 31.5t-43 11.5z
M586 864q0 -20 -39.5 -31.5t-69.5 -11.5q-60 0 -131 41q-61 33 -124 111.5t-64 134.5q0 26 20 44.5t43 18.5q27 0 33 -36v-15q1 -32 34.5 -88.5t85.5 -103.5t95 -47q31 0 31 16q0 14 24 14q17 0 39.5 -15t22.5 -32z" />
    <glyph glyph-name="eacute" unicode="&#xe9;" horiz-adv-x="741" 
d="M342 412q-46 -26 -120.5 -60t-108.5 -53q-7 -40 -7 -70q0 -74 28 -122t87 -48q70 0 172 44t185 96.5t160.5 102t99.5 56.5l6 1q6 1 10 1q14 0 14 -8q0 -11 -20.5 -31t-42.5 -34q-8 -5 -65 -45t-93.5 -64t-103.5 -63.5t-118 -63t-113 -41.5t-111 -18q-61 0 -104.5 35.5
t-62 85t-18.5 104.5q0 60 20.5 129.5t60 135.5t90.5 120.5t119 87.5t140 33q42 0 71.5 -30t29.5 -66q0 -60 -51.5 -110t-153.5 -105zM403 651q-79 0 -156.5 -84.5t-115.5 -199.5q28 19 96.5 53.5t94.5 50.5q42 26 67.5 44t49.5 44.5t24 48.5q0 20 -17 31.5t-43 11.5z
M367 864q-64 0 -64 25q0 21 39 50.5t57 29.5q4 0 11.5 -2.5t13 -5.5t6.5 -3q24 10 57.5 26.5t94.5 50.5t118 82t91 97q16 24 37 38t36 14q23 0 23 -21q0 -54 -119 -148.5t-244.5 -163.5t-156.5 -69z" />
    <glyph glyph-name="ecircumflex" unicode="&#xea;" horiz-adv-x="741" 
d="M342 412q-46 -26 -120.5 -60t-108.5 -53q-7 -40 -7 -70q0 -74 28 -122t87 -48q70 0 172 44t185 96.5t160.5 102t99.5 56.5l6 1q6 1 10 1q14 0 14 -8q0 -11 -20.5 -31t-42.5 -34q-8 -5 -65 -45t-93.5 -64t-103.5 -63.5t-118 -63t-113 -41.5t-111 -18q-61 0 -104.5 35.5
t-62 85t-18.5 104.5q0 60 20.5 129.5t60 135.5t90.5 120.5t119 87.5t140 33q42 0 71.5 -30t29.5 -66q0 -60 -51.5 -110t-153.5 -105zM403 651q-79 0 -156.5 -84.5t-115.5 -199.5q28 19 96.5 53.5t94.5 50.5q42 26 67.5 44t49.5 44.5t24 48.5q0 20 -17 31.5t-43 11.5z
M346 946q67 22 145 90t127 138q11 16 22 40t20 32.5t28 8.5q35 0 35 -122q0 -25 2 -81t2 -89q0 -79 -21.5 -123.5t-82.5 -44.5q-17 0 -17 14q0 12 15 27q19 16 27.5 106.5t8.5 167.5q0 27 -2 27q-225 -283 -366 -283q-22 0 -40 8.5t-18 22.5q0 15 14.5 26.5t29.5 16.5
t40.5 10.5t30.5 7.5z" />
    <glyph glyph-name="edieresis" unicode="&#xeb;" horiz-adv-x="741" 
d="M342 412q-46 -26 -120.5 -60t-108.5 -53q-7 -40 -7 -70q0 -74 28 -122t87 -48q70 0 172 44t185 96.5t160.5 102t99.5 56.5l6 1q6 1 10 1q14 0 14 -8q0 -11 -20.5 -31t-42.5 -34q-8 -5 -65 -45t-93.5 -64t-103.5 -63.5t-118 -63t-113 -41.5t-111 -18q-61 0 -104.5 35.5
t-62 85t-18.5 104.5q0 60 20.5 129.5t60 135.5t90.5 120.5t119 87.5t140 33q42 0 71.5 -30t29.5 -66q0 -60 -51.5 -110t-153.5 -105zM403 651q-79 0 -156.5 -84.5t-115.5 -199.5q28 19 96.5 53.5t94.5 50.5q42 26 67.5 44t49.5 44.5t24 48.5q0 20 -17 31.5t-43 11.5z
M459 911q-1 -26 -30.5 -47.5t-51.5 -21.5q-31 0 -31 47q0 29 12 56.5t37 27.5q23 0 43.5 -19.5t20.5 -42.5zM537 883q1 26 29.5 52t54.5 39t32 13q12 0 20.5 -6.5t8.5 -15.5q0 -8 -10.5 -35t-34.5 -55.5t-51 -28.5q-21 0 -35 9.5t-14 27.5z" />
    <glyph glyph-name="igrave" unicode="&#xec;" horiz-adv-x="712" 
d="M-133 186q0 8 5 17.5t11.5 16t18.5 16t18.5 14t21 13.5t17.5 11q371 268 451 359q27 31 39 31q8 0 8 -17q0 -15 -21 -88q-9 -30 -35 -68.5t-55.5 -76.5t-57.5 -81t-46.5 -98t-18.5 -112q0 -51 49 -51q34 2 142 55q56 26 152.5 86.5t168.5 104.5t88 44q15 0 15 -10
t-28.5 -36t-66.5 -52q-5 -3 -62 -41.5t-78.5 -52t-76 -48t-85.5 -50.5t-74.5 -37t-76.5 -30t-59 -9q-50 0 -76 32.5t-26 75.5q0 42 15.5 100t35.5 112.5t21 56.5q-14 -9 -64 -46.5t-107 -75.5t-112 -65q-20 -10 -33 -10q-18 0 -18 10zM653 864q0 -20 -39 -31.5t-69 -11.5
q-60 0 -131 41q-61 33 -124.5 111.5t-64.5 134.5q0 26 20.5 44.5t43.5 18.5q27 0 33 -36v-15q1 -32 34.5 -88.5t85.5 -103.5t95 -47q30 0 30 16q0 14 25 14q17 0 39 -15t22 -32z" />
    <glyph glyph-name="iacute" unicode="&#xed;" horiz-adv-x="712" 
d="M-133 186q0 8 5 17.5t11.5 16t18.5 16t18.5 14t21 13.5t17.5 11q371 268 451 359q27 31 39 31q8 0 8 -17q0 -15 -21 -88q-9 -30 -35 -68.5t-55.5 -76.5t-57.5 -81t-46.5 -98t-18.5 -112q0 -51 49 -51q34 2 142 55q56 26 152.5 86.5t168.5 104.5t88 44q15 0 15 -10
t-28.5 -36t-66.5 -52q-5 -3 -62 -41.5t-78.5 -52t-76 -48t-85.5 -50.5t-74.5 -37t-76.5 -30t-59 -9q-50 0 -76 32.5t-26 75.5q0 42 15.5 100t35.5 112.5t21 56.5q-14 -9 -64 -46.5t-107 -75.5t-112 -65q-20 -10 -33 -10q-18 0 -18 10zM477 864q-63 0 -63 25q0 21 39 50.5
t57 29.5q4 0 11.5 -2.5t13 -5.5t6.5 -3q23 10 57 26.5t94.5 50.5t117.5 82t91 97q16 24 37.5 38t36.5 14q22 0 22 -21q0 -54 -119 -148.5t-244.5 -163.5t-156.5 -69z" />
    <glyph glyph-name="icircumflex" unicode="&#xee;" horiz-adv-x="712" 
d="M-133 186q0 8 5 17.5t11.5 16t18.5 16t18.5 14t21 13.5t17.5 11q371 268 451 359q27 31 39 31q8 0 8 -17q0 -15 -21 -88q-9 -30 -35 -68.5t-55.5 -76.5t-57.5 -81t-46.5 -98t-18.5 -112q0 -51 49 -51q34 2 142 55q56 26 152.5 86.5t168.5 104.5t88 44q15 0 15 -10
t-28.5 -36t-66.5 -52q-5 -3 -62 -41.5t-78.5 -52t-76 -48t-85.5 -50.5t-74.5 -37t-76.5 -30t-59 -9q-50 0 -76 32.5t-26 75.5q0 42 15.5 100t35.5 112.5t21 56.5q-14 -9 -64 -46.5t-107 -75.5t-112 -65q-20 -10 -33 -10q-18 0 -18 10zM354 946q67 22 145.5 90t127.5 138
q11 16 22 40t19.5 32.5t27.5 8.5q35 0 35 -122q0 -25 2 -81t2 -89q0 -79 -21.5 -123.5t-82.5 -44.5q-17 0 -17 14q0 12 15 27q19 16 28 107.5t9 166.5q0 27 -2 27q-225 -283 -367 -283q-22 0 -39.5 8.5t-17.5 22.5q0 15 14.5 26.5t29 16t40 10.5t30.5 8z" />
    <glyph glyph-name="idieresis" unicode="&#xef;" horiz-adv-x="712" 
d="M-133 186q0 8 5 17.5t11.5 16t18.5 16t18.5 14t21 13.5t17.5 11q371 268 451 359q27 31 39 31q8 0 8 -17q0 -15 -21 -88q-9 -30 -35 -68.5t-55.5 -76.5t-57.5 -81t-46.5 -98t-18.5 -112q0 -51 49 -51q34 2 142 55q56 26 152.5 86.5t168.5 104.5t88 44q15 0 15 -10
t-28.5 -36t-66.5 -52q-5 -3 -62 -41.5t-78.5 -52t-76 -48t-85.5 -50.5t-74.5 -37t-76.5 -30t-59 -9q-50 0 -76 32.5t-26 75.5q0 42 15.5 100t35.5 112.5t21 56.5q-14 -9 -64 -46.5t-107 -75.5t-112 -65q-20 -10 -33 -10q-18 0 -18 10zM535 911q-1 -26 -30.5 -47.5
t-51.5 -21.5q-31 0 -31 47q0 29 12 56.5t37 27.5q23 0 43.5 -19.5t20.5 -42.5zM612 883q1 26 29.5 52t55 39t32.5 13q12 0 20.5 -6.5t8.5 -15.5q0 -8 -10.5 -35t-34.5 -55.5t-51 -28.5q-22 0 -36 9.5t-14 27.5z" />
    <glyph glyph-name="eth" unicode="&#xf0;" horiz-adv-x="843" 
d="M573 1130q0 23 132 23q26 0 79 -1t76 -1q34 0 92 8q64 185 64 328q0 172 -131 172q-88 0 -140 -74q-17 -26 -30 -26q-11 0 -18 14t-7 35t13.5 60.5t25.5 39.5q2 0 7 -7t12 -7q23 0 70 20.5t93 20.5q96 0 137.5 -63.5t41.5 -190.5q0 -117 -66 -305q19 5 62.5 17t65.5 17.5
t52 11t51 5.5q35 0 35 -17q0 -4 -29 -39.5t-75.5 -73.5t-83.5 -38q-8 0 -8 8q0 6 8 24.5t8 24.5q0 10 -10 10q-9 0 -27 -6q-7 -3 -27.5 -8t-36 -10t-16.5 -8q-214 -534 -579 -899q-201 -201 -353 -201q-38 0 -58.5 28.5t-20.5 69.5q0 103 88.5 255.5t208 266t200.5 113.5
q77 0 119.5 -47t44.5 -100q184 264 281 505q-120 -20 -234 -20q-63 0 -87.5 16t-29.5 49zM389 266q84 87 203 244q-8 12 -20 53t-32.5 66.5t-60.5 25.5q-58 0 -133 -68t-135.5 -158.5t-102.5 -179.5t-42 -132q0 -41 30 -41q110 0 293 190z" />
    <glyph glyph-name="ntilde" unicode="&#xf1;" horiz-adv-x="942" 
d="M258 588q-6 -38 -93 -212t-87 -188q1 0 6 5q83 90 264 252t268 229q53 39 86 39q46 0 46 -66q0 -47 -41.5 -136.5t-98 -192t-71.5 -138.5q-21 -51 -21 -71q0 -29 27 -29q14 0 41 12q146 61 424 240q40 24 55 24q10 0 10 -8q0 -44 -184 -157t-344 -179q-39 -16 -78 -16
q-31 0 -48.5 12.5t-17.5 34.5q0 3 5 18q26 76 86.5 192.5t105.5 202t45 109.5q0 17 -18 17q-43 0 -136 -86q-328 -302 -471 -469q-55 -66 -90 -66q-16 0 -25 13t-9 32q0 10 26 57t62 112.5t53 103.5q3 8 35.5 79.5t42.5 100.5q8 24 15 58.5t12 57t14.5 45t27.5 33.5t45 11
q35 0 35 -46q0 -6 -4 -30zM451 963q-15 -10 -35.5 -29t-34.5 -29t-27 -10q-22 0 -22 37q0 38 45 74.5t104 56.5t105 20q27 0 43.5 -15t23.5 -36.5t12 -43.5t15 -37t27 -15t55.5 42t81 84t67.5 42q9 0 17 -7.5t8 -17.5q0 -22 -43 -74t-104 -97.5t-103 -45.5q-34 0 -51.5 23
t-19.5 50t-12 50t-32 23q-55 0 -120 -45z" />
    <glyph glyph-name="ograve" unicode="&#xf2;" horiz-adv-x="917" 
d="M528 106h-24q-189 -180 -342 -180q-46 0 -70 32.5t-24 76.5q0 64 46 174.5t83 150.5q-245 -163 -260 -163q-33 0 -33 14q0 22 26 39q242 179 385 262q31 19 50 25q50 82 126 135t121 53q74 0 118 -37t44 -106q0 -83 -60 -198t-155 -220q95 9 141 24q64 22 143.5 66.5
t134.5 76t79 31.5q6 0 6 -6q0 -17 -57.5 -62t-122.5 -79q-108 -55 -189.5 -82t-165.5 -27zM410 225q23 -33 67 -49q93 95 154 198.5t61 190.5q0 39 -24 61.5t-62 22.5q-31 0 -70.5 -22t-76 -59.5t-61.5 -96t-25 -123.5q0 -78 37 -123zM309 346q0 21 4 57q-22 -27 -84 -106
q-21 -26 -53.5 -104t-32.5 -132q0 -69 62 -69q34 0 93.5 36.5t125.5 96.5q-115 49 -115 221zM850 864q0 -20 -39.5 -31.5t-69.5 -11.5q-60 0 -131 41q-61 33 -124 111.5t-64 134.5q0 26 20 44.5t43 18.5q27 0 33 -36v-15q1 -32 34.5 -88.5t85.5 -103.5t95 -47q31 0 31 16
q0 14 24 14q17 0 39.5 -15t22.5 -32z" />
    <glyph glyph-name="oacute" unicode="&#xf3;" horiz-adv-x="917" 
d="M528 106h-24q-189 -180 -342 -180q-46 0 -70 32.5t-24 76.5q0 64 46 174.5t83 150.5q-245 -163 -260 -163q-33 0 -33 14q0 22 26 39q242 179 385 262q31 19 50 25q50 82 126 135t121 53q74 0 118 -37t44 -106q0 -83 -60 -198t-155 -220q95 9 141 24q64 22 143.5 66.5
t134.5 76t79 31.5q6 0 6 -6q0 -17 -57.5 -62t-122.5 -79q-108 -55 -189.5 -82t-165.5 -27zM410 225q23 -33 67 -49q93 95 154 198.5t61 190.5q0 39 -24 61.5t-62 22.5q-31 0 -70.5 -22t-76 -59.5t-61.5 -96t-25 -123.5q0 -78 37 -123zM309 346q0 21 4 57q-22 -27 -84 -106
q-21 -26 -53.5 -104t-32.5 -132q0 -69 62 -69q34 0 93.5 36.5t125.5 96.5q-115 49 -115 221zM537 864q-64 0 -64 25q0 21 39 50.5t57 29.5q4 0 11.5 -2.5t13 -5.5t6.5 -3q24 10 57.5 26.5t94.5 50.5t118 82t91 97q16 24 37 38t36 14q23 0 23 -21q0 -54 -119 -148.5
t-244.5 -163.5t-156.5 -69z" />
    <glyph glyph-name="ocircumflex" unicode="&#xf4;" horiz-adv-x="917" 
d="M528 106h-24q-189 -180 -342 -180q-46 0 -70 32.5t-24 76.5q0 64 46 174.5t83 150.5q-245 -163 -260 -163q-33 0 -33 14q0 22 26 39q242 179 385 262q31 19 50 25q50 82 126 135t121 53q74 0 118 -37t44 -106q0 -83 -60 -198t-155 -220q95 9 141 24q64 22 143.5 66.5
t134.5 76t79 31.5q6 0 6 -6q0 -17 -57.5 -62t-122.5 -79q-108 -55 -189.5 -82t-165.5 -27zM410 225q23 -33 67 -49q93 95 154 198.5t61 190.5q0 39 -24 61.5t-62 22.5q-31 0 -70.5 -22t-76 -59.5t-61.5 -96t-25 -123.5q0 -78 37 -123zM309 346q0 21 4 57q-22 -27 -84 -106
q-21 -26 -53.5 -104t-32.5 -132q0 -69 62 -69q34 0 93.5 36.5t125.5 96.5q-115 49 -115 221zM545 946q67 22 145 90t127 138q11 16 22 40t20 32.5t28 8.5q35 0 35 -122q0 -25 2 -81t2 -89q0 -50 -7 -84t-31 -59t-67 -25q-16 0 -16 14q0 13 14 27q19 16 28 107.5t9 166.5
q0 27 -2 27q-225 -283 -367 -283q-22 0 -39.5 8.5t-17.5 22.5q0 15 14.5 26.5t29.5 16.5t40.5 10.5t30.5 7.5z" />
    <glyph glyph-name="otilde" unicode="&#xf5;" horiz-adv-x="917" 
d="M528 106h-24q-189 -180 -342 -180q-46 0 -70 32.5t-24 76.5q0 64 46 174.5t83 150.5q-245 -163 -260 -163q-33 0 -33 14q0 22 26 39q242 179 385 262q31 19 50 25q50 82 126 135t121 53q74 0 118 -37t44 -106q0 -83 -60 -198t-155 -220q95 9 141 24q64 22 143.5 66.5
t134.5 76t79 31.5q6 0 6 -6q0 -17 -57.5 -62t-122.5 -79q-108 -55 -189.5 -82t-165.5 -27zM410 225q23 -33 67 -49q93 95 154 198.5t61 190.5q0 39 -24 61.5t-62 22.5q-31 0 -70.5 -22t-76 -59.5t-61.5 -96t-25 -123.5q0 -78 37 -123zM309 346q0 21 4 57q-22 -27 -84 -106
q-21 -26 -53.5 -104t-32.5 -132q0 -69 62 -69q34 0 93.5 36.5t125.5 96.5q-115 49 -115 221zM539 963q-15 -10 -35.5 -29t-34.5 -29t-27 -10q-22 0 -22 37q0 38 45 74.5t104 56.5t105 20q27 0 43.5 -15t23.5 -36.5t12 -43.5t15 -37t27 -15t55.5 42t81 84t67.5 42
q9 0 17 -7.5t8 -17.5q0 -22 -43 -74t-104 -97.5t-103 -45.5q-34 0 -51.5 23t-19.5 50t-12 50t-32 23q-55 0 -120 -45z" />
    <glyph glyph-name="odieresis" unicode="&#xf6;" horiz-adv-x="917" 
d="M528 106h-24q-189 -180 -342 -180q-46 0 -70 32.5t-24 76.5q0 64 46 174.5t83 150.5q-245 -163 -260 -163q-33 0 -33 14q0 22 26 39q242 179 385 262q31 19 50 25q50 82 126 135t121 53q74 0 118 -37t44 -106q0 -83 -60 -198t-155 -220q95 9 141 24q64 22 143.5 66.5
t134.5 76t79 31.5q6 0 6 -6q0 -17 -57.5 -62t-122.5 -79q-108 -55 -189.5 -82t-165.5 -27zM410 225q23 -33 67 -49q93 95 154 198.5t61 190.5q0 39 -24 61.5t-62 22.5q-31 0 -70.5 -22t-76 -59.5t-61.5 -96t-25 -123.5q0 -78 37 -123zM309 346q0 21 4 57q-22 -27 -84 -106
q-21 -26 -53.5 -104t-32.5 -132q0 -69 62 -69q34 0 93.5 36.5t125.5 96.5q-115 49 -115 221zM637 911q-1 -26 -30.5 -47.5t-51.5 -21.5q-31 0 -31 47q0 29 12 56.5t37 27.5q23 0 43.5 -19.5t20.5 -42.5zM715 883q1 26 29.5 52t54.5 39t32 13q12 0 20.5 -6.5t8.5 -15.5
q0 -8 -10.5 -35t-34.5 -55.5t-51 -28.5q-21 0 -35 9.5t-14 27.5z" />
    <glyph glyph-name="divide" unicode="&#xf7;" horiz-adv-x="1095" 
d="M653 694q-25 28 -50 73t-25 71q0 30 34 30q25 0 57.5 -21.5t32.5 -47.5q0 -12 -19 -21.5t-19 -23.5q0 -10 12 -30t12 -26q0 -18 -12 -18q-9 0 -23 14zM428 227q0 -26 17 -40.5t37.5 -18.5t37.5 -11t17 -20q0 -27 -18.5 -56.5t-41.5 -29.5q-18 0 -28.5 9.5t-13.5 19.5
t-6 32.5t-5 32.5q-1 5 -11 31.5t-10 34.5t6 16.5t13 8.5q6 0 6 -9zM1038 457q-12 -5 -29.5 -8.5t-48.5 -6t-57 -3.5t-79.5 -3t-90.5 -4q-81 -4 -213.5 -24.5t-214.5 -20.5q-55 0 -95.5 7t-60.5 16.5t-31.5 22.5t-13.5 20t-2 14q0 25 54 25q9 0 65 -6.5t103 -6.5
q58 0 122.5 3.5t97 6.5t106 11.5t83.5 9.5q72 6 72 29q0 6 -11.5 16.5t-11.5 11.5q0 11 23 11q14 -1 25.5 -14t28.5 -28t44 -18q17 0 58.5 4t62.5 4q28 0 48 -7.5t20 -18.5q0 -21 -54 -43z" />
    <glyph glyph-name="oslash" unicode="&#xf8;" horiz-adv-x="917" 
d="M63 72q1 1 4.5 3t4.5 3q13 69 53.5 158.5t71.5 123.5q-245 -163 -260 -163q-33 0 -33 14q0 22 26 39q242 179 385 262q31 19 50 25q50 82 126 135t121 53q64 0 106.5 -29.5t51.5 -83.5q60 29 94 29q20 0 34.5 -16.5t14.5 -30.5q0 -18 -23 -30.5t-77 -26.5q-16 -4 -49 -23
q-19 -76 -71.5 -167t-125.5 -175q100 5 133 16q64 22 143.5 66.5t134.5 76t79 31.5q6 0 6 -6q0 -18 -47 -59.5t-109 -73.5q-229 -117 -379 -117h-24q-189 -180 -342 -180q-66 0 -88 64q-64 -51 -97 -51h-8q-22 3 -22 20q0 44 116 113zM373 330q210 170 319 237
q-1 37 -25.5 59.5t-60.5 22.5q-31 0 -70.5 -22t-76 -59.5t-61.5 -96t-25 -123.5v-18zM336 211q-96 -75 -193 -162q3 -57 62 -57q34 0 93.5 36.5t125.5 96.5q-59 23 -88 86zM672 459q-129 -83 -281 -205q7 -17 19 -29q27 -35 71 -47q143 151 191 281zM309 346q0 21 4 57
q-22 -27 -84 -106q-37 -50 -67 -143q102 86 151 127q-4 40 -4 65z" />
    <glyph glyph-name="ugrave" unicode="&#xf9;" horiz-adv-x="1087" 
d="M303 563q-11 -21 -51 -79t-72.5 -108t-60 -116t-27.5 -115q0 -36 37 -36q25 0 92 26q55 24 192.5 135t207.5 181q43 42 87.5 108t75 100.5t66.5 34.5q9 0 16.5 -8.5t7.5 -21.5q0 -28 -28 -74t-75.5 -111t-68.5 -100q-73 -120 -73 -219q0 -14 1 -22.5t4 -20t12.5 -17.5
t23.5 -6q42 0 105 26.5t110 54t123.5 76t99.5 62.5q40 25 49 25q10 0 17.5 -5.5t7.5 -13.5q0 -21 -158 -122q-265 -170 -381 -170q-50 0 -76 37.5t-26 97.5q0 33 9.5 91t10.5 66q-103 -103 -252 -194.5t-217 -91.5q-43 0 -68.5 31.5t-25.5 82.5q0 69 56.5 188.5t129 211.5
t113.5 92q20 0 20 -25q0 -23 -14 -51zM758 864q0 -20 -39.5 -31.5t-69.5 -11.5q-60 0 -131 41q-61 33 -124 111.5t-64 134.5q0 26 20 44.5t43 18.5q27 0 33 -36v-15q1 -32 34.5 -88.5t85.5 -103.5t95 -47q31 0 31 16q0 14 24 14q17 0 39.5 -15t22.5 -32z" />
    <glyph glyph-name="uacute" unicode="&#xfa;" horiz-adv-x="1087" 
d="M303 563q-11 -21 -51 -79t-72.5 -108t-60 -116t-27.5 -115q0 -36 37 -36q25 0 92 26q55 24 192.5 135t207.5 181q43 42 87.5 108t75 100.5t66.5 34.5q9 0 16.5 -8.5t7.5 -21.5q0 -28 -28 -74t-75.5 -111t-68.5 -100q-73 -120 -73 -219q0 -14 1 -22.5t4 -20t12.5 -17.5
t23.5 -6q42 0 105 26.5t110 54t123.5 76t99.5 62.5q40 25 49 25q10 0 17.5 -5.5t7.5 -13.5q0 -21 -158 -122q-265 -170 -381 -170q-50 0 -76 37.5t-26 97.5q0 33 9.5 91t10.5 66q-103 -103 -252 -194.5t-217 -91.5q-43 0 -68.5 31.5t-25.5 82.5q0 69 56.5 188.5t129 211.5
t113.5 92q20 0 20 -25q0 -23 -14 -51zM604 864q-63 0 -63 25q0 21 39 50.5t57 29.5q4 0 11.5 -2.5t13 -5.5t6.5 -3q23 10 57 26.5t94.5 50.5t117.5 82t91 97q16 24 37.5 38t36.5 14q22 0 22 -21q0 -54 -119 -148.5t-244.5 -163.5t-156.5 -69z" />
    <glyph glyph-name="ucircumflex" unicode="&#xfb;" horiz-adv-x="1087" 
d="M303 563q-11 -21 -51 -79t-72.5 -108t-60 -116t-27.5 -115q0 -36 37 -36q25 0 92 26q55 24 192.5 135t207.5 181q43 42 87.5 108t75 100.5t66.5 34.5q9 0 16.5 -8.5t7.5 -21.5q0 -28 -28 -74t-75.5 -111t-68.5 -100q-73 -120 -73 -219q0 -14 1 -22.5t4 -20t12.5 -17.5
t23.5 -6q42 0 105 26.5t110 54t123.5 76t99.5 62.5q40 25 49 25q10 0 17.5 -5.5t7.5 -13.5q0 -21 -158 -122q-265 -170 -381 -170q-50 0 -76 37.5t-26 97.5q0 33 9.5 91t10.5 66q-103 -103 -252 -194.5t-217 -91.5q-43 0 -68.5 31.5t-25.5 82.5q0 69 56.5 188.5t129 211.5
t113.5 92q20 0 20 -25q0 -23 -14 -51zM506 946q67 22 145 90t127 138q11 16 22 40t20 32.5t28 8.5q35 0 35 -122q0 -25 2 -81t2 -89q0 -50 -7 -84t-31 -59t-67 -25q-16 0 -16 14q0 13 14 27q19 16 28 107.5t9 166.5q0 27 -2 27q-225 -283 -366 -283q-22 0 -40 8.5t-18 22.5
q0 15 14.5 26.5t29.5 16.5t40.5 10.5t30.5 7.5z" />
    <glyph glyph-name="udieresis" unicode="&#xfc;" horiz-adv-x="1087" 
d="M303 563q-11 -21 -51 -79t-72.5 -108t-60 -116t-27.5 -115q0 -36 37 -36q25 0 92 26q55 24 192.5 135t207.5 181q43 42 87.5 108t75 100.5t66.5 34.5q9 0 16.5 -8.5t7.5 -21.5q0 -28 -28 -74t-75.5 -111t-68.5 -100q-73 -120 -73 -219q0 -14 1 -22.5t4 -20t12.5 -17.5
t23.5 -6q42 0 105 26.5t110 54t123.5 76t99.5 62.5q40 25 49 25q10 0 17.5 -5.5t7.5 -13.5q0 -21 -158 -122q-265 -170 -381 -170q-50 0 -76 37.5t-26 97.5q0 33 9.5 91t10.5 66q-103 -103 -252 -194.5t-217 -91.5q-43 0 -68.5 31.5t-25.5 82.5q0 69 56.5 188.5t129 211.5
t113.5 92q20 0 20 -25q0 -23 -14 -51zM598 911q-1 -26 -30.5 -47.5t-51.5 -21.5q-31 0 -31 47q0 28 12.5 56t37.5 28q23 0 43 -19.5t20 -42.5zM676 883q1 26 29.5 52t55 39t32.5 13q12 0 20 -6.5t8 -15.5q0 -8 -10.5 -35t-34.5 -55.5t-51 -28.5q-21 0 -35 9.5t-14 27.5z" />
    <glyph glyph-name="yacute" unicode="&#xfd;" horiz-adv-x="995" 
d="M174 213q0 -33 23 -33q50 0 226.5 146t264.5 239q26 27 58.5 62.5t48 52.5t34 34.5t31 24t23.5 6.5q28 0 28 -18q0 -15 -18 -46t-56 -89.5t-65 -106.5q-39 -72 -62.5 -123t-50.5 -120.5t-53 -128.5q-25 -58 -28 -66q127 67 163 88q75 44 189 114.5t145 88.5q41 24 60 24
q7 0 8.5 -2t1.5 -8q0 -4 -3 -9.5t-10 -12.5t-14 -13t-19 -15t-20.5 -15.5t-23.5 -17.5t-23 -17q-106 -79 -268 -172q-99 -55 -221 -113q-112 -257 -286 -678t-218 -520q-64 -145 -113 -145q-42 0 -80 94.5t-60 241.5t-22 299q0 84 22 159.5t51.5 131.5t90.5 114t104.5 93.5
t132 85t135 72.5t146.5 71q17 8 25 12q113 263 217 467q-77 -68 -170.5 -143t-211 -151.5t-167.5 -76.5q-45 0 -45 68q0 122 189 516q11 22 18 35t23.5 29t33.5 16q15 0 25 -14.5t10 -38.5q0 -3 -1 -9.5t-1 -9.5q-5 -29 -59.5 -129t-106 -202t-51.5 -142zM-43 -1225
q84 188 263 622.5t216 522.5q-76 -36 -129 -63t-120.5 -67t-113 -75.5t-94 -84.5t-77 -98.5t-46.5 -112.5t-18 -132q0 -115 18 -240.5t43.5 -204.5t45.5 -79q6 0 12 12zM596 864q-64 0 -64 25q0 21 39.5 50.5t57.5 29.5q4 0 11 -2.5t12.5 -5.5t6.5 -3q24 10 57.5 26.5
t94.5 50.5t118 82t91 97q16 24 37.5 38t36.5 14q22 0 22 -21q0 -54 -119 -148.5t-244.5 -163.5t-156.5 -69z" />
    <glyph glyph-name="thorn" unicode="&#xfe;" horiz-adv-x="864" 
d="M-104 231q83 55 202 142q8 8 78 67q694 1315 969 1315q33 0 51 -24.5t18 -69.5q0 -101 -73 -264.5t-170 -284.5q-201 -248 -434 -459q45 9 53 9q65 0 105 -52t40 -118q0 -142 -137 -347q49 26 100.5 57.5t99.5 63t58 37.5q102 59 113 59q16 0 16 -12q0 -9 -36.5 -41
t-69.5 -53q-8 -5 -77.5 -52t-143 -91.5t-144.5 -79.5q-3 -4 -11 -13.5t-11 -13.5q-53 -61 -134.5 -102t-138.5 -41q-53 0 -53 39q0 59 158 127l151 57q68 97 118 224t50 169q0 44 -20 71.5t-58 27.5q-76 0 -188 -66q-10 -10 -19 -16q-69 -58 -168 -127
q-42 -96 -137.5 -285.5t-146.5 -302.5q-42 -92 -159 -373.5t-208 -497t-100 -215.5q-11 0 -25.5 24t-27.5 82.5t-13 133.5q0 140 48.5 315.5t127.5 345t177.5 327t199.5 276.5q-131 -72 -157 -72q-7 0 -7 4q0 5 16.5 17.5t59 41.5t58.5 41zM1106 1657q-43 0 -127 -90
t-173 -214t-199.5 -296.5t-184 -294.5t-148.5 -250q11 6 62 51q180 152 332 304t239 268q89 119 163.5 262t74.5 213q0 47 -39 47zM-158 -219q116 254 246 493q-130 -137 -241.5 -299t-200.5 -344.5t-142.5 -387t-60.5 -404.5q0 -1 17 39.5t46 109.5t64.5 154.5t75 180
t76 180.5t69 161t51.5 117zM274 -57q60 0 119 53q-42 -9 -71 -19q-20 -5 -34 -12t-19 -11.5t-5 -6.5q0 -4 10 -4z" />
    <glyph glyph-name="ydieresis" unicode="&#xff;" horiz-adv-x="995" 
d="M174 213q0 -33 23 -33q50 0 226.5 146t264.5 239q26 27 58.5 62.5t48 52.5t34 34.5t31 24t23.5 6.5q28 0 28 -18q0 -15 -18 -46t-56 -89.5t-65 -106.5q-39 -72 -62.5 -123t-50.5 -120.5t-53 -128.5q-25 -58 -28 -66q127 67 163 88q75 44 189 114.5t145 88.5q41 24 60 24
q7 0 8.5 -2t1.5 -8q0 -4 -3 -9.5t-10 -12.5t-14 -13t-19 -15t-20.5 -15.5t-23.5 -17.5t-23 -17q-106 -79 -268 -172q-99 -55 -221 -113q-112 -257 -286 -678t-218 -520q-64 -145 -113 -145q-42 0 -80 94.5t-60 241.5t-22 299q0 84 22 159.5t51.5 131.5t90.5 114t104.5 93.5
t132 85t135 72.5t146.5 71q17 8 25 12q113 263 217 467q-77 -68 -170.5 -143t-211 -151.5t-167.5 -76.5q-45 0 -45 68q0 122 189 516q11 22 18 35t23.5 29t33.5 16q15 0 25 -14.5t10 -38.5q0 -3 -1 -9.5t-1 -9.5q-5 -29 -59.5 -129t-106 -202t-51.5 -142zM-43 -1225
q84 188 263 622.5t216 522.5q-76 -36 -129 -63t-120.5 -67t-113 -75.5t-94 -84.5t-77 -98.5t-46.5 -112.5t-18 -132q0 -115 18 -240.5t43.5 -204.5t45.5 -79q6 0 12 12zM627 911q-1 -26 -30.5 -47.5t-51.5 -21.5q-31 0 -31 47q0 29 12 56.5t37 27.5q23 0 43.5 -19.5
t20.5 -42.5zM705 883q1 26 29.5 52t54.5 39t32 13q12 0 20.5 -6.5t8.5 -15.5q0 -8 -10.5 -35t-34.5 -55.5t-51 -28.5q-21 0 -35 9.5t-14 27.5z" />
    <glyph glyph-name="Abreve" unicode="&#x102;" horiz-adv-x="1239" 
d="M299 485q0 82 64 144t141 65q59 77 219 295q108 147 206 294.5t148.5 230t97.5 151.5t80 96t68 27q80 0 80 -141q0 -95 -40.5 -236t-82.5 -242t-102 -233q-134 -295 -404 -801h10q188 0 400 129q15 9 43 26.5t44 27t36 21t32.5 16.5t20.5 5q10 0 10 -8q0 -13 -26 -35
t-87 -65q-251 -176 -469 -176q-31 0 -45 2q-68 -128 -118 -211q-46 -74 -82 -74q-10 0 -17.5 8.5t-7.5 20.5q0 28 27 65q63 88 82 211q-97 30 -171.5 88.5t-115.5 139.5q-59 -76 -144.5 -178t-137.5 -169.5t-89 -130.5q-22 -36 -43.5 -54.5t-36.5 -18.5q-22 0 -22 28
q0 40 55 121t171 226t173 223q6 9 19.5 27.5t19.5 27.5q-6 27 -6 57zM1114 1323h10q17 0 17 -14q0 -13 -13 -36.5t-32 -49t-43 -54t-43 -50.5t-35 -39.5t-17 -18.5q-32 -39 -86.5 -102t-130.5 -151.5t-127 -148.5q72 -63 86 -253q2 -27 2 -84q0 -89 -10 -177q12 -4 21 -4
q78 148 192 383t176 377q19 44 78 170.5t89.5 197t59.5 167t29 161.5q0 43 -13 80t-30 37q-17 1 -57 -46t-76 -109q-29 -49 -78.5 -121.5t-121.5 -173.5t-129 -179t-151.5 -206.5t-137.5 -188.5q12 0 18 -2q208 242 336 387q45 51 96 118t77 96.5t44 33.5zM399 399
q81 -175 236 -235q6 68 6 217q0 161 -70 227q-119 -141 -172 -209zM362 504q8 12 103 139q-36 -3 -69.5 -49t-33.5 -90zM518 637q-2 0 -6.5 1t-7.5 1q-38 -52 -96 -133q64 77 110 131zM1368 2146q9 11 30.5 24t37.5 13q20 0 20 -24q0 -25 -4 -37q-4 -15 -38.5 -58.5
t-39.5 -70.5q-4 -16 -4 -25q0 -25 11.5 -34t43.5 -9q58 0 126 51t75 84q2 6 2 17q0 6 -2 13.5t-2 12.5v8q4 9 10.5 19t27 26.5t42.5 16.5q31 0 31 -33q0 -14 -2 -22q-14 -65 -73 -123t-130 -89.5t-129 -31.5q-96 0 -96 80q0 20 6 47q19 85 57 145z" />
    <glyph glyph-name="abreve" unicode="&#x103;" horiz-adv-x="894" 
d="M563 518q2 4 7.5 13.5t7.5 13.5q-1 3 -6 17.5t-6.5 19.5t-7 18t-9.5 18t-12 14t-15.5 13t-18.5 7t-24 3q-58 0 -133 -68t-135.5 -158.5t-102.5 -179.5t-42 -132q0 -41 30 -41q45 0 195 144.5t272 297.5zM635 621q57 57 88 57q21 0 27 -29q0 -48 -97 -168l-8 -14
q-183 -288 -184 -361q0 -22 18 -22q46 0 164 63q48 26 138.5 83t154 94.5t78.5 37.5q12 0 12 -10q0 -22 -115.5 -103.5t-248.5 -152.5q-195 -102 -240 -102q-49 0 -49 86q0 74 73 213q-295 -299 -385 -299q-38 0 -58.5 28.5t-20.5 69.5q0 103 88.5 255.5t208 266
t200.5 113.5q61 0 101 -30.5t55 -75.5zM575 1077q9 11 30.5 24t37.5 13q21 0 21 -24q0 -22 -5 -37q-4 -15 -38 -58.5t-39 -70.5q-4 -16 -4 -25q0 -25 11.5 -34t43.5 -9q58 0 126 51t75 84q2 6 2 17q0 6 -2.5 13.5t-2.5 12.5v8q4 9 10.5 19t27 26.5t42.5 16.5q31 0 31 -33
q0 -14 -2 -22q-14 -65 -73 -123t-130 -89.5t-129 -31.5q-96 0 -96 80q0 20 6 47q19 85 57 145z" />
    <glyph glyph-name="Dcroat" unicode="&#x110;" horiz-adv-x="1554" 
d="M225 598q0 20 119 20q24 0 72 -1t69 -1q33 0 68 5q89 203 174 411q34 83 80 138t84 55q39 0 58.5 -28.5t19.5 -63.5q0 -44 -26.5 -98t-57.5 -89t-47 -35q0 5 14 25q61 100 61 164q0 41 -14 41q-20 0 -57.5 -53t-67.5 -134q-12 -33 -125 -311q210 57 240 62q10 0 24.5 1
t18.5 1q33 0 33 -15q0 -3 -26 -35.5t-69 -67t-77 -34.5q-7 0 -7 8q0 5 7.5 22t7.5 23q0 8 -10 8q-1 0 -25 -4q-60 -22 -145 -37q-35 -84 -101 -236.5t-82 -188.5q119 -48 213 -73.5t191 -25.5q140 71 248.5 193t166.5 267t58 288q0 157 -67.5 293.5t-180.5 229t-262 145.5
t-311 53q-51 0 -105 -15.5t-96.5 -50.5t-42.5 -82q0 -35 23 -71.5t55 -63.5q37 -32 37 -43q0 -4 -9 -4q-57 0 -121.5 70.5t-64.5 142.5q0 59 50 103t116 63.5t133 19.5q132 0 266 -37.5t251.5 -108.5t209 -164.5t144.5 -215t53 -250.5q0 -213 -116 -413.5t-308 -333.5
q136 30 302 100t288 145q56 35 73 35q15 0 15 -12q0 -14 -13.5 -35t-36.5 -37q-145 -100 -355.5 -177.5t-385.5 -84.5q-202 -102 -410 -102q-56 0 -108 12q-36 -96 -37 -98q-18 -48 -44 -77.5t-46 -29.5q-18 0 -18 29q0 28 20 78l49 122q-100 43 -170 134q-29 39 -29 77
q0 41 31 69t82 28q34 0 86 -19q29 -11 103 -43q27 64 81 190t80 189q-133 -20 -194 -20q-57 0 -79.5 15t-27.5 44zM498 -33q119 0 229 35q-125 15 -313 90q-24 -58 -45 -108q66 -17 129 -17zM133 152q0 -35 44 -76t114 -70l49 117q-19 7 -56.5 20.5t-56.5 20.5
q-38 12 -59 12q-35 0 -35 -24z" />
    <glyph glyph-name="dcroat" unicode="&#x111;" horiz-adv-x="1028" 
d="M563 53q-8 -19 -8 -33q0 -9 2 -26.5t2 -24.5q0 -22 -17 -34.5t-40 -12.5q-26 0 -44 22t-18 66q0 15 2 44.5t2 41.5q0 14 -4 33t-4 23q0 28 51 28q9 0 37 -20q5 21 35 94q37 84 64 135q-86 -71 -145.5 -117.5t-136.5 -100t-138 -81t-105 -27.5q-37 0 -53 18t-16 54
q0 63 40.5 157.5t71.5 135.5q58 78 147.5 168t125.5 90q24 0 24 -45q0 -5 -1 -15t-1 -14q161 72 273 72q35 0 59 -8q24 47 70 132.5t63 117.5q-161 -25 -227 -25q-57 0 -79.5 15t-27.5 45q0 20 119 20q24 0 72 -1t69 -1q40 0 68 4q3 1 10.5 2t15.5 2.5t15 3.5
q224 417 235 477q10 63 34 95t46 32q19 0 48.5 -89.5t29.5 -143.5q0 -33 -8 -64q-8 -33 -40.5 -94t-43.5 -61q-4 0 -4 8q0 24 27.5 92t27.5 94q0 25 -11 43.5t-24 18.5q-7 0 -14 -13q-30 -69 -201 -368q169 46 193 49q10 0 24.5 1t18.5 1q33 0 33 -14q0 -3 -26 -35.5
t-69 -67t-77 -34.5q-7 0 -7 8q0 5 7.5 22t7.5 23q0 8 -10 8q-1 0 -25 -4q-50 -16 -111 -31q-137 -242 -178 -319q2 -4 2 -17q0 -54 -51 -96q-2 -2 -7 -6t-7 -6q-56 -119 -138 -305l-32 -74q21 -6 47 -6q52 0 106 20q68 27 163.5 85.5t163 101.5t83.5 43q14 0 14 -11
q0 -10 -47 -51q-63 -52 -144 -104.5t-192 -100t-192 -47.5q-17 0 -25 2zM346 539q-67 -43 -145 -163t-78 -222q0 -8 5 -18.5t9 -10.5q56 10 193.5 102t254.5 198t117 148q0 11 -8.5 20t-21.5 9q-44 0 -102 -9.5t-98.5 -19.5t-83.5 -22z" />
    <glyph glyph-name="Itilde" unicode="&#x128;" horiz-adv-x="1355" 
d="M967 756q4 -20 4 -27q0 -33 -19 -33q-7 0 -20 13q-2 2 -22 18.5t-26.5 24t-22 33.5t-22 54.5t-12.5 79.5t-6 115q0 85 10.5 201t10.5 160v39q0 82 43 82q17 0 34.5 -14.5t26.5 -37.5q14 -36 19.5 -49.5t21.5 -51t26 -56t29 -51.5t34.5 -51t39 -41.5t46 -35.5t51 -21
t59.5 -9q20 0 59 8.5t72 23.5q20 22 72.5 85.5t80.5 91.5q154 158 261 234.5t155 76.5q31 0 31 -27q0 -46 -81 -154.5t-161 -174.5q-190 -153 -358 -203q-53 -64 -121.5 -165t-119.5 -183t-181 -293q-136 -220 -242 -400q233 42 465 175q45 26 119 73t116 70.5t60 23.5
q10 0 10 -8q0 -25 -70.5 -77.5t-211.5 -124.5q-104 -54 -184 -87t-131 -48.5t-162 -45.5q-8 -2 -23 -5t-22 -5q-81 -143 -91 -162q-138 -247 -161 -291q-9 -148 -59 -288t-128 -230q-59 -67 -96 -67q-18 0 -18 24q0 91 124 344q19 40 58.5 117t60.5 119q2 14 2 41
q0 123 -29 217t-114 180q-117 17 -190.5 49t-73.5 80q0 17 16.5 26t38.5 9q17 0 34 -4.5t42 -14.5t39 -14q72 -38 114 -78q129 -18 232 -18q88 0 153 8q64 109 265 432q24 38 123 199q134 228 276 403q-41 -6 -76 -6q-65 0 -122 30t-93 73t-63 85.5t-42.5 72.5t-19.5 30
q-14 0 -14 -186q0 -120 8 -183q5 -50 19 -90.5t29 -69.5t18 -40zM471 -328q34 70 152 275q-66 -4 -101 -4q-79 0 -184 10q98 -127 113 -320q3 6 10 19.5t10 19.5zM1616 1270q-52 -42 -84 -74q182 93 182 133q0 6 -4 10q-8 0 -39 -23.5t-55 -45.5zM315 -856q2 0 11.5 26
t24 77t24.5 104q-25 -54 -37 -88q-25 -67 -25 -103q0 -10 2 -16zM72 78q0 -25 100 -45l-49 37q-26 16 -39 16q-12 0 -12 -8zM1356 1733q-15 -10 -35 -29t-34 -29t-27 -10q-23 0 -23 37q0 38 45 74.5t104 56.5t105 20q27 0 43.5 -15t23.5 -36.5t12 -43.5t15 -37t27 -15t56 42
t81.5 84t67.5 42q9 0 16.5 -7.5t7.5 -17.5q0 -22 -43 -74t-104 -97.5t-103 -45.5q-28 0 -44 15t-21.5 36.5t-9 43t-12.5 36.5t-27 15q-56 0 -121 -45z" />
    <glyph glyph-name="itilde" unicode="&#x129;" horiz-adv-x="712" 
d="M-133 186q0 8 5 17.5t11.5 16t18.5 16t18.5 14t21 13.5t17.5 11q371 268 451 359q27 31 39 31q8 0 8 -17q0 -15 -21 -88q-9 -30 -35 -68.5t-55.5 -76.5t-57.5 -81t-46.5 -98t-18.5 -112q0 -51 49 -51q34 2 142 55q56 26 152.5 86.5t168.5 104.5t88 44q15 0 15 -10
t-28.5 -36t-66.5 -52q-5 -3 -62 -41.5t-78.5 -52t-76 -48t-85.5 -50.5t-74.5 -37t-76.5 -30t-59 -9q-50 0 -76 32.5t-26 75.5q0 42 15.5 100t35.5 112.5t21 56.5q-14 -9 -64 -46.5t-107 -75.5t-112 -65q-20 -10 -33 -10q-18 0 -18 10zM334 938q-15 -10 -35 -29t-34 -29
t-27 -10q-23 0 -23 37q0 38 45 74.5t104 57t105 20.5q27 0 43.5 -15t23.5 -37t12 -44t15 -37t27 -15t56 42t81.5 84t67.5 42q9 0 16.5 -7t7.5 -17q0 -22 -43 -74t-104 -97.5t-103 -45.5q-28 0 -44 15t-21.5 36t-9 42.5t-12.5 36.5t-27 15q-56 0 -121 -45z" />
    <glyph glyph-name="dotlessi" unicode="&#x131;" horiz-adv-x="712" 
d="M-133 186q0 8 5 17.5t11.5 16t18.5 16t18.5 14t21 13.5t17.5 11q371 268 451 359q27 31 39 31q8 0 8 -17q0 -15 -21 -88q-9 -30 -35 -68.5t-55.5 -76.5t-57.5 -81t-46.5 -98t-18.5 -112q0 -51 49 -51q34 2 142 55q56 26 152.5 86.5t168.5 104.5t88 44q15 0 15 -10
t-28.5 -36t-66.5 -52q-5 -3 -62 -41.5t-78.5 -52t-76 -48t-85.5 -50.5t-74.5 -37t-76.5 -30t-59 -9q-50 0 -76 32.5t-26 75.5q0 42 15.5 100t35.5 112.5t21 56.5q-14 -9 -64 -46.5t-107 -75.5t-112 -65q-20 -10 -33 -10q-18 0 -18 10z" />
    <glyph glyph-name="Lslash" unicode="&#x141;" horiz-adv-x="1462" 
d="M1087 1217q-32 -70 -249 -539q20 2 59 10q52 10 96 10q25 0 25 -20q-7 -31 -35 -52.5t-57 -21.5q-11 0 -29 8.5t-45 8.5q-7 0 -21.5 -1.5t-21.5 -1.5q-38 -81 -154 -319q-90 -183 -151 -301q171 -98 336 -98q87 0 199.5 29t197.5 77q-47 6 -47 25q2 11 46.5 30t76.5 19
q33 0 33 -21q0 -17 -20.5 -42.5t-37.5 -36.5q-89 -59 -223.5 -99.5t-233.5 -40.5q-172 0 -358 103q-161 -301 -205 -301q-14 0 -27 14t-20.5 29t-19.5 41q-150 334 -150 475q0 41 7.5 58t27.5 17q16 0 79.5 -43t157 -112t123.5 -90q128 251 281 573q-75 -14 -119 -14
q-27 0 -42 15t-15 38q0 15 6 21q6 4 31 5t75 1.5t85 1.5h10q162 346 278 622.5t129 356.5q6 37 22.5 66.5t33.5 29.5q36 0 36 -113q0 -89 -24.5 -194t-42.5 -105q-8 0 -14 27t-9 27t-8 -7.5t-13 -25t-15.5 -35t-20.5 -49t-23 -55.5zM287 -264q37 62 131 239q-42 24 -90 60
q-34 24 -81 59t-72.5 53.5t-37.5 24.5q-4 2 -8 2q-8 0 -8 -12q0 -53 66.5 -221.5t99.5 -204.5z" />
    <glyph glyph-name="lslash" unicode="&#x142;" horiz-adv-x="698" 
d="M-137 190q0 7 9 16.5t29 24.5t39.5 28.5t52 35.5t56.5 39q135 94 227 174q35 97 107 278q-78 -4 -92 -4q-27 0 -42.5 15.5t-15.5 38.5q0 7 0.5 11t1.5 5t2.5 2t2.5 2q12 4 51 4q13 0 54.5 -1t68.5 -1q71 169 166 373q65 139 146 262t151 199t127 119.5t86 43.5t45 -25
t16 -67q0 -31 -25 -109.5t-74.5 -194.5t-145 -275.5t-216.5 -313.5q12 1 70 11q52 10 96 10q25 0 25 -21q-7 -31 -35.5 -52t-57.5 -21q-11 0 -28.5 8t-44.5 8q-12 0 -74 -4q-54 -65 -86 -100q-68 -79 -207 -207q-77 -230 -94 -377v-8q0 -33 37 -33q52 0 141.5 46
t166.5 100.5t145.5 100.5t84.5 46q15 0 15 -10q0 -11 -16 -30t-31 -32q-77 -64 -286.5 -191.5t-285.5 -127.5q-61 0 -61 90q0 101 80 336q-165 -135 -324 -224q-24 -12 -39 -12q-18 0 -18 14zM479 858l129 4q142 183 253.5 377.5t160.5 318.5t49 173q0 24 -14 24
q-49 0 -181.5 -183t-238.5 -380q-68 -126 -158 -334zM561 803q-70 -4 -108 -10q-15 -36 -40.5 -106.5t-29.5 -80.5q59 56 135 146q7 8 21.5 25.5t21.5 25.5z" />
    <glyph glyph-name="OE" unicode="&#x152;" horiz-adv-x="2447" 
d="M1262 844q4 -2 4 -8v-9q0 -8 18 -8q26 0 80 10q8 1 53.5 9t71.5 12q120 253 135 518q-100 21 -143 53q-20 13 -55 31.5t-49.5 30.5t-14.5 30q0 24 18.5 42t40.5 18q13 0 31 -16.5t36.5 -37t55.5 -43t82 -32.5q-2 97 -28 152t-91 55q-66 0 -141 -39t-140.5 -97.5
t-129.5 -133t-109 -139t-78 -122.5q-90 -153 -160.5 -343.5t-93.5 -368.5q-4 -34 -5 -116.5t-7 -139.5t-22 -70q-33 62 -33 184q0 212 67 418t195 446q32 60 81 132.5t121.5 158.5t148.5 154.5t166 115t171 46.5q172 0 172 -246q0 -12 -1 -33t-1 -31q23 -4 84 -4
q79 0 174 23.5t185 57.5t183 68t197.5 57.5t198.5 23.5q96 0 152.5 -26t56.5 -58q0 -54 -73.5 -120.5t-112.5 -66.5q-17 0 -17 4q0 8 22 24t48.5 32.5t48.5 44.5t22 59t-110 31q-123 0 -262 -31q-72 -17 -222.5 -68.5t-288 -87.5t-249.5 -36q-29 0 -43 2q-23 -248 -139 -498
q144 16 268 16q113 0 204 -8t136 -19.5t45 -23.5q0 -14 -13 -27.5t-26 -13.5q-5 0 -25.5 8t-59 15.5t-87.5 7.5q-7 0 -75 -3.5t-188 -11t-218 -16.5q-129 -253 -340 -479l43 -12q3 -1 140.5 -45t244.5 -78.5t241 -80.5t199 -73q18 -6 33 -6q31 0 65 26.5t39 26.5
q10 0 17.5 -21t7.5 -40q0 -34 -18 -62t-66 -28q-14 0 -31 4t-29 9t-31.5 13.5t-29.5 12.5q-62 23 -204.5 76.5t-228 84.5t-213 70t-237.5 64q-113 -106 -247 -187q2 -53 9 -103t17 -50q6 0 19.5 5t19.5 5q19 0 19 -25q0 -37 -33 -91t-60 -54t-42 64t-15 161q0 36 2 54
q-187 -97 -311 -97q-102 0 -174 75t-72 224q0 253 170 598q35 72 77.5 148t96 161t105.5 139t88 54q18 0 36.5 -10t18.5 -27q0 -20 -19.5 -58t-46.5 -61q-111 -96 -168 -188q-16 -25 -36 -71.5t-33 -78.5t-15 -32q-8 8 -8 26q0 39 40.5 109t89 131t89 113t41.5 59q0 8 -8 8
q-16 0 -35 -16q-55 -58 -105 -135.5t-75 -125.5t-74 -147q-149 -301 -149 -522q0 -86 20.5 -154.5t66.5 -112.5t112 -44q119 0 284 98q19 105 74 168t152 63q19 0 65 -4l6 6q209 225 334 457q-119 -12 -184 -28q-66 -17 -105 -17q-59 0 -59 35t45.5 58.5t87.5 23.5
q13 0 25 -4zM1016 258q-118 0 -135 -133q100 65 172 131q-7 0 -20 1t-17 1z" />
    <glyph glyph-name="oe" unicode="&#x153;" horiz-adv-x="1335" 
d="M1141 627q0 -52 -33.5 -102t-80.5 -86.5t-112.5 -71.5t-115.5 -55t-103 -38q-2 -16 -2 -55q0 -72 30.5 -116t90.5 -44q70 0 172 44t185 96.5t160.5 102t99.5 56.5l6 1q6 1 10 1q14 0 14 -8q0 -11 -20.5 -31t-42.5 -34q-8 -5 -65 -45t-93.5 -64t-103.5 -63.5t-118 -63
t-113 -41.5t-111 -18q-90 0 -137.5 69t-47.5 162q-102 -128 -223 -212.5t-225 -84.5q-46 0 -70 32.5t-24 76.5q0 64 46 174.5t83 150.5q-245 -163 -260 -163q-33 0 -33 14q0 22 26 39q242 179 385 262q51 27 52 27q6 10 39 53q51 60 110.5 96.5t95.5 36.5q71 0 114.5 -34
t47.5 -97q122 129 266 129q42 0 71.5 -30t29.5 -66zM528 250q-98 0 -148 44t-50 114v12q-63 -71 -101 -123q-21 -26 -53.5 -104t-32.5 -132q0 -69 62 -69q50 0 150.5 76t187.5 182h-15zM535 315q34 0 61 2q96 138 96 248q0 39 -24 61.5t-62 22.5q-35 0 -80 -27t-82 -73
q-51 -61 -51 -125q0 -52 44.5 -80.5t97.5 -28.5zM715 338q59 21 116 49.5t109.5 63.5t84.5 76t32 81q0 20 -17 31.5t-43 11.5q-85 0 -166.5 -95t-115.5 -218z" />
    <glyph glyph-name="Scaron" unicode="&#x160;" horiz-adv-x="1249" 
d="M973 772q-10 -17 -18 -39.5t-12.5 -34.5t-8.5 -12q-10 0 -10 25q0 76 34 118q16 20 62 67.5t85.5 92.5t81.5 103t66.5 123t24.5 128q0 173 -150 173q-65 0 -157.5 -33t-173.5 -84q-61 -38 -100 -64.5t-90 -70t-80.5 -83.5t-50.5 -95t-21 -115q0 -55 29 -112.5t75.5 -109
t95 -98t96.5 -97t70 -87.5q41 -66 41 -154q0 -132 -74 -241q60 12 127 43q64 31 110 55t90.5 50.5t62 38t70.5 47.5t71 48q56 39 80 39q16 0 16 -16q0 -36 -164.5 -140t-369.5 -194q-70 -30 -152 -39q-63 -59 -146.5 -91t-166.5 -32q-102 0 -196 49t-147 118.5t-53 133.5
q0 36 22.5 63t55.5 27q20 0 54.5 -22t80 -53.5t102.5 -63.5t141 -54t177 -22h19q44 43 69 98t25 111q0 48 -11.5 90.5t-28 73.5t-49.5 67.5t-59 60.5t-75 65q-68 56 -120 140t-52 185q0 88 44.5 173.5t111.5 151.5t153 124.5t161 96t144 62.5q109 39 184 39
q92 0 143.5 -58.5t51.5 -150.5q0 -79 -36 -164t-90.5 -155t-108.5 -128t-100 -104t-56 -63zM426 -45q97 0 178 49q-106 6 -216.5 34.5t-167.5 53.5l-58 25q-10 0 -10 -8q0 -14 22 -39t57.5 -51t88.5 -45t106 -19zM1067 2001q6 15 22 28t31 13q31 0 31 -74q0 -23 -4 -73.5
t-4 -71.5q0 -68 26 -68q27 0 76 33q67 46 150 118t134.5 113t76.5 41q26 0 26 -20q0 -26 -23 -51.5t-61 -38.5q-26 -9 -82 -54.5t-110 -93t-116 -86.5t-103 -39q-23 0 -39 39t-23 97t-9.5 100t-2.5 72q0 4 4 16z" />
    <glyph glyph-name="scaron" unicode="&#x161;" horiz-adv-x="727" 
d="M289 356v90q-5 -5 -25 -20q-67 -56 -170 -118t-133 -62q-10 0 -10 8q0 15 18 27q202 137 322 241q7 68 31 121q24 55 75 94t95 39q15 0 24.5 -9t9.5 -24q0 -87 -157 -229q1 -31 7.5 -87.5t6.5 -88.5q0 -109 -29 -168q-20 -42 -53 -84q0 -4 4 -4q23 0 29 6
q127 56 214.5 103t194.5 120q26 17 59.5 34t43.5 17q12 0 12 -10q0 -22 -93 -87t-220 -134q-126 -68 -239 -113t-165 -45q-88 0 -150.5 50t-62.5 94q0 20 18.5 34.5t39.5 14.5q19 0 36 -19t28 -42.5t31 -42.5t46 -19q49 0 87 47t56.5 117.5t18.5 148.5zM446 713q0 1 -5 -4
t-12.5 -15.5t-16 -23.5t-17 -30.5t-14.5 -35.5q65 72 65 109zM451 1176q6 15 22 28t31 13q31 0 31 -74q0 -23 -4.5 -74t-4.5 -72q0 -67 27 -67t76 33q67 46 150 118t134 113t76 41q27 0 27 -21q0 -26 -23 -51.5t-61 -38.5q-22 -8 -62 -39t-84.5 -69.5t-91.5 -76t-94 -62.5
t-80 -25q-23 0 -39 39t-23 96.5t-9.5 99.5t-2.5 72q0 2 5 17z" />
    <glyph glyph-name="Utilde" unicode="&#x168;" horiz-adv-x="1439" 
d="M854 1180q-7 -24 -18.5 -35.5t-22.5 -11.5q-10 0 -10 12q0 25 17.5 89.5t17.5 92.5q0 55 -21 55q-27 0 -117 -182q-340 -695 -407 -932q-35 -119 -35 -166q0 -39 29 -39q48 0 295.5 156.5t488.5 347.5q145 301 338 615q139 223 352 489t250 266q47 0 47 -57
q-1 -78 -61 -223t-115 -250q-173 -324 -442 -588q-126 -123 -281 -248q-96 -202 -158.5 -363t-62.5 -218q0 -17 12 -17t47 23q27 20 61 48.5t50.5 40t26.5 11.5q3 0 8.5 -4.5t5.5 -7.5q0 -8 -16 -22t-53 -47.5t-72 -71.5q-83 -90 -138 -90q-32 0 -32 41q0 68 38 203t123 317
q4 8 11.5 24.5t11.5 24.5q-350 -270 -612 -428q-118 -72 -174 -72q-68 0 -68 94q0 62 27 164q43 169 192.5 484t300.5 602q94 182 148 182q23 0 40 -34.5t17 -72.5q0 -77 -39 -202zM1268 793q-55 -107 -56 -109q5 4 66 57q293 265 545 686q58 99 103.5 197.5t45.5 140.5
q0 25 -18 25q-10 0 -39 -24.5t-83.5 -88.5t-115.5 -153q-293 -426 -448 -731zM1171 1860q-15 -10 -35 -29t-34 -29t-27 -10q-22 0 -22 37q0 38 45 74.5t104 56.5t105 20q33 0 51 -23t22 -50.5t15 -50.5t32 -23q17 0 56 42t81.5 84t67.5 42q9 0 17 -7.5t8 -17.5
q0 -22 -43 -74t-104 -97.5t-103 -45.5q-34 0 -51.5 23t-19.5 50t-12 50t-32 23q-56 0 -121 -45z" />
    <glyph glyph-name="utilde" unicode="&#x169;" horiz-adv-x="1087" 
d="M303 563q-11 -21 -51 -79t-72.5 -108t-60 -116t-27.5 -115q0 -36 37 -36q25 0 92 26q55 24 192.5 135t207.5 181q43 42 87.5 108t75 100.5t66.5 34.5q9 0 16.5 -8.5t7.5 -21.5q0 -28 -28 -74t-75.5 -111t-68.5 -100q-73 -120 -73 -219q0 -14 1 -22.5t4 -20t12.5 -17.5
t23.5 -6q42 0 105 26.5t110 54t123.5 76t99.5 62.5q40 25 49 25q10 0 17.5 -5.5t7.5 -13.5q0 -21 -158 -122q-265 -170 -381 -170q-50 0 -76 37.5t-26 97.5q0 33 9.5 91t10.5 66q-103 -103 -252 -194.5t-217 -91.5q-43 0 -68.5 31.5t-25.5 82.5q0 69 56.5 188.5t129 211.5
t113.5 92q20 0 20 -25q0 -23 -14 -51zM506 934q-15 -10 -35 -29t-34 -29t-27 -10q-23 0 -23 37q0 38 45 74.5t104 57t105 20.5q27 0 43.5 -15t23.5 -37t12 -44t15 -37t27 -15t56 42t81.5 84t67.5 42q9 0 16.5 -7t7.5 -17q0 -22 -43 -74t-104 -97.5t-103 -45.5q-28 0 -44 15
t-21.5 36t-9 42.5t-12.5 36.5t-27 15q-56 0 -121 -45z" />
    <glyph glyph-name="Ydieresis" unicode="&#x178;" horiz-adv-x="1255" 
d="M647 -94l-86 -37q-145 -387 -145 -700q0 -38 7 -112.5t7 -111.5q0 -63 -47 -63q-55 0 -164 73t-212.5 168.5t-182 190.5t-78.5 135q0 42 45 88t147.5 102t167.5 87.5t205 93.5q9 4 13 6q33 16 96.5 44.5t79.5 35.5q119 304 295.5 603.5t332.5 502.5q-24 -17 -94 -73.5
t-119 -92.5t-117 -68.5t-120 -32.5q-48 0 -83 35t-49.5 76t-25.5 82.5t-14 46.5q-12 -17 -19.5 -56.5t-9.5 -67t-2 -46.5q0 -64 27 -137q4 -12 11.5 -28.5t12 -28.5t4.5 -19q0 -12 -30 -12q-109 0 -109 211q0 85 38.5 219.5t80 247t43.5 127.5q17 110 51 110q17 0 28 -26
t11 -62q0 -25 -42 -151t-42 -187q0 -36 6 -76t20.5 -86t46 -76t75.5 -30q54 0 153.5 68t180.5 142t145 142q50 53 120.5 137.5t114 137.5t92 94t80.5 41q25 0 40.5 -9.5t15.5 -27.5q0 -8 -5.5 -17.5t-12 -16.5t-23 -23t-27.5 -27q-111 -112 -239.5 -271t-264 -354
t-265 -427.5t-218.5 -452.5q313 143 516 262q42 24 96.5 61.5t86.5 57.5t46 20q13 0 13 -10q0 -28 -103.5 -103.5t-271 -167.5t-330.5 -161zM336 -236q-26 -12 -76.5 -34.5t-77.5 -35t-71 -33t-68.5 -34t-57 -33t-51 -35t-36.5 -34t-25.5 -37t-7.5 -37.5q0 -37 56 -111.5
t130 -146t151.5 -126t116.5 -54.5q25 0 25 31q0 24 -3 71t-3 70q0 276 133 643q-25 -13 -72.5 -35t-62.5 -29zM1063 1759q-1 -26 -30.5 -47.5t-51.5 -21.5q-31 0 -31 47q0 29 12 56.5t37 27.5q23 0 43.5 -19.5t20.5 -42.5zM1141 1731q1 26 29.5 52t54.5 39t32 13
q12 0 20.5 -7t8.5 -16q0 -19 -28.5 -68.5t-67.5 -49.5q-21 0 -35 9.5t-14 27.5z" />
    <glyph glyph-name="Zcaron" unicode="&#x17d;" horiz-adv-x="1562" 
d="M555 709q32 -7 55 -7q10 0 21 0.5t26 2.5t27.5 3.5t35 5t38 6.5t46.5 8.5t51 9.5t61.5 11.5t68.5 12.5q11 0 23 4q502 502 845 774q-59 -13 -572.5 -169.5t-514.5 -168.5q0 -4 5 -14t5 -14q0 -5 -2 -7q-18 -12 -37 -12q-30 0 -56 27.5t-26 54.5q0 16 14.5 29.5t43.5 17.5
q115 17 522.5 134t560.5 177q108 41 190 84.5t123 75t72 57.5t56.5 41.5t56.5 18.5q16 0 16 -19q-4 -36 -66.5 -101t-179.5 -130q-122 -67 -927 -831q810 152 936 184q49 12 75 12q39 0 39 -20q0 -23 -36 -55.5t-56 -32.5q-5 0 -31 -3.5t-47 -3.5q-71 0 -157.5 -9.5
t-206 -32.5t-189.5 -37.5t-226 -50t-198 -44.5q-21 -21 -62 -60.5t-60 -57.5q-158 -155 -355 -373q215 49 420 49q92 0 177 -19t142 -47.5t91 -61.5t34 -62q0 -44 -45 -75.5t-75 -31.5q-41 0 -75 33.5t-34 66.5q0 23 21 33q1 1 20 -12t44.5 -27t39.5 -14q9 0 12 10
q0 21 -28.5 46t-74 47.5t-109 37.5t-126.5 15q-236 0 -499 -62q-76 -87 -152.5 -177t-177 -211t-125.5 -151q-66 -78 -128 -159t-95.5 -128t-65 -87.5t-55 -57t-47.5 -16.5q-39 0 -91 31.5t-89 66.5q-39 36 -39 94q0 220 397 535q250 199 619 305q244 269 466 494
q-239 -51 -356 -51q-32 0 -56 7t-35 16.5t-17.5 22t-7.5 19.5t-1 14q0 21 29 21q10 0 84 -12zM-20 -381q139 190 397 481q-166 -53 -325.5 -145t-277 -196t-189.5 -214.5t-72 -199.5q0 -29 36.5 -75t90.5 -46q46 0 340 395zM1505 2001q6 15 22.5 28t31.5 13q30 0 30 -74
q0 -23 -4 -73.5t-4 -71.5q0 -68 27 -68q26 0 75 33q67 46 150 118t134.5 113t76.5 41q27 0 27 -20q0 -26 -23 -51.5t-61 -38.5q-31 -11 -111.5 -80.5t-164.5 -131t-136 -61.5q-23 0 -39 39t-23 97t-9.5 100t-2.5 72q0 4 4 16z" />
    <glyph glyph-name="zcaron" unicode="&#x17e;" horiz-adv-x="790" 
d="M-102 231q10 7 79.5 56.5t93.5 67.5t86 64t94.5 74t79 68.5t79 76.5t57.5 71q26 39 65 39q23 0 39.5 -16.5t16.5 -43.5q0 -46 -47.5 -160t-89.5 -182q-14 -23 -58 -82q86 -39 111 -153q153 101 278 176t140 75q12 0 12 -10q0 -7 -6.5 -16.5t-21.5 -23t-31.5 -27
t-44 -32.5t-51 -35.5t-60 -41t-64 -42.5t-70 -46t-71.5 -47v-10q0 -126 -76 -307t-184.5 -341t-239 -273.5t-229.5 -113.5q-96 0 -96 150q0 78 30.5 164.5t73 156t97.5 138t95.5 109t75.5 71.5q124 110 381 283q-11 121 -102 131q-38 -43 -74 -76q-72 -60 -108 -60
q-20 0 -31.5 12t-11.5 31q0 46 66 105.5t149 62.5q55 69 94 144q22 45 46 109.5t24 88.5q0 11 -5 11t-20 -15q-101 -104 -260.5 -231t-290.5 -195q-25 -10 -31 -10q-20 0 -20 12q0 21 31 43zM100 -264q-52 -48 -106.5 -111.5t-108.5 -140.5t-88.5 -161.5t-34.5 -153.5
q0 -91 54 -91q24 0 65 23q87 51 182.5 153t176 224t137 261.5t65.5 256.5q-231 -156 -342 -260zM221 156q13 7 35 30q-70 -23 -70 -39q0 -4 11 -4t24 13zM524 1153q6 15 22.5 28t31.5 13q30 0 30 -74q0 -23 -4 -73.5t-4 -71.5q0 -68 27 -68q26 0 75 33q67 46 150 118
t134.5 113t76.5 41q27 0 27 -20q0 -26 -23 -51.5t-61 -38.5q-31 -11 -111.5 -80.5t-164.5 -131t-136 -61.5q-23 0 -39 39t-23 97t-9.5 100t-2.5 72q0 4 4 16z" />
    <glyph glyph-name="florin" unicode="&#x192;" horiz-adv-x="845" 
d="M356 614q-47 0 -64.5 15.5t-20.5 39.5t-11 31q0 11 14 11q12 0 46 -9.5t45 -9.5q96 0 198 13q52 104 109 237q14 36 30.5 89t28.5 89.5t30.5 80t42 73t57 55.5t82.5 38.5t112 12.5q75 0 121.5 -27t46.5 -83q0 -44 -33.5 -79t-73 -50.5t-78.5 -20.5q-51 0 -51 17
q0 14 23.5 22t51.5 12t51.5 23t23.5 53q0 74 -136 74q-43 0 -85 -27.5t-68 -74.5q-18 -32 -64.5 -165.5t-85.5 -217.5q-9 -18 -27 -57t-28 -60q67 15 172 49q42 10 59 10q33 0 35 -22q0 -4 -2 -10t-12 -22.5t-26 -29t-49 -22.5t-77 -10q-75 0 -133 -7q-220 -415 -415 -551
q-11 -7 -39 -26.5t-36.5 -25t-31.5 -17t-39.5 -15t-43 -7t-58.5 -3.5q-40 0 -71.5 28t-31.5 54q0 45 31 45q9 0 36.5 -17.5t57.5 -17.5q88 0 154.5 30t150.5 122q113 121 256 387q-32 -7 -114 -20q-40 -7 -60 -7z" />
    <glyph glyph-name="Ohorn" unicode="&#x1a0;" 
d="M784 1169q-121 -113 -168 -188q-16 -25 -36 -71.5t-33 -78.5t-15 -32q-8 8 -8 26q0 39 40.5 109t89 131t89 113t41.5 59q0 8 -8 8q-16 0 -35 -16q-55 -58 -105 -135.5t-75 -125.5t-74 -147q-149 -301 -149 -522q0 -86 20.5 -154.5t66.5 -112.5t112 -44q68 0 155.5 34.5
t167.5 87.5t147 107.5t111 101.5q508 546 508 1119q0 64 -9 108t-36.5 74.5t-73.5 30.5q-66 0 -141 -39t-140.5 -97.5t-129.5 -133t-109 -139t-78 -122.5q-90 -153 -160.5 -343.5t-93.5 -368.5q-4 -34 -5 -116.5t-7 -139.5t-22 -70q-33 62 -33 184q0 212 67 418t195 446
q32 60 81 132.5t121.5 158.5t148.5 154.5t166 115t171 46.5q126 0 158 -129q68 35 94 61q17 18 27 29.5t18.5 22.5t12 15.5t7 14.5t4 11.5t2.5 14.5t3 17q0 5 -9 8q-13 1 -64 -19t-67 -18q-22 3 -35.5 11.5t-13.5 17.5q6 33 84.5 55.5t136.5 14.5q24 -1 32.5 -22.5
t2.5 -51.5q-8 -57 -20 -76q-34 -49 -94.5 -91t-112.5 -56q6 -35 6 -76q0 -314 -146.5 -629t-398.5 -579q-72 -75 -178.5 -153.5t-242.5 -141t-240 -62.5q-102 0 -174 75t-72 224q0 253 170 598q35 72 77.5 148t96 161t105.5 139t88 54q18 0 36.5 -10t18.5 -27
q0 -20 -19.5 -58t-46.5 -61z" />
    <glyph glyph-name="ohorn" unicode="&#x1a1;" horiz-adv-x="915" 
d="M528 106h-24q-189 -180 -342 -180q-46 0 -70 32.5t-24 76.5q0 64 46 174.5t83 150.5q-245 -163 -260 -163q-33 0 -33 14q0 22 26 39q242 179 385 262q31 19 50 25q50 82 126 135t121 53q66 0 108.5 -30.5t51.5 -86.5q52 31 68 47q16 18 26.5 29.5t18.5 22.5t12 15.5t7 14
t4 12t2.5 14.5t2.5 17q0 5 -8 8q-13 1 -64 -18.5t-67 -17.5q-23 3 -36 11t-13 17q6 33 84.5 55.5t136.5 14.5q24 -1 32.5 -22.5t2.5 -51.5q-8 -57 -20 -76q-31 -43 -84.5 -82t-104.5 -59q-7 -82 -66 -189t-147 -206q95 9 141 24q64 22 143.5 66.5t134.5 76t79 31.5q6 0 6 -6
q0 -17 -57.5 -62t-122.5 -79q-108 -55 -189.5 -82t-165.5 -27zM410 225q23 -33 67 -49q93 95 154 198.5t61 190.5q0 39 -24 61.5t-62 22.5q-31 0 -70.5 -22t-76 -59.5t-61.5 -96t-25 -123.5q0 -78 37 -123zM309 346q0 21 4 57q-22 -27 -84 -106q-21 -26 -53.5 -104
t-32.5 -132q0 -69 62 -69q34 0 93.5 36.5t125.5 96.5q-115 49 -115 221z" />
    <glyph glyph-name="Uhorn" unicode="&#x1af;" horiz-adv-x="1439" 
d="M854 1180q-7 -24 -18.5 -35.5t-22.5 -11.5q-10 0 -10 12q0 25 17.5 89.5t17.5 92.5q0 55 -21 55q-27 0 -117 -182q-340 -695 -407 -932q-35 -119 -35 -166q0 -39 29 -39q48 0 295.5 156.5t488.5 347.5q145 301 338 615q139 223 352 489t250 266q47 0 47 -57
q0 -4 -1 -13.5t-1 -13.5q54 30 76 52q17 18 27 29.5t18.5 22.5t12 15.5t7 14.5t4 11.5t2.5 14.5t3 17q0 5 -8 8q-13 1 -64.5 -19t-67.5 -18q-22 3 -35.5 11.5t-13.5 17.5q6 33 84.5 55t136.5 14q24 -1 32.5 -22.5t2.5 -51.5q-8 -56 -20 -75q-34 -49 -94.5 -91.5
t-112.5 -56.5q-36 -145 -164 -395q-173 -324 -442 -588q-126 -123 -281 -248q-96 -202 -158.5 -363t-62.5 -218q0 -17 12 -17t47 23q27 20 61 48.5t50.5 40t26.5 11.5q3 0 8.5 -4.5t5.5 -7.5q0 -8 -16 -22t-53 -47.5t-72 -71.5q-83 -90 -138 -90q-32 0 -32 41q0 68 38 203
t123 317q4 8 11.5 24.5t11.5 24.5q-350 -270 -612 -428q-118 -72 -174 -72q-68 0 -68 94q0 62 27 164q43 169 192.5 484t300.5 602q94 182 148 182q23 0 40 -34.5t17 -72.5q0 -77 -39 -202zM1268 793q-55 -107 -56 -109q5 4 66 57q293 265 545 686q58 99 103.5 197.5
t45.5 140.5q0 25 -18 25q-10 0 -39 -24.5t-83.5 -88.5t-115.5 -153q-293 -426 -448 -731z" />
    <glyph glyph-name="uhorn" unicode="&#x1b0;" horiz-adv-x="1087" 
d="M303 563q-11 -21 -51 -79t-72.5 -108t-60 -116t-27.5 -115q0 -36 37 -36q25 0 92 26q55 24 192.5 135t207.5 181q43 42 87.5 108t75 100.5t66.5 34.5q9 0 16.5 -8.5t7.5 -21.5q0 -22 -16 -54q62 36 82 56q17 18 27 29.5t18.5 22.5t12 15.5t7 14.5t4 11.5t2.5 14.5t3 17
q0 5 -8 8q-13 1 -64.5 -19t-67.5 -18q-22 3 -35.5 11.5t-13.5 17.5q6 33 85 55t137 14q24 -1 32 -22.5t2 -51.5q-8 -56 -20 -75q-38 -56 -112.5 -103.5t-121.5 -50.5q-12 -16 -39.5 -53.5t-48.5 -68t-37 -56.5q-73 -120 -73 -219q0 -14 1 -22.5t4 -20t12.5 -17.5t23.5 -6
q42 0 105 26.5t110 54t123.5 76t99.5 62.5q40 25 49 25q10 0 17.5 -5.5t7.5 -13.5q0 -21 -158 -122q-265 -170 -381 -170q-50 0 -76 37.5t-26 97.5q0 33 9.5 91t10.5 66q-103 -103 -252 -194.5t-217 -91.5q-43 0 -68.5 31.5t-25.5 82.5q0 69 56.5 188.5t129 211.5t113.5 92
q20 0 20 -25q0 -23 -14 -51z" />
    <glyph glyph-name="circumflex" unicode="&#x2c6;" horiz-adv-x="696" 
d="M418 946q67 22 145 90t127 138q11 16 22 40t20 32.5t28 8.5q35 0 35 -122q0 -25 2 -81t2 -89q0 -50 -7 -84t-31 -59t-67 -25q-16 0 -16 14q0 13 14 27q19 16 28 107.5t9 166.5q0 27 -2 27q-225 -283 -367 -283q-22 0 -39.5 8.5t-17.5 22.5q0 15 14.5 26.5t29.5 16.5
t40.5 10.5t30.5 7.5z" />
    <glyph glyph-name="caron" unicode="&#x2c7;" horiz-adv-x="782" 
d="M449 1153q6 15 22 28t31 13q30 0 30 -74q0 -23 -4 -73.5t-4 -71.5q0 -68 27 -68t76 33q67 46 150 118t134 113t76 41q27 0 27 -20q0 -26 -23 -51.5t-61 -38.5q-31 -11 -111.5 -80.5t-164.5 -131t-136 -61.5q-23 0 -39 39t-23 97t-9.5 100t-2.5 72q0 1 5 16z" />
    <glyph glyph-name="breve" unicode="&#x2d8;" horiz-adv-x="630" 
d="M432 1110q9 11 30.5 24t37.5 13q20 0 20 -25t-4 -37q-4 -15 -38.5 -58.5t-39.5 -70.5q-4 -16 -4 -24q0 -25 11.5 -34t43.5 -9q58 0 126 51t75 84q2 6 2 16q0 6 -2 14t-2 13v8q4 9 10.5 19t27 26.5t42.5 16.5q31 0 31 -33q0 -15 -2 -23q-14 -65 -73 -122.5t-130 -89
t-129 -31.5q-96 0 -96 80q0 20 6 47q19 85 57 145z" />
    <glyph glyph-name="dotaccent" unicode="&#x2d9;" horiz-adv-x="444" 
d="M483 922q-13 14 -23.5 42.5t-10.5 53.5q0 33 21.5 63.5t45.5 30.5q37 0 37 -80q0 -50 -16 -84.5t-41 -34.5q-7 0 -13 9z" />
    <glyph glyph-name="ring" unicode="&#x2da;" horiz-adv-x="610" 
d="M776 1079q0 -54 -54 -111.5t-127.5 -93.5t-129.5 -36q-34 0 -69.5 16.5t-35.5 50.5q0 11 25 29v10q0 69 84 146t172 77q68 0 101.5 -25t33.5 -63zM502 1036q-7 -8 -25 -44.5t-33 -51.5q5 -2 27.5 -10.5t37 -12.5t26.5 -4q43 0 101 52.5t58 95.5q0 21 -13 36t-40 15
q-37 0 -75.5 -20t-63.5 -56z" />
    <glyph glyph-name="ogonek" unicode="&#x2db;" horiz-adv-x="694" 
d="M182 59q25 -13 25 -30q0 -27 -39.5 -66.5t-86.5 -74t-86.5 -78t-39.5 -78.5q0 -41 51 -41q34 0 73 5t66 10t29 5q31 0 31 -18q0 -14 -53.5 -52t-88.5 -38q-6 0 -6 8q0 4 4.5 17t4.5 18q0 4 -7 4q-4 0 -8 -2q-31 -15 -65 -15q-49 0 -75 32.5t-26 72.5t19 73t52.5 59.5
t70 51t80.5 61t75 76.5z" />
    <glyph glyph-name="tilde" unicode="&#x2dc;" horiz-adv-x="731" 
d="M432 963q-15 -10 -35 -29t-34 -29t-27 -10q-23 0 -23 37q0 38 45 74.5t104 56.5t105 20q27 0 43.5 -15t23.5 -36.5t12 -43.5t15 -37t27 -15t56 42t81.5 84t67.5 42q9 0 17 -7.5t8 -17.5q0 -22 -43 -74t-104 -97.5t-103 -45.5q-34 0 -51.5 23t-19.5 50t-12 50t-32 23
q-56 0 -121 -45z" />
    </font>
</defs>
</svg>
